<svg width="17" height="17" viewBox="0 0 17 17" fill="none" xmlns="http://www.w3.org/2000/svg">
<path fill-rule="evenodd" clip-rule="evenodd" d="M0.921493 2.45333e-07C0.677098 2.45333e-07 0.442712 0.0970884 0.269899 0.269906C0.0970856 0.442724 0 0.677116 0 0.921517C0 1.16592 0.0970856 1.40031 0.269899 1.57313C0.442712 1.74595 0.677098 1.84303 0.921493 1.84303H3.08147L4.2315 7.60313C3.37699 7.69102 2.56279 8.01089 1.87697 8.52814C1.19114 9.0454 0.659803 9.74034 0.340436 10.5378C0.0210685 11.3353 -0.0741706 12.2049 0.0650216 13.0525C0.204214 13.9002 0.572538 14.6937 1.13015 15.3471C1.68776 16.0006 2.41343 16.4891 3.22865 16.7599C4.04387 17.0306 4.91761 17.0733 5.75534 16.8833C6.59308 16.6933 7.36291 16.2779 7.98156 15.6819C8.60022 15.0859 9.04414 14.3321 9.2653 13.5021H12.6478C12.4026 13.9273 12.2978 14.4191 12.3484 14.9073C12.399 15.3956 12.6024 15.8554 12.9295 16.2213C13.2567 16.5873 13.691 16.8406 14.1705 16.9453C14.6501 17.0501 15.1504 17.0008 15.6003 16.8045C16.0502 16.6083 16.4268 16.2751 16.6763 15.8524C16.9258 15.4297 17.0355 14.939 16.9899 14.4503C16.9443 13.9615 16.7456 13.4996 16.4222 13.1304C16.0988 12.7612 15.6671 12.5034 15.1887 12.3938L15.1739 12.3385L15.1678 12.3201L13.8077 7.33159C13.669 6.57669 13.2681 5.89505 12.6757 5.40698C12.0833 4.91892 11.3376 4.65581 10.5701 4.6641H5.52281L4.74016 0.7409C4.69838 0.531868 4.58543 0.343786 4.42054 0.208691C4.25565 0.0735959 4.04903 -0.000155235 3.83587 2.45333e-07H0.921493ZM13.0766 11.6603H9.37957C9.33071 11.2931 9.23832 10.933 9.10435 10.5876H12.7842L13.0766 11.6603ZM12.2817 8.74458H7.81303C7.32908 8.3189 6.76224 7.99803 6.1482 7.80218L6.1396 7.74812L5.89141 6.50714H10.5873C10.9242 6.503 11.2514 6.61933 11.51 6.83515C11.7686 7.05098 11.9416 7.3521 11.9978 7.68422L12.0175 7.77515L12.2817 8.74458Z" fill="#3B2DFF"/>
</svg>
