<svg width="17" height="17" viewBox="0 0 17 17" fill="none" xmlns="http://www.w3.org/2000/svg">
<path d="M0.289 10.7344C0.799 10.5475 1.326 10.454 1.887 10.454C3.026 10.454 4.0205 10.8109 4.8705 11.5245L2.2015 14.1922C1.31578 13.1953 0.662558 12.0143 0.289 10.7344ZM11.526 6.63093C13.2005 7.87981 15.011 8.18566 16.949 7.54847C16.9745 7.72688 17 8.04972 17 8.5C17 9.37507 16.7875 10.3521 16.388 11.431C15.9885 12.5015 15.4955 13.3681 14.9175 14.0223L9.537 8.66142L11.526 6.63093ZM5.7545 12.442C6.6555 13.7419 6.8425 15.1607 6.307 16.7069C5.1 16.3586 4.0205 15.8149 3.1195 15.0672L5.7545 12.442ZM8.6615 9.53649L14.025 14.9143C12.1805 16.5285 10.013 17.2082 7.548 16.9448C7.7265 16.3841 7.82 15.7724 7.82 15.1097C7.82 14.583 7.701 13.9628 7.463 13.2576C7.225 12.5525 6.9445 11.9748 6.63 11.5245L8.6615 9.53649ZM5.7885 10.6239C5.01377 9.93175 4.06433 9.4646 3.043 9.27312C2.006 9.07771 1.0115 9.13718 0.051 9.46002C0.0255 9.27312 0 8.95028 0 8.5C0 7.62493 0.2125 6.64792 0.612 5.56895C1.0115 4.49848 1.5045 3.63191 2.0825 2.97774L7.7435 8.66142L5.7885 10.6239ZM11.526 4.8723C10.387 3.47049 10.1235 1.94125 10.7355 0.29307C11.2625 0.429003 11.866 0.683877 12.546 1.07468C13.2175 1.45699 13.77 1.8393 14.195 2.20462L11.526 4.8723ZM16.711 6.2741C16.201 6.45252 15.674 6.54597 15.113 6.54597C14.1865 6.54597 13.294 6.2741 12.444 5.71338L15.0705 3.12217C15.8185 4.0567 16.3625 5.10169 16.711 6.2741ZM8.6615 7.74387L2.975 2.08568C4.8195 0.471482 6.987 -0.208181 9.4605 0.0551884C9.2735 0.61591 9.18 1.22761 9.18 1.89028C9.18 2.50197 9.316 3.19013 9.5965 3.96325C9.877 4.72787 10.2 5.33957 10.625 5.78984L8.6615 7.74387Z" fill="#3B2DFF"/>
</svg>
