<svg width="17" height="17" viewBox="0 0 17 17" fill="none" xmlns="http://www.w3.org/2000/svg">
<path d="M0 13.1207V7.31183C0 6.87853 0.185111 6.51294 0.555333 6.21505C0.925556 5.91716 1.3622 5.78176 1.86528 5.80884C3.1088 5.97132 4.29344 6.28627 5.41922 6.75369C6.545 7.2211 7.57193 7.8269 8.5 8.57108C9.4287 7.82636 10.4559 7.22029 11.5817 6.75288C12.7075 6.28546 13.8918 5.97078 15.1347 5.80884C15.6384 5.78176 16.0754 5.91716 16.4456 6.21505C16.8158 6.51294 17.0006 6.87853 17 7.31183V13.1207C17 13.554 16.8347 13.9231 16.5042 14.228C16.1736 14.5329 15.7565 14.6987 15.2528 14.7252C14.2454 14.8606 13.2694 15.084 12.325 15.3955C11.3806 15.7069 10.4991 16.1199 9.68055 16.6344C9.50741 16.7563 9.32261 16.8475 9.12617 16.9082C8.92972 16.9689 8.721 16.9995 8.5 17C8.279 17.0005 8.07028 16.9702 7.87383 16.909C7.67739 16.8478 7.49259 16.7563 7.31944 16.6344C6.50093 16.1199 5.61944 15.7069 4.675 15.3955C3.73056 15.084 2.75463 14.8606 1.74722 14.7252C1.24352 14.6981 0.826389 14.5324 0.495833 14.228C0.165278 13.9236 0 13.5545 0 13.1207ZM8.5 6.4994C7.46111 6.4994 6.57176 6.1812 5.83194 5.5448C5.09213 4.9084 4.72222 4.14337 4.72222 3.2497C4.72222 2.35603 5.09213 1.591 5.83194 0.954599C6.57176 0.3182 7.46111 0 8.5 0C9.53889 0 10.4282 0.3182 11.1681 0.954599C11.9079 1.591 12.2778 2.35603 12.2778 3.2497C12.2778 4.14337 11.9079 4.9084 11.1681 5.5448C10.4282 6.1812 9.53889 6.4994 8.5 6.4994Z" fill="#3B2DFF"/>
</svg>
