<svg width="20" height="15" viewBox="0 0 20 15" fill="none" xmlns="http://www.w3.org/2000/svg">
<path d="M14 0C12.87 0 11.77 0.403846 10.84 1.15385H2C0.89 1.15385 0 2.18077 0 3.46154V10.3846C0 11.6654 0.89 12.6923 2 12.6923H3V13.8462C3 14.1522 3.10536 14.4457 3.29289 14.662C3.48043 14.8784 3.73478 15 4 15H6C6.26522 15 6.51957 14.8784 6.70711 14.662C6.89464 14.4457 7 14.1522 7 13.8462V12.6923H13V13.8462C13 14.1522 13.1054 14.4457 13.2929 14.662C13.4804 14.8784 13.7348 15 14 15H16C16.2652 15 16.5196 14.8784 16.7071 14.662C16.8946 14.4457 17 14.1522 17 13.8462V12.6923H18C19.11 12.6923 20 11.6654 20 10.3846V3.46154C20 2.18077 19.11 1.15385 18 1.15385H17.15C16.23 0.403846 15.13 0 14 0ZM14 1.73077C14.4596 1.73077 14.9148 1.83523 15.3394 2.03818C15.764 2.24113 16.1499 2.5386 16.4749 2.91361C16.7999 3.28861 17.0577 3.73381 17.2336 4.22378C17.4095 4.71375 17.5 5.23889 17.5 5.76923C17.5 6.8403 17.1313 7.8675 16.4749 8.62485C15.8185 9.38221 14.9283 9.80769 14 9.80769C13.0717 9.80769 12.1815 9.38221 11.5251 8.62485C10.8687 7.8675 10.5 6.8403 10.5 5.76923C10.5 4.69816 10.8687 3.67097 11.5251 2.91361C12.1815 2.15625 13.0717 1.73077 14 1.73077ZM2 3.46154H6V4.61538H2V3.46154ZM14 3.46154C13.4696 3.46154 12.9609 3.70467 12.5858 4.13745C12.2107 4.57022 12 5.15719 12 5.76923C12 6.38127 12.2107 6.96824 12.5858 7.40102C12.9609 7.83379 13.4696 8.07692 14 8.07692C14.5304 8.07692 15.0391 7.83379 15.4142 7.40102C15.7893 6.96824 16 6.38127 16 5.76923C16 5.15719 15.7893 4.57022 15.4142 4.13745C15.0391 3.70467 14.5304 3.46154 14 3.46154ZM2 5.76923H6V6.92308H2V5.76923ZM2 8.07692H6V9.23077H2V8.07692Z" fill="#3B2DFF"/>
</svg>
