<svg width="17" height="17" viewBox="0 0 17 17" fill="none" xmlns="http://www.w3.org/2000/svg">
<path d="M13.1827 17H14.4655C15.1145 17 15.6477 16.4977 15.725 15.8641L17 3.12955H13.1364V0H11.6141V3.12955H7.77364L8.00545 4.93773C9.32682 5.30091 10.5632 5.95773 11.305 6.68409C12.4177 7.78136 13.1827 8.91727 13.1827 10.7718V17ZM0 16.2273V15.4545H11.6141V16.2273C11.6141 16.6445 11.2664 17 10.8182 17H0.772727C0.347727 17 0 16.6445 0 16.2273ZM11.6141 10.8182C11.6141 4.63636 0 4.63636 0 10.8182H11.6141ZM0 12.3636H11.5909V13.9091H0V12.3636Z" fill="#3B2DFF"/>
</svg>
