<svg width="16" height="17" viewBox="0 0 16 17" fill="none" xmlns="http://www.w3.org/2000/svg">
<path d="M4.14815 5.1C4.14815 4.87457 4.23734 4.65837 4.3961 4.49896C4.55486 4.33955 4.77019 4.25 4.99471 4.25C5.21923 4.25 5.43456 4.33955 5.59332 4.49896C5.75208 4.65837 5.84127 4.87457 5.84127 5.1V8.8995L6.86561 9.01L11.0476 10.8715C11.4878 11.0755 11.7672 11.526 11.7672 12.019V15.725C11.7418 16.422 11.1915 16.9745 10.4974 17H4.99471C4.67302 17 4.36825 16.8725 4.14815 16.6345L0 13.0645L0.626455 12.41C0.787302 12.2315 1.01587 12.138 1.25291 12.138H1.43915L4.14815 13.6V5.1ZM14.7302 0C14.3934 0 14.0704 0.13433 13.8322 0.373439C13.5941 0.612548 13.4603 0.936849 13.4603 1.275C13.4603 1.61315 13.5941 1.93745 13.8322 2.17656C14.0704 2.41567 14.3934 2.55 14.7302 2.55C15.0669 2.55 15.3899 2.41567 15.6281 2.17656C15.8662 1.93745 16 1.61315 16 1.275C16 0.936849 15.8662 0.612548 15.6281 0.373439C15.3899 0.13433 15.0669 0 14.7302 0ZM14.7302 4.25C14.3934 4.25 14.0704 4.38433 13.8322 4.62344C13.5941 4.86255 13.4603 5.18685 13.4603 5.525C13.4603 5.86315 13.5941 6.18745 13.8322 6.42656C14.0704 6.66567 14.3934 6.8 14.7302 6.8C15.0669 6.8 15.3899 6.66567 15.6281 6.42656C15.8662 6.18745 16 5.86315 16 5.525C16 5.18685 15.8662 4.86255 15.6281 4.62344C15.3899 4.38433 15.0669 4.25 14.7302 4.25ZM10.4974 4.25C10.1606 4.25 9.83758 4.38433 9.59944 4.62344C9.3613 4.86255 9.22751 5.18685 9.22751 5.525C9.22751 5.86315 9.3613 6.18745 9.59944 6.42656C9.83758 6.66567 10.1606 6.8 10.4974 6.8C10.8341 6.8 11.1571 6.66567 11.3953 6.42656C11.6334 6.18745 11.7672 5.86315 11.7672 5.525C11.7672 5.18685 11.6334 4.86255 11.3953 4.62344C11.1571 4.38433 10.8341 4.25 10.4974 4.25ZM14.7302 8.5C14.3934 8.5 14.0704 8.63433 13.8322 8.87344C13.5941 9.11255 13.4603 9.43685 13.4603 9.775C13.4603 10.1132 13.5941 10.4375 13.8322 10.6766C14.0704 10.9157 14.3934 11.05 14.7302 11.05C15.0669 11.05 15.3899 10.9157 15.6281 10.6766C15.8662 10.4375 16 10.1132 16 9.775C16 9.43685 15.8662 9.11255 15.6281 8.87344C15.3899 8.63433 15.0669 8.5 14.7302 8.5Z" fill="#3B2DFF"/>
</svg>
