<svg width="18" height="17" viewBox="0 0 18 17" fill="none" xmlns="http://www.w3.org/2000/svg">
<path d="M13.3251 7.4375H4.69696L4.44916 9.5625H13.5504L13.3251 7.4375ZM1.92605 15.8047L2.89474 7.4375H0.889767C0.589397 7.4375 0.353005 7.29583 0.180593 7.0125C0.00818023 6.72917 -0.0407802 6.41927 0.0337116 6.08281L1.3178 0.770312C1.37787 0.540104 1.483 0.354166 1.63318 0.2125C1.78337 0.0708331 1.96359 0 2.17385 0H15.8257C16.0359 0 16.2162 0.0708331 16.3664 0.2125C16.5165 0.354166 16.6217 0.540104 16.6817 0.770312L17.9658 6.08281C18.0409 6.41927 17.9923 6.72917 17.8198 7.0125C17.6474 7.29583 17.4107 7.4375 17.1098 7.4375H15.1273L16.0735 15.8047C16.1035 16.1234 16.032 16.4025 15.859 16.6419C15.686 16.8814 15.4646 17.0007 15.1949 17C14.9696 17 14.7705 16.9157 14.5975 16.7471C14.4245 16.5785 14.3232 16.3618 14.2938 16.0969L13.7982 11.6875H4.20135L3.70574 16.0969C3.6757 16.3625 3.57448 16.5796 3.40207 16.7482C3.22965 16.9168 3.03051 17.0007 2.80463 17C2.5343 17 2.31292 16.8806 2.14051 16.6419C1.9681 16.4032 1.89661 16.1241 1.92605 15.8047Z" fill="#3B2DFF"/>
</svg>
