<svg width="17" height="13" viewBox="0 0 17 13" fill="none" xmlns="http://www.w3.org/2000/svg">
<path d="M7.43713 2.21429H12.7494C13.3998 2.21425 14.0256 2.46485 14.4988 2.91481C14.972 3.36478 15.2568 3.98009 15.295 4.63486L15.2992 4.78571V5.64286L16.1492 5.65829C16.3569 5.65821 16.5574 5.73481 16.7129 5.87362C16.8684 6.01242 16.9681 6.20383 16.9932 6.41171L17 6.51457V8.22886C17.0002 8.43644 16.9257 8.63705 16.7903 8.79343C16.655 8.9498 16.4679 9.05133 16.2639 9.07914L16.15 9.08686L15.2992 9.07143V9.92857C15.2993 10.5845 15.0508 11.2156 14.6046 11.6928C14.1584 12.17 13.5482 12.4572 12.899 12.4957L12.7494 12.5H5.0955C4.94145 12.5 4.79262 12.4437 4.67653 12.3416C4.56043 12.2395 4.48493 12.0985 4.46398 11.9446L4.45803 11.8571V8C4.45806 7.84452 4.51397 7.69433 4.61539 7.57723C4.71681 7.46014 4.85688 7.38408 5.00965 7.36314L5.0955 7.35714H5.62927C6.23784 7.35714 6.73761 6.88914 6.79371 6.29L6.79966 6.17686V2.85714C6.79967 2.7018 6.85545 2.55171 6.9567 2.43463C7.05795 2.31756 7.19782 2.24141 7.35043 2.22029L7.43713 2.21429ZM3.94805 0.506L4.03475 0.5C4.18879 0.500007 4.33762 0.556265 4.45372 0.658372C4.56981 0.760479 4.64532 0.901525 4.66627 1.05543L4.67222 1.14286L4.67137 2.21429H5.31563C5.4847 2.21429 5.64684 2.28202 5.76639 2.40257C5.88594 2.52313 5.9531 2.68665 5.9531 2.85714V4.99914C5.9531 5.39697 5.79639 5.7785 5.51745 6.0598C5.2385 6.34111 4.86017 6.49914 4.46568 6.49914L3.61317 6.49829V11.8511C3.61319 12.0064 3.55752 12.1563 3.45645 12.2734C3.35537 12.3905 3.21571 12.4667 3.06325 12.488L2.97655 12.494C2.82251 12.494 2.67368 12.4377 2.55758 12.3356C2.44149 12.2335 2.36598 12.0925 2.34503 11.9386L2.33908 11.8511V6.49829H1.48743C1.09308 6.49829 0.714879 6.34037 0.435957 6.05925C0.157035 5.77813 0.000225339 5.39682 0 4.99914V2.85714C0 2.68665 0.0671615 2.52313 0.18671 2.40257C0.306258 2.28202 0.468401 2.21429 0.637468 2.21429H1.27579V1.14286C1.27579 0.987511 1.33158 0.837421 1.43283 0.720345C1.53408 0.603269 1.67395 0.527127 1.82656 0.506L1.91325 0.5C2.0673 0.500007 2.21613 0.556265 2.33222 0.658372C2.44832 0.760479 2.52382 0.901525 2.54477 1.05543L2.55072 1.14286V2.21429H3.39643V1.14286C3.39649 0.987253 3.45252 0.836953 3.55411 0.719839C3.65571 0.602725 3.79513 0.526747 3.94805 0.506Z" fill="#3B2DFF"/>
</svg>
