<svg width="16" height="17" viewBox="0 0 16 17" fill="none" xmlns="http://www.w3.org/2000/svg">
<path fill-rule="evenodd" clip-rule="evenodd" d="M15.263 12.2944C15.262 12.3351 15.2581 12.3758 15.2514 12.4159C15.2689 12.5082 15.2663 12.6033 15.2436 12.6944C15.2209 12.7856 15.1787 12.8704 15.1201 12.943C15.0615 13.0155 14.9879 13.0739 14.9045 13.114C14.8212 13.1542 14.7302 13.175 14.638 13.175H2.97135C2.83456 13.175 2.69911 13.2025 2.57273 13.2559C2.44634 13.3093 2.33151 13.3875 2.23478 13.4862C2.13806 13.5849 2.06133 13.702 2.00898 13.8309C1.95663 13.9598 1.92969 14.098 1.92969 14.2375C1.92969 14.377 1.95663 14.5152 2.00898 14.6441C2.06133 14.773 2.13806 14.8901 2.23478 14.9888C2.33151 15.0875 2.44634 15.1657 2.57273 15.2191C2.69911 15.2725 2.83456 15.3 2.97135 15.3H14.638C14.8038 15.3 14.9628 15.3672 15.08 15.4867C15.1972 15.6063 15.263 15.7684 15.263 15.9375C15.263 16.1066 15.1972 16.2687 15.08 16.3883C14.9628 16.5078 14.8038 16.575 14.638 16.575H2.97135C2.36357 16.575 1.78067 16.3287 1.3509 15.8904C0.92113 15.452 0.679688 14.8574 0.679688 14.2375V2.3375C0.679688 1.71756 0.92113 1.123 1.3509 0.684638C1.78067 0.246272 2.36357 0 2.97135 0H14.138C14.7597 0 15.263 0.5134 15.263 1.1475V12.2944ZM5.47135 3.4C5.30559 3.4 5.14662 3.46716 5.02941 3.58672C4.9122 3.70627 4.84635 3.86842 4.84635 4.0375C4.84635 4.20658 4.9122 4.36873 5.02941 4.48828C5.14662 4.60783 5.30559 4.675 5.47135 4.675H10.4714C10.6371 4.675 10.7961 4.60783 10.9133 4.48828C11.0305 4.36873 11.0964 4.20658 11.0964 4.0375C11.0964 3.86842 11.0305 3.70627 10.9133 3.58672C10.7961 3.46716 10.6371 3.4 10.4714 3.4H5.47135Z" fill="#3B2DFF"/>
</svg>
