<svg width="17" height="17" viewBox="0 0 17 17" fill="none" xmlns="http://www.w3.org/2000/svg">
<path d="M14.45 4.25H13.6V0H3.4V4.25H2.55C1.8737 4.25 1.2251 4.51866 0.746878 4.99688C0.26866 5.4751 0 6.1237 0 6.8V12.75C0 13.2009 0.179107 13.6333 0.497918 13.9521C0.81673 14.2709 1.24913 14.45 1.7 14.45H3.4V17H13.6V14.45H15.3C15.7509 14.45 16.1833 14.2709 16.5021 13.9521C16.8209 13.6333 17 13.2009 17 12.75V6.8C17 6.1237 16.7313 5.4751 16.2531 4.99688C15.7749 4.51866 15.1263 4.25 14.45 4.25ZM5.1 1.7H11.9V4.25H5.1V1.7ZM5.1 15.3V11.9H11.9V15.3H5.1ZM14.45 8.5H11.05V6.8H14.45V8.5Z" fill="black"/>
</svg>
