<svg width="20" height="16" viewBox="0 0 20 16" fill="none" xmlns="http://www.w3.org/2000/svg">
<path d="M10 0.5C15.514 0.5 20 4.986 20 10.5C20.0009 12.0433 19.641 13.5655 18.949 14.945C18.779 15.285 18.433 15.5 18.054 15.5H1.947C1.568 15.5 1.221 15.285 1.051 14.945C0.358984 13.5655 -0.000928879 12.0433 -1.90735e-06 10.5C-1.90735e-06 4.986 4.486 0.5 10 0.5ZM4.978 5.522L8.94 11.56C9.05022 11.7283 9.19256 11.8733 9.35888 11.9865C9.52519 12.0998 9.71221 12.1791 9.90923 12.22C10.1062 12.2608 10.3094 12.2624 10.507 12.2247C10.7047 12.187 10.8929 12.1106 11.061 12C11.2737 11.8609 11.4484 11.671 11.5694 11.4474C11.6903 11.2238 11.7536 10.9737 11.7536 10.7195C11.7536 10.4653 11.6903 10.2152 11.5694 9.99159C11.4484 9.76803 11.2737 9.57811 11.061 9.439L5.023 5.477C5.023 5.477 3.5 8.5 4.99846 5.47284C2.5 8.5 4.98271 5.47979 4.978 5.487C4.97434 5.4921 3.5 8.49372 3.5 8.5C3.5 8.50628 4.97434 5.5169 4.978 5.522Z" fill="black"/>
</svg>
