<svg width="20" height="15" viewBox="0 0 20 15" fill="none" xmlns="http://www.w3.org/2000/svg">
<path fill-rule="evenodd" clip-rule="evenodd" d="M1.78388e-06 10C1.78388e-06 4.486 4.486 0 10 0C15.514 0 20 4.486 20 10C20.0009 11.5433 19.641 13.0655 18.949 14.445C18.779 14.785 18.432 15 18.053 15H1.946C1.567 15 1.221 14.785 1.051 14.445C0.358987 13.0655 -0.000924622 11.5433 1.78388e-06 10ZM15.022 5.022L11.06 11.06C10.9498 11.2283 10.8074 11.3733 10.6411 11.4865C10.4748 11.5998 10.2878 11.6791 10.0908 11.72C9.89376 11.7608 9.69062 11.7624 9.49298 11.7247C9.29534 11.687 9.10709 11.6106 8.939 11.5C8.72628 11.3609 8.55156 11.171 8.43064 10.9474C8.30971 10.7238 8.24639 10.4737 8.24639 10.2195C8.24639 9.96533 8.30971 9.71516 8.43064 9.49159C8.55156 9.26803 8.72628 9.07811 8.939 8.939C8.939 8.939 14.2782 5.4768 14.9523 5.03351C14.998 5.02539 15.0222 5.02166 15.022 5.022Z" fill="black"/>
</svg>
