<svg width="20" height="15" viewBox="0 0 20 15" fill="none" xmlns="http://www.w3.org/2000/svg">
<path d="M8.74956 2.14286H14.9993C15.7644 2.14281 16.5007 2.45606 17.0574 3.01852C17.6141 3.58097 17.9492 4.35012 17.9941 5.16857L17.9991 5.35714V6.42857L18.9991 6.44786C19.2434 6.44777 19.4792 6.54351 19.6622 6.71702C19.8451 6.89053 19.9624 7.12979 19.992 7.38964L20 7.51821V9.66107C20.0002 9.92055 19.9126 10.1713 19.7533 10.3668C19.5941 10.5623 19.374 10.6892 19.134 10.7239L19.0001 10.7336L17.9991 10.7143V11.7857C17.9991 12.6056 17.7068 13.3945 17.1819 13.991C16.6569 14.5875 15.9391 14.9465 15.1752 14.9946L14.9993 15H5.9947C5.81347 15 5.63838 14.9297 5.50179 14.802C5.36521 14.6744 5.27638 14.4981 5.25174 14.3057L5.24474 14.1964V9.375C5.24478 9.18066 5.31055 8.99291 5.42987 8.84654C5.54919 8.70017 5.71398 8.6051 5.89371 8.57893L5.9947 8.57143H6.62267C7.33863 8.57143 7.9266 7.98643 7.9926 7.2375L7.9996 7.09607V2.94643C7.99961 2.75225 8.06524 2.56463 8.18436 2.41829C8.30348 2.27194 8.46802 2.17677 8.64757 2.15036L8.74956 2.14286ZM4.64477 0.00749997L4.74676 0C4.92799 8.18882e-06 5.10309 0.0703316 5.23967 0.197965C5.37625 0.325598 5.46508 0.501907 5.48973 0.694285L5.49673 0.803571L5.49573 2.14286H6.25369C6.45259 2.14286 6.64335 2.22752 6.78399 2.37822C6.92464 2.52892 7.00365 2.73331 7.00365 2.94643V5.62393C7.00365 6.12121 6.81928 6.59812 6.49111 6.94975C6.16294 7.30138 5.71784 7.49893 5.25374 7.49893L4.25079 7.49786V14.1889C4.25081 14.383 4.18532 14.5704 4.06641 14.7168C3.94749 14.8631 3.78318 14.9584 3.60382 14.985L3.50182 14.9925C3.3206 14.9925 3.1455 14.9222 3.00892 14.7945C2.87234 14.6669 2.78351 14.4906 2.75886 14.2982L2.75186 14.1889V7.49786H1.74991C1.28598 7.49786 0.841034 7.30046 0.512891 6.94906C0.184747 6.59766 0.000265104 6.12102 0 5.62393V2.94643C0 2.73331 0.0790136 2.52892 0.219659 2.37822C0.360304 2.22752 0.55106 2.14286 0.749963 2.14286H1.50092V0.803571C1.50093 0.609388 1.56656 0.421777 1.68568 0.275432C1.8048 0.129087 1.96935 0.0339089 2.14889 0.00749997L2.25089 0C2.43212 8.18882e-06 2.60721 0.0703316 2.74379 0.197965C2.88038 0.325598 2.9692 0.501907 2.99385 0.694285L3.00085 0.803571V2.14286H3.9958V0.803571C3.99587 0.609066 4.06179 0.421191 4.18131 0.274799C4.30084 0.128406 4.46486 0.033434 4.64477 0.00749997Z" fill="black"/>
</svg>
