<svg width="18" height="19" viewBox="0 0 18 19" fill="none" xmlns="http://www.w3.org/2000/svg">
<path d="M0 14.9612V18.0012C0 18.2812 0.22 18.5012 0.5 18.5012H3.54C3.67 18.5012 3.8 18.4512 3.89 18.3512L14.81 7.44122L11.06 3.69122L0.15 14.6012C0.0500001 14.7012 0 14.8212 0 14.9612ZM17.71 4.54122C17.8027 4.44871 17.8763 4.33882 17.9264 4.21785C17.9766 4.09687 18.0024 3.96719 18.0024 3.83622C18.0024 3.70525 17.9766 3.57557 17.9264 3.4546C17.8763 3.33363 17.8027 3.22374 17.71 3.13122L15.37 0.791223C15.2775 0.69852 15.1676 0.624972 15.0466 0.574791C14.9257 0.524609 14.796 0.498779 14.665 0.498779C14.534 0.498779 14.4043 0.524609 14.2834 0.574791C14.1624 0.624972 14.0525 0.69852 13.96 0.791223L12.13 2.62122L15.88 6.37122L17.71 4.54122Z" fill="white"/>
</svg>
