<svg width="27" height="25" viewBox="0 0 27 25" fill="none" xmlns="http://www.w3.org/2000/svg">
<path d="M2.77429 13.1954L2.22177 13.7463C2.14187 13.8203 2.0357 13.8618 1.92481 13.8608C1.81109 13.8598 1.70316 13.8143 1.62402 13.7354C1.54502 13.6566 1.50097 13.5509 1.50002 13.4414C1.49908 13.3345 1.53918 13.2307 1.61309 13.1514L13.1718 1.62538C13.1719 1.62533 13.1719 1.62528 13.172 1.62522C13.252 1.54553 13.3614 1.5 13.4763 1.5C13.5912 1.5 13.7006 1.54553 13.7806 1.62522C13.7807 1.62526 13.7807 1.6253 13.7808 1.62534C13.7808 1.62535 13.7808 1.62537 13.7808 1.62538L25.3521 13.1639L25.3613 13.1731L25.3707 13.1821C25.4114 13.2214 25.4437 13.2681 25.4658 13.3194L26.8434 12.7259L25.4658 13.3194C25.4879 13.3707 25.4995 13.4258 25.5 13.4813C25.5005 13.5369 25.4899 13.5921 25.4686 13.6438C25.4474 13.6955 25.416 13.7427 25.376 13.7827C25.3359 13.8226 25.2881 13.8544 25.2351 13.876L25.7787 15.2084L25.2351 13.876C25.1821 13.8976 25.1252 13.9086 25.0677 13.9081C25.0102 13.9076 24.9534 13.8957 24.9009 13.8731C24.8483 13.8506 24.801 13.818 24.7617 13.7774L24.7526 13.768L24.7434 13.7588L24.1783 13.1954L21.6192 10.6434V14.2575V23.0769C21.6192 23.1877 21.575 23.2949 21.4951 23.3746C21.4151 23.4544 21.3056 23.5 21.1906 23.5H5.76202C5.64698 23.5 5.53751 23.4544 5.45746 23.3746C5.37756 23.2949 5.33344 23.1877 5.33344 23.0769V14.2575V10.6434L2.77429 13.1954Z" stroke="#636363" stroke-width="3"/>
</svg>
