<svg width="27" height="25" viewBox="0 0 27 25" fill="none" xmlns="http://www.w3.org/2000/svg">
<path fill-rule="evenodd" clip-rule="evenodd" d="M14.8398 0.56306C14.4781 0.202533 13.9877 0 13.4763 0C12.9649 0 12.4745 0.202533 12.1128 0.56306L0.541373 12.1017C0.190068 12.4644 -0.00432119 12.9502 7.2905e-05 13.4544C0.004467 13.9587 0.207293 14.441 0.564866 14.7976C0.922438 15.1541 1.40615 15.3564 1.91181 15.3608C2.41748 15.3651 2.90464 15.1713 3.26837 14.821L3.83344 14.2575V23.0769C3.83344 23.5869 4.03663 24.0761 4.39831 24.4367C4.75999 24.7974 5.25053 25 5.76202 25H21.1906C21.7021 25 22.1926 24.7974 22.5543 24.4367C22.916 24.0761 23.1192 23.5869 23.1192 23.0769V14.2575L23.6842 14.821C23.8621 15.0047 24.0749 15.1512 24.3102 15.252C24.5455 15.3527 24.7986 15.4058 25.0547 15.408C25.3107 15.4102 25.5647 15.3616 25.8017 15.2649C26.0387 15.1682 26.2541 15.0254 26.4351 14.8448C26.6162 14.6643 26.7594 14.4495 26.8564 14.2132C26.9534 13.9769 27.0022 13.7236 26.9999 13.4683C26.9977 13.2129 26.9445 12.9606 26.8434 12.7259C26.7424 12.4913 26.5954 12.2791 26.4112 12.1017L14.8398 0.56306Z" fill="#0038FF"/>
</svg>
