<svg width="25" height="25" viewBox="0 0 25 25" fill="none" xmlns="http://www.w3.org/2000/svg">
<path d="M8.44444 5.55556C8.44444 4.47996 8.87173 3.44841 9.63229 2.68784C10.3929 1.92728 11.4244 1.5 12.5 1.5C13.5756 1.5 14.6071 1.92728 15.3677 2.68784C16.1283 3.44841 16.5556 4.47996 16.5556 5.55556C16.5556 6.63116 16.1283 7.6627 15.3677 8.42327C14.6071 9.18383 13.5756 9.61111 12.5 9.61111C11.4244 9.61111 10.3929 9.18383 9.63229 8.42327C8.87173 7.6627 8.44444 6.63116 8.44444 5.55556ZM3.09464 16.9835C4.11567 15.9625 5.50049 15.3889 6.94444 15.3889H18.0556C19.4995 15.3889 20.8843 15.9625 21.9054 16.9835C22.9264 18.0046 23.5 19.3894 23.5 20.8333C23.5 21.5406 23.219 22.2189 22.719 22.719C22.2189 23.219 21.5406 23.5 20.8333 23.5H4.16667C3.45942 23.5 2.78114 23.219 2.28105 22.719C1.78095 22.2189 1.5 21.5406 1.5 20.8333C1.5 19.3894 2.07361 18.0046 3.09464 16.9835Z" stroke="#636363" stroke-width="3"/>
</svg>
