<svg width="25" height="25" viewBox="0 0 25 25" fill="none" xmlns="http://www.w3.org/2000/svg">
<path d="M8.94444 5.55556C8.94444 4.61256 9.31905 3.70819 9.98584 3.0414C10.6526 2.3746 11.557 2 12.5 2C13.443 2 14.3474 2.3746 15.0142 3.0414C15.681 3.70819 16.0556 4.61256 16.0556 5.55556C16.0556 6.49855 15.681 7.40292 15.0142 8.06971C14.3474 8.73651 13.443 9.11111 12.5 9.11111C11.557 9.11111 10.6526 8.73651 9.98584 8.06971C9.31905 7.40292 8.94444 6.49855 8.94444 5.55556ZM3.44819 17.3371C4.37546 16.4098 5.6331 15.8889 6.94444 15.8889H18.0556C19.3669 15.8889 20.6245 16.4098 21.5518 17.3371C22.4791 18.2643 23 19.522 23 20.8333C23 21.408 22.7717 21.9591 22.3654 22.3654C21.9591 22.7717 21.408 23 20.8333 23H4.16667C3.59203 23 3.04093 22.7717 2.6346 22.3654C2.22827 21.9591 2 21.408 2 20.8333C2 19.522 2.52093 18.2643 3.44819 17.3371Z" fill="#0038FF" stroke="#0038FF" stroke-width="4"/>
</svg>
