<svg width="26" height="25" viewBox="0 0 26 25" fill="none" xmlns="http://www.w3.org/2000/svg">
<path d="M9.44444 5.55556C9.44444 4.61256 9.81905 3.70819 10.4858 3.0414C11.1526 2.3746 12.057 2 13 2C13.943 2 14.8474 2.3746 15.5142 3.0414C16.181 3.70819 16.5556 4.61256 16.5556 5.55556C16.5556 6.49855 16.181 7.40292 15.5142 8.06971C14.8474 8.73651 13.943 9.11111 13 9.11111C12.057 9.11111 11.1526 8.73651 10.4858 8.06971C9.81905 7.40292 9.44444 6.49855 9.44444 5.55556ZM3.94819 17.3371C4.87546 16.4098 6.1331 15.8889 7.44444 15.8889H18.5556C19.8669 15.8889 21.1245 16.4098 22.0518 17.3371C22.9791 18.2643 23.5 19.522 23.5 20.8333C23.5 21.408 23.2717 21.9591 22.8654 22.3654C22.4591 22.7717 21.908 23 21.3333 23H4.66667C4.09203 23 3.54093 22.7717 3.1346 22.3654C2.72827 21.9591 2.5 21.408 2.5 20.8333C2.5 19.522 3.02093 18.2643 3.94819 17.3371Z" stroke="#636363" stroke-width="4"/>
</svg>
