<svg width="18" height="26" viewBox="0 0 18 26" fill="none" xmlns="http://www.w3.org/2000/svg">
<path d="M0.265091 1.06096C0.285342 0.76754 0.399714 0.494716 0.584419 0.299227C0.769125 0.103739 1.00995 0.000631124 1.2568 0.0113481C1.50366 0.0220652 1.73755 0.145782 1.90984 0.356769C2.08212 0.567756 2.17953 0.849774 2.18182 1.14417V6.98725C2.18182 7.20277 2.25365 7.40946 2.38152 7.56186C2.50938 7.71426 2.68281 7.79987 2.86364 7.79987C3.04447 7.79987 3.21789 7.71426 3.34575 7.56186C3.47362 7.40946 3.54545 7.20277 3.54545 6.98725V0.975146C3.54545 0.716521 3.63166 0.468489 3.78509 0.285614C3.93853 0.102738 4.14664 0 4.36364 0C4.58063 0 4.78874 0.102738 4.94218 0.285614C5.09562 0.468489 5.18182 0.716521 5.18182 0.975146V6.98725C5.18182 7.20277 5.25365 7.40946 5.38152 7.56186C5.50938 7.71426 5.68281 7.79987 5.86364 7.79987C6.04447 7.79987 6.21789 7.71426 6.34576 7.56186C6.47362 7.40946 6.54545 7.20277 6.54545 6.98725V1.14417C6.54774 0.849774 6.64515 0.567756 6.81744 0.356769C6.98972 0.145782 7.22361 0.0220652 7.47047 0.0113481C7.71733 0.000631124 7.95815 0.103739 8.14285 0.299227C8.32756 0.494716 8.44193 0.76754 8.46218 1.06096C8.50909 1.85668 8.72727 5.68185 8.72727 7.80117C8.72727 9.55643 7.99636 11.1089 6.88145 12.0489C6.64582 12.2478 6.58909 12.4585 6.59455 12.5651C6.72873 15.0069 7.09091 21.6899 7.09091 22.7495C7.09091 23.6116 6.80357 24.4384 6.29211 25.048C5.78065 25.6575 5.08695 26 4.36364 26C3.64032 26 2.94663 25.6575 2.43516 25.048C1.9237 24.4384 1.63636 23.6116 1.63636 22.7495C1.63636 21.6886 1.99855 15.0069 2.13273 12.5651C2.13818 12.4585 2.08145 12.2478 1.84582 12.0489C1.27539 11.5686 0.810024 10.9321 0.488829 10.193C0.167635 9.45382 -4.08847e-06 8.63358 0 7.80117C0 5.68185 0.218182 1.85668 0.265091 1.06096ZM10.3636 7.47612C10.3636 5.49333 11.0245 3.59175 12.2009 2.18971C13.3772 0.78766 14.9727 0 16.6364 0C16.8534 0 17.0615 0.102738 17.2149 0.285614C17.3683 0.468489 17.4545 0.716521 17.4545 0.975146V12.0268C17.4545 12.4403 17.5702 14.4907 17.7 16.7621L17.7055 16.87C17.8473 19.3508 18 22.0487 18 22.7495C18 23.6116 17.7127 24.4384 17.2012 25.048C16.6897 25.6575 15.996 26 15.2727 26C14.5494 26 13.8557 25.6575 13.3443 25.048C12.8328 24.4384 12.5455 23.6116 12.5455 22.7495C12.5455 22.0812 12.6851 19.3547 12.8204 16.8544C12.888 15.5919 12.9567 14.3685 13.008 13.4609L13.0331 13.002H12.2727C12.022 13.002 11.7738 12.9431 11.5422 12.8288C11.3105 12.7144 11.1001 12.5468 10.9228 12.3355C10.7455 12.1242 10.6049 11.8734 10.509 11.5973C10.413 11.3213 10.3636 11.0254 10.3636 10.7266V7.47612Z" fill="white"/>
</svg>
