<svg width="23" height="15" viewBox="0 0 23 15" fill="none" xmlns="http://www.w3.org/2000/svg">
<path d="M7.38864 0C5.42905 0 3.54972 0.790176 2.16408 2.1967C0.778443 3.60322 0 5.51088 0 7.5C0 9.48912 0.778443 11.3968 2.16408 12.8033C3.54972 14.2098 5.42905 15 7.38864 15H15.6114C17.571 15 19.4503 14.2098 20.8359 12.8033C22.2216 11.3968 23 9.48912 23 7.5C23 5.51088 22.2216 3.60322 20.8359 2.1967C19.4503 0.790176 17.571 0 15.6114 0H7.38864ZM4.10808 7.5C4.10808 7.27899 4.19457 7.06702 4.34853 6.91074C4.50249 6.75446 4.71131 6.66667 4.92904 6.66667H6.57096V5C6.57096 4.77899 6.65745 4.56702 6.81141 4.41074C6.96537 4.25446 7.17419 4.16667 7.39192 4.16667C7.60965 4.16667 7.81847 4.25446 7.97243 4.41074C8.12638 4.56702 8.21288 4.77899 8.21288 5V6.66667H9.8548C10.0725 6.66667 10.2813 6.75446 10.4353 6.91074C10.5893 7.06702 10.6758 7.27899 10.6758 7.5C10.6758 7.72101 10.5893 7.93297 10.4353 8.08926C10.2813 8.24554 10.0725 8.33333 9.8548 8.33333H8.21288V10C8.21288 10.221 8.12638 10.433 7.97243 10.5893C7.81847 10.7455 7.60965 10.8333 7.39192 10.8333C7.17419 10.8333 6.96537 10.7455 6.81141 10.5893C6.65745 10.433 6.57096 10.221 6.57096 10V8.33333H4.92904C4.71131 8.33333 4.50249 8.24554 4.34853 8.08926C4.19457 7.93297 4.10808 7.72101 4.10808 7.5ZM16.4159 10C16.4159 10.442 16.2429 10.8659 15.935 11.1785C15.6271 11.4911 15.2095 11.6667 14.774 11.6667C14.3385 11.6667 13.9209 11.4911 13.613 11.1785C13.3051 10.8659 13.1321 10.442 13.1321 10C13.1321 9.55797 13.3051 9.13405 13.613 8.82149C13.9209 8.50893 14.3385 8.33333 14.774 8.33333C15.2095 8.33333 15.6271 8.50893 15.935 8.82149C16.2429 9.13405 16.4159 9.55797 16.4159 10ZM16.4159 6.66667C15.9804 6.66667 15.5628 6.49107 15.2549 6.17851C14.947 5.86595 14.774 5.44203 14.774 5C14.774 4.55797 14.947 4.13405 15.2549 3.82149C15.5628 3.50893 15.9804 3.33333 16.4159 3.33333C16.8514 3.33333 17.269 3.50893 17.5769 3.82149C17.8848 4.13405 18.0578 4.55797 18.0578 5C18.0578 5.44203 17.8848 5.86595 17.5769 6.17851C17.269 6.49107 16.8514 6.66667 16.4159 6.66667Z" fill="white"/>
</svg>
