<svg width="20" height="15" viewBox="0 0 20 15" fill="none" xmlns="http://www.w3.org/2000/svg">
<path fill-rule="evenodd" clip-rule="evenodd" d="M20 10C20 4.486 15.514 0 10 0C4.486 0 -1.90735e-06 4.486 -1.90735e-06 10C-0.000928314 11.5433 0.358984 13.0655 1.051 14.445C1.221 14.785 1.568 15 1.947 15H18.054C18.433 15 18.779 14.785 18.949 14.445C19.641 13.0655 20.0009 11.5433 20 10ZM4.978 5.022L8.94 11.06C9.05022 11.2283 9.19256 11.3733 9.35888 11.4865C9.52519 11.5998 9.71221 11.6791 9.90923 11.72C10.1062 11.7608 10.3094 11.7624 10.507 11.7247C10.7047 11.687 10.8929 11.6106 11.061 11.5C11.2737 11.3609 11.4484 11.171 11.5694 10.9474C11.6903 10.7238 11.7536 10.4737 11.7536 10.2195C11.7536 9.96533 11.6903 9.71516 11.5694 9.49159C11.4484 9.26803 11.2737 9.07811 11.061 8.939C11.061 8.939 5.7218 5.4768 5.04767 5.03351C5.00201 5.02539 4.97776 5.02166 4.978 5.022Z" fill="white"/>
</svg>
