<svg width="17" height="17" viewBox="0 0 17 17" fill="none" xmlns="http://www.w3.org/2000/svg">
<path d="M12.7502 1.13891C14.0322 1.87914 15.0987 2.94135 15.844 4.22041C16.5894 5.49947 16.9878 6.95101 16.9997 8.43135C17.0117 9.91168 16.6368 11.3695 15.9122 12.6604C15.1876 13.9513 14.1384 15.0306 12.8685 15.7915C11.5986 16.5523 10.152 16.9683 8.67189 16.9983C7.19179 17.0282 5.72954 16.6711 4.42988 15.9623C3.13021 15.2534 2.03822 14.2175 1.26198 12.9569C0.485749 11.6963 0.0521986 10.2549 0.00425015 8.77531L0 8.49991L0.00425015 8.22451C0.0518534 6.75655 0.479021 5.32597 1.24411 4.07225C2.0092 2.81853 3.08609 1.78444 4.36981 1.07081C5.65353 0.357174 7.10026 -0.0116542 8.56896 0.000280709C10.0377 0.0122156 11.4782 0.404507 12.7502 1.13891ZM11.8568 6.95631C11.791 6.75872 11.6549 6.59219 11.4744 6.48831C11.2939 6.38442 11.0815 6.35042 10.8776 6.39276L10.7815 6.41826L8.5001 7.17901L6.21868 6.41826L6.12263 6.39276C5.9189 6.35083 5.70687 6.38505 5.52668 6.48895C5.3465 6.59284 5.21065 6.75919 5.14488 6.95651C5.07911 7.15383 5.08796 7.36842 5.16978 7.55965C5.25159 7.75087 5.40068 7.90547 5.58882 7.99416L5.68147 8.03156L7.65009 8.68691V9.51651L6.09288 11.854L6.04187 11.939C5.95569 12.1083 5.92871 12.3016 5.96522 12.488C6.00174 12.6744 6.09965 12.8432 6.24333 12.9675L6.32833 13.0321L6.41418 13.0831C6.58347 13.1693 6.77675 13.1963 6.96318 13.1598C7.1496 13.1232 7.31842 13.0253 7.44269 12.8817L7.50729 12.7967L8.5001 11.3075L9.49292 12.7967L9.55242 12.8757C9.68728 13.0347 9.87586 13.1385 10.0823 13.1675C10.2887 13.1965 10.4986 13.1487 10.6721 13.033C10.8455 12.9174 10.9704 12.7421 11.0231 12.5404C11.0757 12.3386 11.0523 12.1246 10.9575 11.939L10.9073 11.854L9.35012 9.51651V8.68606L11.3187 8.03071L11.4114 7.99331C11.5998 7.90487 11.7493 7.75035 11.8314 7.55905C11.9135 7.36775 11.9225 7.15298 11.8568 6.95546V6.95631ZM8.5001 3.39991C8.16195 3.39991 7.83764 3.53424 7.59853 3.77335C7.35942 4.01246 7.22509 4.33676 7.22509 4.67491C7.22509 5.01306 7.35942 5.33736 7.59853 5.57647C7.83764 5.81558 8.16195 5.94991 8.5001 5.94991C8.83826 5.94991 9.16257 5.81558 9.40168 5.57647C9.64079 5.33736 9.77512 5.01306 9.77512 4.67491C9.77512 4.33676 9.64079 4.01246 9.40168 3.77335C9.16257 3.53424 8.83826 3.39991 8.5001 3.39991Z" fill="white"/>
</svg>
