<svg width="18" height="17" viewBox="0 0 18 17" fill="none" xmlns="http://www.w3.org/2000/svg">
<path d="M17.4173 1.07434C16.6581 -0.192408 15.0471 -0.369582 14.0796 0.706476L10.3252 4.88208C10.0714 5.16428 9.90515 5.52912 9.8505 5.92361L9.45675 8.77191C9.4428 8.87287 9.45129 8.9761 9.48147 9.07257C9.51166 9.16905 9.56263 9.25583 9.62993 9.32534C9.69722 9.39486 9.7788 9.44499 9.86753 9.47136C9.95626 9.49772 10.0494 9.49952 10.1389 9.4766L12.7354 8.81045C13.0567 8.72802 13.3493 8.54272 13.577 8.27742L17.1814 4.07729C17.5215 3.68092 17.7301 3.16761 17.773 2.62182C17.8158 2.07603 17.6904 1.53027 17.4173 1.07434ZM8.3448 8.58172C8.3029 8.88471 8.32836 9.19451 8.41897 9.48403C8.50957 9.77355 8.66257 10.034 8.86457 10.2426C9.06657 10.4511 9.31143 10.6015 9.57775 10.6805C9.84407 10.7595 10.1237 10.7648 10.3923 10.6958L12.9888 10.0296C13.5242 9.89222 14.0117 9.58338 14.391 9.14127L18 4.93614V13.8719C18 14.7015 17.7037 15.4972 17.1762 16.0838C16.6488 16.6704 15.9334 17 15.1875 17H2.8125C2.06658 17 1.35121 16.6704 0.823762 16.0838C0.296316 15.4972 3.60033e-08 14.7015 3.60033e-08 13.8719V9.0652C0.033 9.04918 0.0648 9.02949 0.0954 9.00614C0.3555 8.80594 0.67455 8.53367 1.01565 8.24239C1.17045 8.11026 1.3302 7.97412 1.4904 7.83949C2.01915 7.39505 2.5857 6.93911 3.14055 6.57475C3.7044 6.20488 4.2102 5.96014 4.62195 5.89007C5.00805 5.82501 5.247 5.9176 5.42295 6.14633C5.52555 6.27896 5.56425 6.39457 5.5764 6.49917C5.5899 6.61178 5.5773 6.75192 5.52285 6.9336C5.409 7.31548 5.1642 7.73038 4.86 8.24489L4.8438 8.27142C4.5603 8.75239 4.21425 9.33897 4.0707 9.94006C3.99555 10.2554 3.9681 10.6012 4.04325 10.9576C4.11885 11.3179 4.29075 11.6457 4.5522 11.937C4.9284 12.3554 5.3577 12.5536 5.7888 12.5877C6.20595 12.6212 6.5889 12.4991 6.894 12.3479C7.15781 12.2145 7.40657 12.0471 7.63515 11.8489C7.73593 11.7617 7.83294 11.6691 7.92585 11.5717L7.9317 11.5657L7.93395 11.5632L7.9344 11.5627L7.93485 11.5622C8.03747 11.4443 8.09438 11.2864 8.09331 11.1223C8.09224 10.9583 8.03328 10.8013 7.92914 10.6851C7.82499 10.569 7.68398 10.5029 7.53649 10.5013C7.389 10.4996 7.24683 10.5625 7.1406 10.6763L7.1334 10.6838L7.0974 10.7208C7.04896 10.7689 6.99898 10.8149 6.94755 10.859C6.79012 10.9958 6.61886 11.1117 6.43725 11.2043C6.2361 11.3039 6.0426 11.3534 5.8689 11.3394C5.7096 11.3274 5.5341 11.2594 5.3478 11.0522C5.2146 10.9045 5.1606 10.7779 5.13855 10.6723C5.11515 10.5632 5.1174 10.431 5.1579 10.2619C5.2461 9.89251 5.4774 9.4786 5.7843 8.95859L5.8383 8.868C6.1083 8.41255 6.4287 7.87102 6.5907 7.32749C6.6807 7.02419 6.7338 6.68786 6.69195 6.33551C6.6492 5.97516 6.51195 5.63682 6.27705 5.33203C5.778 4.68439 5.10255 4.54275 4.45185 4.65336C3.82635 4.75946 3.1725 5.1013 2.5686 5.49769C1.9566 5.89958 1.3491 6.39007 0.81225 6.84101C0.63135 6.99349 0.4611 7.13797 0.3015 7.27444L0.30105 7.27494C0.19605 7.36502 0.0954 7.45044 3.60033e-08 7.53119V4.11283C-5.90649e-05 3.702 0.0726447 3.29518 0.21396 2.91561C0.355275 2.53604 0.562432 2.19114 0.823603 1.90062C1.08477 1.6101 1.39484 1.37964 1.7361 1.22241C2.07736 1.06518 2.44312 0.984249 2.8125 0.984249H12.2386L9.52965 3.99671C9.10665 4.46715 8.82953 5.07534 8.73855 5.73292L8.3448 8.58172Z" fill="white"/>
</svg>
