<svg width="17" height="17" viewBox="0 0 17 17" fill="none" xmlns="http://www.w3.org/2000/svg">
<path fill-rule="evenodd" clip-rule="evenodd" d="M10.625 1.98985C13.1006 2.69025 14.875 4.5798 14.875 6.8V14.45H15.4062C15.8289 14.45 16.2343 14.5843 16.5332 14.8234C16.8321 15.0625 17 15.3868 17 15.725C17 16.0632 16.8321 16.3875 16.5332 16.6266C16.2343 16.8657 15.8289 17 15.4062 17H1.59375C1.17106 17 0.765684 16.8657 0.466798 16.6266C0.167912 16.3875 0 16.0632 0 15.725C0 15.3868 0.167912 15.0625 0.466798 14.8234C0.765684 14.5843 1.17106 14.45 1.59375 14.45H2.125V6.8C2.12453 5.74504 2.53301 4.71592 3.29418 3.85443C4.05534 2.99295 5.13171 2.3415 6.375 1.98985V1.7C6.375 1.24913 6.59888 0.81673 6.9974 0.497918C7.39591 0.179107 7.93641 0 8.5 0C9.06359 0 9.60409 0.179107 10.0026 0.497918C10.4011 0.81673 10.625 1.24913 10.625 1.7V1.98985ZM12.75 7.65V10.2H9.5625V7.65H12.75ZM12.75 5.95H9.5625V3.4C10.3299 3.55881 11.0302 3.87903 11.5907 4.32743C12.1512 4.77583 12.5515 5.33607 12.75 5.95ZM4.25 7.65H7.4375V10.2H4.25V7.65ZM4.25 5.95C4.44851 5.33607 4.84879 4.77583 5.40929 4.32743C5.96979 3.87903 6.67009 3.55881 7.4375 3.4V5.95H4.25ZM12.75 11.9V14.45H9.5625V11.9H12.75ZM4.25 11.9H7.4375V14.45H4.25V11.9Z" fill="white"/>
</svg>
