<svg width="20" height="17" viewBox="0 0 20 17" fill="none" xmlns="http://www.w3.org/2000/svg">
<path d="M1.30889 7.15501C1.48046 7.35687 1.73339 7.34644 1.89609 7.14457C4.02901 4.4759 6.84822 3.07239 10.0021 3.07239C13.1737 3.07239 16.0022 4.48634 18.1258 7.15501C18.2793 7.336 18.5237 7.336 18.686 7.13369L19.8882 5.71974C20.0324 5.5392 20.0324 5.30513 19.9152 5.13502C17.8729 2.17921 14.0323 0 10.0021 0C5.97184 0 2.13129 2.17921 0.0885932 5.13502C-0.0378702 5.30513 -0.0290024 5.53875 0.115582 5.72019L1.30889 7.15501ZM4.92351 11.4186C5.10433 11.6418 5.33914 11.6205 5.51071 11.3869C6.55905 10.0151 8.25782 9.0262 10.0021 9.04752C11.7641 9.0262 13.454 10.0469 14.5112 11.4186C14.6828 11.6309 14.9087 11.6309 15.0807 11.4077L16.427 9.84499C16.5716 9.67489 16.5898 9.4517 16.454 9.27071C15.1439 7.36776 12.713 5.96424 10.0021 5.96424C7.29122 5.96424 4.86027 7.37819 3.54976 9.27116C3.41443 9.4517 3.43255 9.664 3.57675 9.84499L4.92351 11.4186ZM10.0021 17C10.1918 17 10.3634 16.883 10.6976 16.5006L12.8124 14.1081C12.9478 13.9594 12.9751 13.7257 12.8575 13.5447C12.2881 12.6838 11.222 11.9394 10.0021 11.9394C8.75481 11.9394 7.67061 12.7155 7.1104 13.6087C7.02904 13.7575 7.05642 13.9594 7.19137 14.1081L9.30616 16.5006C9.64044 16.883 9.8124 17 10.0021 17Z" fill="white"/>
</svg>
