<svg width="20" height="15" viewBox="0 0 20 15" fill="none" xmlns="http://www.w3.org/2000/svg">
<path fill-rule="evenodd" clip-rule="evenodd" d="M1.05111 14.445C1.22111 14.785 1.56811 15 1.94711 15H18.055C18.434 15 18.781 14.785 18.951 14.445C19.6431 13.0655 20.0009 11.5433 20 10C20 4.486 15.5141 0 10.0001 0C4.48609 0 0.000110626 4.486 0.000110626 10C-0.000814438 11.5433 0.359095 13.0655 1.05111 14.445ZM8.50009 8.5L10.0001 3.5L11.502 8.5C11.502 8.64039 11.5415 8.8202 11.5871 9.02836C11.704 9.56156 11.8617 10.2808 11.5021 11C11.2257 11.5528 10.9373 11.6838 10.7403 11.7247C10.2064 11.8807 9.83922 11.8734 9.26186 11.7247C9.06485 11.6838 8.77646 11.5528 8.50009 11C8.14047 10.2808 8.29815 9.56155 8.41504 9.02835C8.46068 8.8202 8.50009 8.64039 8.50009 8.5Z" fill="white"/>
</svg>
