<svg width="17" height="17" viewBox="0 0 17 17" fill="none" xmlns="http://www.w3.org/2000/svg">
<path d="M9.35001 13.4211V15.2105H12.75V17H4.25002V15.2105H7.65001V13.4211H0.843226C0.731602 13.4201 0.621245 13.396 0.518459 13.3502C0.415673 13.3044 0.322469 13.2377 0.24417 13.1539C0.165871 13.0702 0.10401 12.971 0.0621202 12.8621C0.0202301 12.7532 -0.000869148 12.6367 2.74188e-05 12.5192V0.901895C2.74188e-05 0.403526 0.386777 0 0.843226 0H16.1568C16.6226 0 17 0.401737 17 0.901V12.5192C17 13.0175 16.6132 13.4211 16.1568 13.4211H9.35001Z" fill="white"/>
</svg>
