<svg width="17" height="13" viewBox="0 0 17 13" fill="none" xmlns="http://www.w3.org/2000/svg">
<path d="M11.9 0.975098C10.9395 0.975098 10.0045 1.2726 9.214 1.8251H1.7C0.7565 1.8251 0 2.5816 0 3.5251V8.6251C0 9.5686 0.7565 10.3251 1.7 10.3251H2.55V11.1751C2.55 11.4005 2.63955 11.6167 2.79896 11.7761C2.95837 11.9355 3.17457 12.0251 3.4 12.0251H5.1C5.32543 12.0251 5.54164 11.9355 5.70104 11.7761C5.86045 11.6167 5.95 11.4005 5.95 11.1751V10.3251H11.05V11.1751C11.05 11.4005 11.1396 11.6167 11.299 11.7761C11.4584 11.9355 11.6746 12.0251 11.9 12.0251H13.6C13.8254 12.0251 14.0416 11.9355 14.201 11.7761C14.3604 11.6167 14.45 11.4005 14.45 11.1751V10.3251H15.3C16.2435 10.3251 17 9.5686 17 8.6251V3.5251C17 2.5816 16.2435 1.8251 15.3 1.8251H14.5775C13.7955 1.2726 12.8605 0.975098 11.9 0.975098ZM11.9 2.2501C12.2907 2.2501 12.6775 2.32705 13.0385 2.47656C13.3994 2.62606 13.7274 2.8452 14.0036 3.12146C14.2799 3.39771 14.499 3.72567 14.6485 4.08661C14.798 4.44756 14.875 4.83442 14.875 5.2251C14.875 6.01412 14.5616 6.77082 14.0036 7.32874C13.4457 7.88666 12.689 8.2001 11.9 8.2001C11.111 8.2001 10.3543 7.88666 9.79636 7.32874C9.23844 6.77082 8.925 6.01412 8.925 5.2251C8.925 4.43608 9.23844 3.67938 9.79636 3.12146C10.3543 2.56353 11.111 2.2501 11.9 2.2501ZM1.7 3.5251H5.1V4.3751H1.7V3.5251ZM11.9 3.5251C11.4491 3.5251 11.0167 3.7042 10.6979 4.02302C10.3791 4.34183 10.2 4.77423 10.2 5.2251C10.2 5.67597 10.3791 6.10837 10.6979 6.42718C11.0167 6.74599 11.4491 6.9251 11.9 6.9251C12.3509 6.9251 12.7833 6.74599 13.1021 6.42718C13.4209 6.10837 13.6 5.67597 13.6 5.2251C13.6 4.77423 13.4209 4.34183 13.1021 4.02302C12.7833 3.7042 12.3509 3.5251 11.9 3.5251ZM1.7 5.2251H5.1V6.0751H1.7V5.2251ZM1.7 6.9251H5.1V7.7751H1.7V6.9251Z" fill="black"/>
</svg>
