<svg width="12" height="13" viewBox="0 0 12 13" fill="none" xmlns="http://www.w3.org/2000/svg">
<path d="M0.198333 8.03397C0.548333 7.90563 0.91 7.84147 1.295 7.84147C2.07667 7.84147 2.75917 8.08647 3.3425 8.57647L1.51083 10.4081C0.902984 9.72366 0.454697 8.91276 0.198333 8.03397ZM7.91 5.21647C9.05917 6.07397 10.3017 6.28397 11.6317 5.84647C11.6492 5.96897 11.6667 6.19063 11.6667 6.4998C11.6667 7.10063 11.5208 7.77147 11.2467 8.5123C10.9725 9.2473 10.6342 9.8423 10.2375 10.2915L6.545 6.61063L7.91 5.21647ZM3.94917 9.20647C4.5675 10.099 4.69583 11.0731 4.32833 12.1348C3.5 11.8956 2.75917 11.5223 2.14083 11.009L3.94917 9.20647ZM5.94417 7.21147L9.625 10.904C8.35917 12.0123 6.87167 12.479 5.18 12.2981C5.3025 11.9131 5.36667 11.4931 5.36667 11.0381C5.36667 10.6765 5.285 10.2506 5.12167 9.76647C4.95833 9.2823 4.76583 8.88563 4.55 8.57647L5.94417 7.21147ZM3.9725 7.95813C3.44083 7.48286 2.78925 7.16211 2.08833 7.03063C1.37667 6.89647 0.694167 6.9373 0.035 7.15897C0.0175 7.03063 0 6.80897 0 6.4998C0 5.89897 0.145833 5.22813 0.42 4.4873C0.694167 3.7523 1.0325 3.1573 1.42917 2.70813L5.31417 6.61063L3.9725 7.95813ZM7.91 4.00897C7.12833 3.04647 6.9475 1.99647 7.3675 0.864801C7.72917 0.958134 8.14333 1.13313 8.61 1.40147C9.07083 1.66397 9.45 1.92647 9.74167 2.1773L7.91 4.00897ZM11.4683 4.97147C11.1183 5.09397 10.7567 5.15813 10.3717 5.15813C9.73583 5.15813 9.12333 4.97147 8.54 4.58647L10.3425 2.8073C10.8558 3.44897 11.2292 4.16647 11.4683 4.97147ZM5.94417 5.98063L2.04167 2.09563C3.3075 0.987301 4.795 0.520634 6.4925 0.701467C6.36417 1.08647 6.3 1.50647 6.3 1.96147C6.3 2.38147 6.39333 2.85397 6.58583 3.3848C6.77833 3.9098 7 4.3298 7.29167 4.63897L5.94417 5.98063Z" fill="black"/>
</svg>
