<svg width="14" height="15" viewBox="0 0 14 15" fill="none" xmlns="http://www.w3.org/2000/svg">
<path fill-rule="evenodd" clip-rule="evenodd" d="M0.75 0.582031C0.551088 0.582031 0.360322 0.661049 0.21967 0.801701C0.0790176 0.942354 0 1.13312 0 1.33203C0 1.53094 0.0790176 1.72171 0.21967 1.86236C0.360322 2.00301 0.551088 2.08203 0.75 2.08203H2.508L3.444 6.77003C2.74852 6.84156 2.08585 7.1019 1.52766 7.52288C0.969465 7.94386 0.537011 8.50946 0.27708 9.15849C0.0171476 9.80751 -0.0603672 10.5153 0.0529208 11.2052C0.166209 11.8951 0.465987 12.5409 0.919824 13.0727C1.37366 13.6045 1.96428 14.0021 2.62779 14.2225C3.29129 14.4428 4.00242 14.4776 4.68425 14.323C5.36608 14.1683 5.99265 13.8302 6.49617 13.3451C6.99969 12.8601 7.361 12.2466 7.541 11.571H10.294C10.0944 11.9171 10.0092 12.3173 10.0503 12.7147C10.0915 13.1121 10.257 13.4863 10.5233 13.7842C10.7896 14.082 11.143 14.2882 11.5333 14.3734C11.9236 14.4587 12.3309 14.4186 12.6971 14.2588C13.0632 14.0991 13.3697 13.8279 13.5728 13.4839C13.7758 13.1399 13.8652 12.7405 13.828 12.3427C13.7909 11.945 13.6292 11.5691 13.366 11.2685C13.1028 10.968 12.7514 10.7582 12.362 10.669L12.35 10.624L12.345 10.609L11.238 6.54903C11.1251 5.93463 10.7988 5.37987 10.3167 4.98264C9.83459 4.58542 9.22764 4.37128 8.603 4.37803H4.495L3.858 1.18503C3.824 1.01491 3.73206 0.86183 3.59786 0.751879C3.46366 0.641929 3.29549 0.581905 3.122 0.582031H0.75ZM10.643 10.072H7.634C7.59423 9.77318 7.51903 9.48012 7.41 9.19903H10.405L10.643 10.072ZM9.996 7.69903H6.359C5.96512 7.35258 5.50377 7.09143 5.004 6.93203L4.997 6.88803L4.795 5.87803H8.617C8.89113 5.87466 9.15745 5.96934 9.36794 6.14499C9.57843 6.32065 9.71925 6.56572 9.765 6.83603L9.781 6.91003L9.996 7.69903Z" fill="black"/>
</svg>
