<svg width="14" height="19" viewBox="0 0 14 19" fill="none" xmlns="http://www.w3.org/2000/svg">
<path d="M0.206182 0.775316C0.221933 0.560894 0.310888 0.361523 0.454548 0.218666C0.598208 0.0758091 0.785515 0.000461206 0.977515 0.00829287C1.16951 0.0161245 1.35143 0.106533 1.48543 0.260716C1.61943 0.414898 1.69519 0.620989 1.69697 0.836126V5.10607C1.69697 5.26356 1.75284 5.41461 1.85229 5.52597C1.95174 5.63734 2.08663 5.69991 2.22727 5.69991C2.36792 5.69991 2.5028 5.63734 2.60225 5.52597C2.7017 5.41461 2.75758 5.26356 2.75758 5.10607V0.712607C2.75758 0.523612 2.82462 0.342357 2.94396 0.208718C3.0633 0.0750779 3.22517 0 3.39394 0C3.56271 0 3.72457 0.0750779 3.84392 0.208718C3.96326 0.342357 4.0303 0.523612 4.0303 0.712607V5.10607C4.0303 5.26356 4.08617 5.41461 4.18563 5.52597C4.28508 5.63734 4.41996 5.69991 4.56061 5.69991C4.70125 5.69991 4.83614 5.63734 4.93559 5.52597C5.03504 5.41461 5.09091 5.26356 5.09091 5.10607V0.836126C5.09269 0.620989 5.16845 0.414898 5.30245 0.260716C5.43645 0.106533 5.61836 0.0161245 5.81036 0.00829287C6.00236 0.000461206 6.18967 0.0758091 6.33333 0.218666C6.47699 0.361523 6.56595 0.560894 6.5817 0.775316C6.61818 1.3568 6.78788 4.15212 6.78788 5.70086C6.78788 6.98355 6.21939 8.11802 5.35224 8.80497C5.16897 8.95034 5.12485 9.10427 5.12909 9.18218C5.23345 10.9665 5.51515 15.8503 5.51515 16.6246C5.51515 17.2546 5.29167 17.8588 4.89386 18.3043C4.49606 18.7497 3.95652 19 3.39394 19C2.83136 19 2.29182 18.7497 1.89402 18.3043C1.49621 17.8588 1.27273 17.2546 1.27273 16.6246C1.27273 15.8493 1.55442 10.9665 1.65879 9.18218C1.66303 9.10427 1.61891 8.95034 1.43564 8.80497C0.99197 8.45398 0.630019 7.98887 0.380201 7.44872C0.130383 6.90856 -3.17992e-06 6.30915 0 5.70086C0 4.15212 0.169697 1.3568 0.206182 0.775316ZM8.06061 5.46332C8.06061 4.01436 8.57462 2.62474 9.48957 1.60017C10.4045 0.575598 11.6455 0 12.9394 0C13.1082 0 13.27 0.0750779 13.3894 0.208718C13.5087 0.342357 13.5758 0.523612 13.5758 0.712607V8.78882C13.5758 9.09096 13.6657 10.5893 13.7667 12.2492L13.7709 12.3281C13.8812 14.141 14 16.1125 14 16.6246C14 17.2546 13.7765 17.8588 13.3787 18.3043C12.9809 18.7497 12.4414 19 11.8788 19C11.3162 19 10.7767 18.7497 10.3789 18.3043C9.98106 17.8588 9.75758 17.2546 9.75758 16.6246C9.75758 16.1363 9.86618 14.1438 9.97139 12.3167C10.024 11.3941 10.0775 10.5 10.1173 9.83683L10.1368 9.50143H9.54545C9.35046 9.50143 9.15738 9.45842 8.97723 9.37486C8.79708 9.2913 8.63339 9.16882 8.49551 9.01442C8.35763 8.86002 8.24825 8.67672 8.17363 8.47498C8.09901 8.27325 8.06061 8.05703 8.06061 7.83868V5.46332Z" fill="black"/>
</svg>
