<svg width="14" height="13" viewBox="0 0 14 13" fill="none" xmlns="http://www.w3.org/2000/svg">
<path d="M7.70001 9.97368V11.2368H10.5V12.5H3.50002V11.2368H6.30001V9.97368H0.694422C0.602495 9.97302 0.511614 9.95603 0.426966 9.92368C0.342319 9.89133 0.265563 9.84425 0.201081 9.78513C0.1366 9.72602 0.0856556 9.65602 0.0511578 9.57913C0.0166601 9.50225 -0.000715769 9.41999 2.25802e-05 9.33705V1.13663C2.25802e-05 0.784842 0.318522 0.5 0.694422 0.5H13.3056C13.6892 0.5 14 0.783579 14 1.136V9.33705C14 9.68884 13.6815 9.97368 13.3056 9.97368H7.70001Z" fill="black"/>
</svg>
