<svg width="14" height="17" viewBox="0 0 14 17" fill="none" xmlns="http://www.w3.org/2000/svg">
<path d="M3.62963 5.3C3.62963 5.08783 3.70767 4.88434 3.84659 4.73431C3.9855 4.58429 4.17391 4.5 4.37037 4.5C4.56683 4.5 4.75524 4.58429 4.89415 4.73431C5.03307 4.88434 5.11111 5.08783 5.11111 5.3V8.876L6.00741 8.98L9.66667 10.732C10.0519 10.924 10.2963 11.348 10.2963 11.812V15.3C10.2741 15.956 9.79259 16.476 9.18519 16.5H4.37037C4.08889 16.5 3.82222 16.38 3.62963 16.156L0 12.796L0.548148 12.18C0.688889 12.012 0.888889 11.924 1.0963 11.924H1.25926L3.62963 13.3V5.3ZM12.8889 0.5C12.5942 0.5 12.3116 0.626428 12.1032 0.851472C11.8948 1.07652 11.7778 1.38174 11.7778 1.7C11.7778 2.01826 11.8948 2.32348 12.1032 2.54853C12.3116 2.77357 12.5942 2.9 12.8889 2.9C13.1836 2.9 13.4662 2.77357 13.6746 2.54853C13.8829 2.32348 14 2.01826 14 1.7C14 1.38174 13.8829 1.07652 13.6746 0.851472C13.4662 0.626428 13.1836 0.5 12.8889 0.5ZM12.8889 4.5C12.5942 4.5 12.3116 4.62643 12.1032 4.85147C11.8948 5.07652 11.7778 5.38174 11.7778 5.7C11.7778 6.01826 11.8948 6.32348 12.1032 6.54853C12.3116 6.77357 12.5942 6.9 12.8889 6.9C13.1836 6.9 13.4662 6.77357 13.6746 6.54853C13.8829 6.32348 14 6.01826 14 5.7C14 5.38174 13.8829 5.07652 13.6746 4.85147C13.4662 4.62643 13.1836 4.5 12.8889 4.5ZM9.18519 4.5C8.8905 4.5 8.60789 4.62643 8.39951 4.85147C8.19114 5.07652 8.07407 5.38174 8.07407 5.7C8.07407 6.01826 8.19114 6.32348 8.39951 6.54853C8.60789 6.77357 8.8905 6.9 9.18519 6.9C9.47987 6.9 9.76249 6.77357 9.97086 6.54853C10.1792 6.32348 10.2963 6.01826 10.2963 5.7C10.2963 5.38174 10.1792 5.07652 9.97086 4.85147C9.76249 4.62643 9.47987 4.5 9.18519 4.5ZM12.8889 8.5C12.5942 8.5 12.3116 8.62643 12.1032 8.85147C11.8948 9.07652 11.7778 9.38174 11.7778 9.7C11.7778 10.0183 11.8948 10.3235 12.1032 10.5485C12.3116 10.7736 12.5942 10.9 12.8889 10.9C13.1836 10.9 13.4662 10.7736 13.6746 10.5485C13.8829 10.3235 14 10.0183 14 9.7C14 9.38174 13.8829 9.07652 13.6746 8.85147C13.4662 8.62643 13.1836 8.5 12.8889 8.5Z" fill="black"/>
</svg>
