<svg width="15" height="15" viewBox="0 0 15 15" fill="none" xmlns="http://www.w3.org/2000/svg">
<path d="M11.2501 1.00492C12.3814 1.65806 13.3224 2.59531 13.98 3.72389C14.6377 4.85247 14.9892 6.13325 14.9998 7.43942C15.0103 8.7456 14.6795 10.0319 14.0402 11.1709C13.4008 12.31 12.4751 13.2623 11.3546 13.9337C10.2341 14.605 8.95764 14.972 7.65167 14.9985C6.3457 15.0249 5.05547 14.7098 3.90871 14.0844C2.76195 13.4589 1.79843 12.5448 1.11351 11.4326C0.428602 10.3203 0.0460575 9.04845 0.00375013 7.74292L0 7.49992L0.00375013 7.25692C0.045753 5.96166 0.422666 4.69939 1.09774 3.59316C1.77282 2.48694 2.72302 1.57451 3.85572 0.944831C4.98841 0.315154 6.26494 -0.0102831 7.56085 0.000247684C8.85676 0.0107785 10.1278 0.356918 11.2501 1.00492ZM10.4619 6.13792C10.4038 5.96358 10.2837 5.81664 10.1244 5.72498C9.96517 5.63331 9.77779 5.60331 9.59787 5.64067L9.51312 5.66317L7.50009 6.33442L5.48707 5.66317L5.40232 5.64067C5.22256 5.60367 5.03548 5.63387 4.87649 5.72554C4.7175 5.81721 4.59764 5.96399 4.5396 6.1381C4.48156 6.31221 4.48938 6.50155 4.56157 6.67028C4.63376 6.83901 4.76531 6.97541 4.93131 7.05367L5.01306 7.08667L6.75008 7.66492V8.39692L5.37607 10.4594L5.33107 10.5344C5.25502 10.6838 5.23121 10.8543 5.26343 11.0188C5.29565 11.1833 5.38204 11.3323 5.50882 11.4419L5.58382 11.4989L5.65957 11.5439C5.80895 11.62 5.97949 11.6438 6.14398 11.6115C6.30847 11.5793 6.45743 11.4929 6.56708 11.3662L6.62408 11.2912L7.50009 9.97717L8.3761 11.2912L8.4286 11.3609C8.5476 11.5012 8.71399 11.5928 8.89614 11.6184C9.07829 11.644 9.2635 11.6018 9.41654 11.4997C9.56959 11.3977 9.67981 11.243 9.72624 11.065C9.77267 10.887 9.75207 10.6982 9.66837 10.5344L9.62412 10.4594L8.2501 8.39692V7.66417L9.98712 7.08592L10.0689 7.05292C10.2352 6.97488 10.367 6.83854 10.4395 6.66975C10.5119 6.50096 10.5199 6.31145 10.4619 6.13717V6.13792ZM7.50009 2.99992C7.20172 2.99992 6.91557 3.11845 6.70459 3.32942C6.49361 3.5404 6.37508 3.82655 6.37508 4.12492C6.37508 4.42329 6.49361 4.70944 6.70459 4.92041C6.91557 5.13139 7.20172 5.24992 7.50009 5.24992C7.79846 5.24992 8.08462 5.13139 8.2956 4.92041C8.50658 4.70944 8.62511 4.42329 8.62511 4.12492C8.62511 3.82655 8.50658 3.5404 8.2956 3.32942C8.08462 3.11845 7.79846 2.99992 7.50009 2.99992Z" fill="black"/>
</svg>
