<svg width="15" height="17" viewBox="0 0 15 17" fill="none" xmlns="http://www.w3.org/2000/svg">
<path fill-rule="evenodd" clip-rule="evenodd" d="M14.5833 12.5068C14.5823 12.5476 14.5784 12.5882 14.5717 12.6284C14.5892 12.7206 14.5866 12.8157 14.5639 12.9068C14.5412 12.998 14.499 13.0828 14.4404 13.1554C14.3818 13.2279 14.3082 13.2863 14.2249 13.3264C14.1415 13.3666 14.0505 13.3874 13.9583 13.3874H2.29167C2.15487 13.3874 2.01942 13.4149 1.89304 13.4683C1.76666 13.5217 1.65182 13.5999 1.5551 13.6986C1.45837 13.7973 1.38164 13.9144 1.32929 14.0433C1.27694 14.1722 1.25 14.3104 1.25 14.4499C1.25 14.5894 1.27694 14.7276 1.32929 14.8565C1.38164 14.9854 1.45837 15.1025 1.5551 15.2012C1.65182 15.2999 1.76666 15.3781 1.89304 15.4315C2.01942 15.4849 2.15487 15.5124 2.29167 15.5124H13.9583C14.1241 15.5124 14.2831 15.5796 14.4003 15.6991C14.5175 15.8187 14.5833 15.9808 14.5833 16.1499C14.5833 16.319 14.5175 16.4811 14.4003 16.6007C14.2831 16.7202 14.1241 16.7874 13.9583 16.7874H2.29167C1.68388 16.7874 1.10098 16.5411 0.671213 16.1028C0.241443 15.6644 0 15.0698 0 14.4499V2.5499C0 1.92996 0.241443 1.33541 0.671213 0.89704C1.10098 0.458674 1.68388 0.212402 2.29167 0.212402H13.4583C14.08 0.212402 14.5833 0.725802 14.5833 1.3599V12.5068ZM4.79167 3.6124C4.62591 3.6124 4.46694 3.67957 4.34973 3.79912C4.23252 3.91868 4.16667 4.08083 4.16667 4.2499C4.16667 4.41898 4.23252 4.58113 4.34973 4.70068C4.46694 4.82024 4.62591 4.8874 4.79167 4.8874H9.79167C9.95743 4.8874 10.1164 4.82024 10.2336 4.70068C10.3508 4.58113 10.4167 4.41898 10.4167 4.2499C10.4167 4.08083 10.3508 3.91868 10.2336 3.79912C10.1164 3.67957 9.95743 3.6124 9.79167 3.6124H4.79167Z" fill="#1E1E1E"/>
</svg>
