<svg width="15" height="15" viewBox="0 0 15 15" fill="none" xmlns="http://www.w3.org/2000/svg">
<path d="M12.0417 3.95817H11.3333V0.416504H2.83333V3.95817H2.125C1.56142 3.95817 1.02091 4.18205 0.622398 4.58057C0.223883 4.97908 0 5.51959 0 6.08317V11.0415C0 11.4172 0.149255 11.7776 0.414932 12.0432C0.680609 12.3089 1.04094 12.4582 1.41667 12.4582H2.83333V14.5832H11.3333V12.4582H12.75C13.1257 12.4582 13.4861 12.3089 13.7517 12.0432C14.0174 11.7776 14.1667 11.4172 14.1667 11.0415V6.08317C14.1667 5.51959 13.9428 4.97908 13.5443 4.58057C13.1458 4.18205 12.6053 3.95817 12.0417 3.95817ZM4.25 1.83317H9.91667V3.95817H4.25V1.83317ZM4.25 13.1665V10.3332H9.91667V13.1665H4.25ZM12.0417 7.49984H9.20833V6.08317H12.0417V7.49984Z" fill="black"/>
</svg>
