<svg width="14" height="11" viewBox="0 0 14 11" fill="none" xmlns="http://www.w3.org/2000/svg">
<path d="M13.5468 0.69516C12.9563 -0.124499 11.7033 -0.239142 10.9508 0.457132L8.03075 3.15899C7.83335 3.34159 7.704 3.57766 7.6615 3.83292L7.35525 5.67594C7.3444 5.74127 7.351 5.80806 7.37448 5.87049C7.39796 5.93291 7.4376 5.98907 7.48994 6.03405C7.54228 6.07903 7.60573 6.11146 7.67475 6.12853C7.74376 6.14559 7.81624 6.14675 7.88585 6.13192L9.90535 5.70088C10.1552 5.64755 10.3828 5.52764 10.5599 5.35598L13.3633 2.63825C13.6278 2.38177 13.7901 2.04963 13.8234 1.69647C13.8568 1.34331 13.7592 0.990176 13.5468 0.69516ZM6.4904 5.55288C6.45781 5.74893 6.47761 5.94939 6.54809 6.13673C6.61856 6.32406 6.73755 6.49258 6.89466 6.62753C7.05178 6.76249 7.24223 6.85979 7.44936 6.91091C7.6565 6.96204 7.87402 6.96543 8.0829 6.92081L10.1024 6.48977C10.5188 6.40085 10.898 6.20101 11.193 5.91494L14 3.19397V8.97595C14 9.51276 13.7695 10.0276 13.3593 10.4072C12.9491 10.7868 12.3927 11 11.8125 11H2.1875C1.60734 11 1.05094 10.7868 0.640704 10.4072C0.230468 10.0276 2.80026e-08 9.51276 2.80026e-08 8.97595V5.86572C0.0256667 5.85535 0.0504 5.84261 0.0742 5.8275C0.2765 5.69796 0.52465 5.52179 0.78995 5.33331C0.91035 5.24781 1.0346 5.15973 1.1592 5.07261C1.57045 4.78504 2.0111 4.49001 2.44265 4.25425C2.8812 4.01493 3.2746 3.85656 3.59485 3.81122C3.89515 3.76912 4.081 3.82904 4.21785 3.97703C4.29765 4.06285 4.32775 4.13766 4.3372 4.20535C4.3477 4.27821 4.3379 4.36889 4.29555 4.48645C4.207 4.73354 4.0166 5.00201 3.78 5.33493L3.7674 5.35209C3.5469 5.66331 3.27775 6.04286 3.1661 6.4318C3.10765 6.63583 3.0863 6.8596 3.14475 7.09018C3.20355 7.32336 3.33725 7.53548 3.5406 7.72396C3.8332 7.99469 4.1671 8.12294 4.5024 8.14496C4.82685 8.16666 5.1247 8.08764 5.362 7.98983C5.56719 7.90353 5.76067 7.79515 5.93845 7.66696C6.01683 7.61049 6.09228 7.55062 6.16455 7.48755L6.1691 7.48366L6.17085 7.48204L6.1712 7.48172L6.17155 7.48139C6.25137 7.40515 6.29563 7.30295 6.2948 7.19681C6.29397 7.09066 6.24811 6.98906 6.16711 6.9139C6.0861 6.83874 5.97643 6.79602 5.86172 6.79495C5.747 6.79388 5.63642 6.83454 5.5538 6.90818L5.5482 6.91304L5.5202 6.937C5.48252 6.96809 5.44365 6.9979 5.40365 7.02639C5.28121 7.11492 5.148 7.18991 5.00675 7.24984C4.8503 7.31429 4.6998 7.34635 4.5647 7.33728C4.4408 7.32951 4.3043 7.28546 4.1594 7.15139C4.0558 7.05586 4.0138 6.97392 3.99665 6.90559C3.97845 6.83499 3.9802 6.7495 4.0117 6.64004C4.0803 6.40104 4.2602 6.13321 4.4989 5.79674L4.5409 5.73812C4.7509 5.44342 5.0001 5.09301 5.1261 4.74132C5.1961 4.54506 5.2374 4.32744 5.20485 4.09945C5.1716 3.86628 5.06485 3.64736 4.88215 3.45013C4.494 3.03107 3.96865 2.93943 3.46255 3.011C2.97605 3.07965 2.4675 3.30084 1.9978 3.55733C1.5218 3.81738 1.0493 4.13475 0.63175 4.42654C0.49105 4.5252 0.358633 4.61869 0.2345 4.70699L0.23415 4.70731C0.152483 4.7656 0.0742 4.82087 2.80026e-08 4.87312V2.66124C-4.59394e-05 2.39541 0.0565015 2.13218 0.166413 1.88657C0.276325 1.64096 0.437447 1.4178 0.64058 1.22981C0.843713 1.04183 1.08488 0.892708 1.3503 0.79097C1.61572 0.689231 1.9002 0.636867 2.1875 0.636867H9.51895L7.41195 2.58611C7.08295 2.89051 6.86741 3.28404 6.79665 3.70954L6.4904 5.55288Z" fill="black"/>
</svg>
