<svg width="87" height="86" viewBox="0 0 87 86" fill="none" xmlns="http://www.w3.org/2000/svg">
<path d="M26.1206 69H24.2246L20.5526 62.172C20.5886 63.12 20.6006 64.188 20.6006 65.04V69H19.2806V60.72H21.1406L24.8486 67.596C24.8246 66.66 24.8126 65.556 24.8126 64.704V60.72H26.1086L26.1206 69ZM30.5643 62.46C32.7003 62.46 33.7923 63.948 33.7923 65.808C33.7923 67.668 32.7003 69.168 30.5643 69.168C28.4163 69.168 27.3363 67.668 27.3363 65.808C27.3363 63.948 28.4163 62.46 30.5643 62.46ZM30.5643 68.208C31.7163 68.208 32.3883 67.248 32.3883 65.808C32.3883 64.368 31.7163 63.42 30.5643 63.42C29.4003 63.42 28.7283 64.368 28.7283 65.808C28.7283 67.248 29.4003 68.208 30.5643 68.208ZM36.525 63.6V66.936C36.525 67.152 36.525 67.296 36.537 67.464C36.585 68.088 36.825 68.22 37.689 68.136V69.048C37.353 69.096 37.041 69.12 36.717 69.12C35.721 69.12 35.289 68.748 35.229 67.908C35.217 67.692 35.217 67.416 35.217 67.056V63.6H34.317V62.676H35.217V61.152H36.525V62.676H37.773V63.6H36.525ZM46.2212 64.572C47.3012 64.836 47.8772 65.448 47.8772 66.552C47.8772 68.064 46.7732 68.784 45.6812 68.94C45.2732 69 44.9972 69 44.5772 69H41.7572V60.72H44.4332C44.8412 60.72 45.1052 60.72 45.5132 60.768C46.8332 60.948 47.5772 61.656 47.5772 62.808C47.5772 63.744 47.0732 64.284 46.2212 64.572ZM43.0772 61.764V64.212H44.5172C44.7212 64.212 44.9252 64.2 45.1412 64.164C45.8732 64.044 46.1852 63.624 46.1852 62.952C46.1852 62.22 45.7172 61.872 45.0572 61.8C44.8652 61.776 44.6252 61.764 44.4332 61.764H43.0772ZM45.2732 67.932C45.9572 67.872 46.4852 67.416 46.4852 66.612C46.4852 65.712 45.9692 65.352 45.2612 65.268C45.0212 65.232 44.8292 65.232 44.6372 65.232H43.0772V67.944H44.7092C44.9012 67.944 45.1172 67.944 45.2732 67.932ZM54.6887 62.628V69H53.3807V67.908L52.9367 68.7C52.4327 69.06 51.9647 69.168 51.3287 69.168C50.0087 69.168 49.2407 68.424 49.0967 67.548C49.0487 67.224 49.0367 66.936 49.0367 66.42V62.628H50.3447V66.156C50.3447 66.36 50.3567 66.708 50.3927 67.032C50.4887 67.728 50.9447 68.184 51.7607 68.184C52.6847 68.184 53.3807 67.476 53.3807 65.628V62.628H54.6887ZM58.4269 62.46C59.8909 62.46 60.7069 63.288 60.8509 64.452H59.5069C59.3749 63.78 58.9789 63.384 58.3309 63.384C57.7069 63.384 57.4069 63.732 57.4069 64.212C57.4069 64.788 57.8749 65.028 58.8229 65.28C60.2149 65.64 60.9469 66.192 60.9469 67.32C60.9469 68.556 59.8549 69.168 58.4629 69.168C57.0469 69.168 56.0029 68.532 55.8229 67.092H57.1549C57.3109 67.908 57.8509 68.232 58.5109 68.232C59.1229 68.232 59.6149 67.968 59.6149 67.416C59.6149 66.864 59.1829 66.564 58.1029 66.276C56.9389 65.976 56.0749 65.484 56.0749 64.368C56.0749 63.18 57.0109 62.46 58.4269 62.46ZM67.6619 62.628L65.0699 69.408C64.4819 70.92 63.7979 71.52 62.6459 71.52C62.3819 71.52 62.2139 71.52 62.0219 71.484V70.512C62.1779 70.524 62.3099 70.524 62.4419 70.524C63.0419 70.524 63.4499 70.272 63.7379 69.528L63.8339 69.3L61.2659 62.628H62.7419L64.4939 68.016L66.2339 62.628H67.6619Z" fill="#074500"/>
<path fill-rule="evenodd" clip-rule="evenodd" d="M75.5642 52.3099C76.5471 47.5378 75.8911 44.9741 74.7734 40.2318C73.6557 35.4895 71.517 31.0481 68.5065 27.2173C67.0895 25.4143 65.4955 23.767 63.7521 22.2981C62.0088 20.8292 55.1456 30.372 56.2559 31.3142C57.3662 32.2565 58.3825 33.3104 59.2876 34.4621C61.2444 36.9522 62.6346 39.8391 63.3611 42.9216C64.0876 46.0041 64.133 49.2079 63.4941 52.3098L75.5642 52.3099ZM52.0309 28.5042C52.4516 28.718 52.8646 28.9451 53.2694 29.185C53.6741 29.4249 61.2143 20.336 60.2694 19.7292C59.3245 19.1223 58.3477 18.5621 57.3423 18.0513C52.9987 15.8442 48.2259 14.6111 43.3568 14.438C38.4876 14.2649 33.6393 15.1561 29.1499 17.0492C27.376 17.7973 25.675 18.6947 24.0642 19.7292C22.4534 20.7636 30.217 29.6871 31.0642 29.185C31.9114 28.6829 32.7938 28.2375 33.7058 27.8529C36.6239 26.6223 39.7753 26.0431 42.9403 26.1556C46.1052 26.2681 49.2075 27.0696 52.0309 28.5042ZM17.3632 25.3995C18.3683 24.2924 19.4437 23.2567 20.5815 22.2981C21.7192 21.3395 28.7956 30.705 28.0777 31.3142C27.3598 31.9234 26.6805 32.58 26.0445 33.2806C23.9158 35.6254 22.3242 38.4063 21.3807 41.4294C20.4371 44.4526 20.1644 49.1704 20.5815 52.3098L8.95857 52.3286C8.31693 47.4988 8.73653 42.5872 10.1881 37.9362C11.6397 33.2852 14.0883 29.0069 17.3632 25.3995Z" fill="#74B96D"/>
<path d="M43.3563 14.4379C48.2255 14.611 52.9983 15.8441 57.3419 18.0512C58.3473 18.5621 59.3241 19.1222 60.269 19.7291C61.2138 20.3359 53.6737 29.4248 53.269 29.1849C52.8642 28.945 52.4512 28.7179 52.0305 28.5041C49.2071 27.0695 46.1048 26.268 42.9398 26.1555C39.7749 26.043 36.6235 26.6222 33.7054 27.8528C32.7933 28.2374 31.9109 28.6828 31.0638 29.1849C30.2166 29.687 22.453 20.7636 24.0638 19.7291C25.6746 18.6946 27.3756 17.7972 29.1495 17.0491C33.6389 15.156 38.4872 14.2648 43.3563 14.4379Z" fill="#E2E2E2"/>
<path d="M74.7727 40.2317C75.8904 44.974 76.5465 47.5377 75.5635 52.3098L63.4934 52.3097C64.1323 49.2078 64.0869 46.004 63.3604 42.9215C62.6339 39.839 61.2437 36.9521 59.2869 34.462C58.3818 33.3103 57.3656 32.2564 56.2552 31.3141C55.1449 30.3719 62.0081 20.8291 63.7515 22.298C65.4948 23.7669 67.0888 25.4142 68.5058 27.2172C71.5163 31.048 73.655 35.4894 74.7727 40.2317Z" fill="#E2E2E2"/>
<path d="M33.1203 47.2014C37.7917 49.8912 36.8218 49.719 37.9593 47.339C39.0968 44.9591 39.76 45.1371 35.0885 42.4474C30.4171 39.7576 21.9558 35.4154 20.8182 37.7953C19.6807 40.1752 28.4489 44.5117 33.1203 47.2014Z" fill="#074500"/>
<circle cx="40.9199" cy="47" r="6" fill="#5A5A5A"/>
</svg>
