<svg width="87" height="86" viewBox="0 0 87 86" fill="none" xmlns="http://www.w3.org/2000/svg">
<path fill-rule="evenodd" clip-rule="evenodd" d="M75.5642 52.3099C76.5471 47.5378 75.8911 44.9741 74.7734 40.2318C73.6557 35.4895 71.517 31.0481 68.5065 27.2173C67.0895 25.4143 65.4955 23.767 63.7521 22.2981C62.0088 20.8292 55.1456 30.372 56.2559 31.3142C57.3662 32.2565 58.3825 33.3104 59.2876 34.4621C61.2444 36.9522 62.6346 39.8391 63.3611 42.9216C64.0876 46.0041 64.133 49.2079 63.4941 52.3098L75.5642 52.3099ZM52.0309 28.5042C52.4516 28.718 52.8646 28.9451 53.2694 29.185C53.6741 29.4249 61.2143 20.336 60.2694 19.7292C59.3245 19.1223 58.3477 18.5621 57.3423 18.0513C52.9987 15.8442 48.2259 14.6111 43.3568 14.438C38.4876 14.2649 33.6393 15.1561 29.1499 17.0492C27.376 17.7973 25.675 18.6947 24.0642 19.7292C22.4534 20.7636 30.217 29.6871 31.0642 29.185C31.9114 28.6829 32.7938 28.2375 33.7058 27.8529C36.6239 26.6223 39.7753 26.0431 42.9403 26.1556C46.1052 26.2681 49.2075 27.0696 52.0309 28.5042ZM17.3632 25.3995C18.3683 24.2924 19.4437 23.2567 20.5815 22.2981C21.7192 21.3395 28.7956 30.705 28.0777 31.3142C27.3598 31.9234 26.6805 32.58 26.0445 33.2806C23.9158 35.6254 22.3242 38.4063 21.3807 41.4294C20.4371 44.4526 20.1644 49.1704 20.5815 52.3098L8.95857 52.3286C8.31693 47.4988 8.73653 42.5872 10.1881 37.9362C11.6397 33.2852 14.0883 29.0069 17.3632 25.3995Z" fill="#FFAE02"/>
<path d="M74.7727 40.2317C75.8904 44.974 76.5465 47.5377 75.5635 52.3098L63.4934 52.3097C64.1323 49.2078 64.0869 46.004 63.3604 42.9215C62.6339 39.839 61.2437 36.9521 59.2869 34.462C58.3818 33.3103 57.3656 32.2564 56.2552 31.3141C55.1449 30.3719 62.0081 20.8291 63.7515 22.298C65.4948 23.7669 67.0888 25.4142 68.5058 27.2172C71.5163 31.048 73.655 35.4894 74.7727 40.2317Z" fill="#E2E2E2"/>
<path d="M16.5245 60.764V63.332H20.3525V64.376H16.5245V68H15.2045V59.72H20.8085V60.764H16.5245ZM25.5137 68L25.3937 67.076L25.0697 67.76C24.6377 68.06 24.0857 68.168 23.4857 68.168C22.3577 68.168 21.4337 67.52 21.4337 66.332C21.4337 64.916 22.5617 64.148 24.9737 64.148H25.3817V63.992C25.3817 63.752 25.3817 63.536 25.3577 63.296C25.3217 62.78 24.9977 62.42 24.2417 62.42C23.4737 62.42 23.0777 62.852 23.0057 63.644H21.6857C21.7697 62.252 22.8137 61.46 24.2657 61.46C25.9097 61.46 26.5577 62.156 26.6657 63.236C26.6897 63.5 26.7017 63.836 26.7017 64.136V66.38C26.7017 66.86 26.7257 67.292 26.8217 68H25.5137ZM23.9657 67.208C24.7937 67.208 25.3817 66.644 25.3817 65.612V65.024C23.8337 64.904 22.8257 65.252 22.8257 66.224C22.8257 66.896 23.2697 67.208 23.9657 67.208ZM29.0407 59.408C29.4847 59.408 29.8207 59.732 29.8207 60.164C29.8207 60.608 29.4847 60.932 29.0407 60.932C28.5967 60.932 28.2727 60.608 28.2727 60.164C28.2727 59.732 28.5967 59.408 29.0407 59.408ZM29.7007 68H28.3807V61.628H29.7007V68ZM34.2365 61.472C34.4165 61.472 34.5485 61.496 34.6805 61.544V62.576C33.4685 62.492 32.7125 63.116 32.7125 64.688V68H31.3925V61.628H32.7125V62.708L33.2525 61.832C33.5405 61.604 33.9125 61.472 34.2365 61.472ZM36.8949 59.18V66.056C36.8949 66.272 36.8949 66.464 36.9069 66.656C36.9309 67.016 37.0989 67.136 37.6629 67.088V68.012C37.3989 68.048 37.0989 68.072 36.7989 68.072C36.1029 68.072 35.6349 67.82 35.5869 67.004C35.5749 66.764 35.5749 66.476 35.5749 66.092V59.18H36.8949ZM44.3435 61.628L41.7515 68.408C41.1635 69.92 40.4795 70.52 39.3275 70.52C39.0635 70.52 38.8955 70.52 38.7035 70.484V69.512C38.8595 69.524 38.9915 69.524 39.1235 69.524C39.7235 69.524 40.1315 69.272 40.4195 68.528L40.5155 68.3L37.9475 61.628H39.4235L41.1755 67.016L42.9155 61.628H44.3435ZM52.4575 63.572C53.5375 63.836 54.1135 64.448 54.1135 65.552C54.1135 67.064 53.0095 67.784 51.9175 67.94C51.5095 68 51.2335 68 50.8135 68H47.9935V59.72H50.6695C51.0775 59.72 51.3415 59.72 51.7495 59.768C53.0695 59.948 53.8135 60.656 53.8135 61.808C53.8135 62.744 53.3095 63.284 52.4575 63.572ZM49.3135 60.764V63.212H50.7535C50.9575 63.212 51.1615 63.2 51.3775 63.164C52.1095 63.044 52.4215 62.624 52.4215 61.952C52.4215 61.22 51.9535 60.872 51.2935 60.8C51.1015 60.776 50.8615 60.764 50.6695 60.764H49.3135ZM51.5095 66.932C52.1935 66.872 52.7215 66.416 52.7215 65.612C52.7215 64.712 52.2055 64.352 51.4975 64.268C51.2575 64.232 51.0655 64.232 50.8735 64.232H49.3135V66.944H50.9455C51.1375 66.944 51.3535 66.944 51.5095 66.932ZM60.925 61.628V68H59.617V66.908L59.173 67.7C58.669 68.06 58.201 68.168 57.565 68.168C56.245 68.168 55.477 67.424 55.333 66.548C55.285 66.224 55.273 65.936 55.273 65.42V61.628H56.581V65.156C56.581 65.36 56.593 65.708 56.629 66.032C56.725 66.728 57.181 67.184 57.997 67.184C58.921 67.184 59.617 66.476 59.617 64.628V61.628H60.925ZM64.6632 61.46C66.1272 61.46 66.9432 62.288 67.0872 63.452H65.7432C65.6112 62.78 65.2152 62.384 64.5672 62.384C63.9432 62.384 63.6432 62.732 63.6432 63.212C63.6432 63.788 64.1112 64.028 65.0592 64.28C66.4512 64.64 67.1832 65.192 67.1832 66.32C67.1832 67.556 66.0912 68.168 64.6992 68.168C63.2832 68.168 62.2392 67.532 62.0592 66.092H63.3912C63.5472 66.908 64.0872 67.232 64.7472 67.232C65.3592 67.232 65.8512 66.968 65.8512 66.416C65.8512 65.864 65.4192 65.564 64.3392 65.276C63.1752 64.976 62.3112 64.484 62.3112 63.368C62.3112 62.18 63.2472 61.46 64.6632 61.46ZM73.8982 61.628L71.3062 68.408C70.7182 69.92 70.0342 70.52 68.8822 70.52C68.6182 70.52 68.4502 70.52 68.2582 70.484V69.512C68.4142 69.524 68.5462 69.524 68.6782 69.524C69.2782 69.524 69.6862 69.272 69.9742 68.528L70.0702 68.3L67.5022 61.628H68.9782L70.7302 67.016L72.4702 61.628H73.8982Z" fill="#735101"/>
<path d="M45.5117 36.7372C45.6819 42.1249 45.9873 41.1883 43.3521 41.0697C40.717 40.9511 40.5614 41.6199 40.3912 36.2321C40.221 30.8443 40.3798 21.3351 43.0149 21.4537C45.6501 21.5723 45.3415 31.3494 45.5117 36.7372Z" fill="#885F00"/>
<circle cx="42.9199" cy="46.3145" r="6" fill="#5A5A5A"/>
</svg>
