<svg width="87" height="86" viewBox="0 0 87 86" fill="none" xmlns="http://www.w3.org/2000/svg">
<path fill-rule="evenodd" clip-rule="evenodd" d="M75.5642 52.3099C76.5471 47.5378 75.8911 44.9741 74.7734 40.2318C73.6557 35.4895 71.517 31.0481 68.5065 27.2173C67.0895 25.4143 65.4955 23.767 63.7521 22.2981C62.0088 20.8292 55.1456 30.372 56.2559 31.3142C57.3662 32.2565 58.3825 33.3104 59.2876 34.4621C61.2444 36.9522 62.6346 39.8391 63.3611 42.9216C64.0876 46.0041 64.133 49.2079 63.4941 52.3098L75.5642 52.3099ZM52.0309 28.5042C52.4516 28.718 52.8646 28.9451 53.2694 29.185C53.6741 29.4249 61.2143 20.336 60.2694 19.7292C59.3245 19.1223 58.3477 18.5621 57.3423 18.0513C52.9987 15.8442 48.2259 14.6111 43.3568 14.438C38.4876 14.2649 33.6393 15.1561 29.1499 17.0492C27.376 17.7973 25.675 18.6947 24.0642 19.7292C22.4534 20.7636 30.217 29.6871 31.0642 29.185C31.9114 28.6829 32.7938 28.2375 33.7058 27.8529C36.6239 26.6223 39.7753 26.0431 42.9403 26.1556C46.1052 26.2681 49.2075 27.0696 52.0309 28.5042ZM17.3632 25.3995C18.3683 24.2924 19.4437 23.2567 20.5815 22.2981C21.7192 21.3395 28.7956 30.705 28.0777 31.3142C27.3598 31.9234 26.6805 32.58 26.0445 33.2806C23.9158 35.6254 22.3242 38.4063 21.3807 41.4294C20.4371 44.4526 20.1644 49.1704 20.5815 52.3098L8.95857 52.3286C8.31693 47.4988 8.73653 42.5872 10.1881 37.9362C11.6397 33.2852 14.0883 29.0069 17.3632 25.3995Z" fill="#FF5959"/>
<path d="M50.409 45.4157C45.1767 46.7118 46.1565 46.8139 45.72 44.2125C45.2834 41.6111 44.5969 41.5992 49.8292 40.3031C55.0615 39.0069 64.3926 37.1684 64.8292 39.7698C65.2658 42.3712 55.6413 44.1196 50.409 45.4157Z" fill="#950000"/>
<circle cx="43.0741" cy="45.3298" r="6" transform="rotate(16.0198 43.0741 45.3298)" fill="#5A5A5A"/>
<path d="M21.689 70.3142H19.985L17.093 62.0342H18.521L20.861 69.3062L23.261 62.0342H24.665L21.689 70.3142ZM30.4741 66.9662C30.4741 67.0862 30.4741 67.2662 30.4501 67.4942H25.8781C25.9861 69.0182 26.6821 69.5222 27.5461 69.5222C28.3141 69.5222 28.9141 69.0542 29.0461 68.2502H30.3781C30.1021 69.7622 28.8901 70.4822 27.4981 70.4822C25.7941 70.4822 24.5101 69.4022 24.5101 67.1462C24.5101 65.1302 25.7941 63.7742 27.6301 63.7742C29.4781 63.7742 30.4741 65.1662 30.4741 66.9662ZM27.5821 64.7342C26.6821 64.7342 26.0341 65.3462 25.8901 66.5702H29.1181C29.0221 65.3942 28.5061 64.7342 27.5821 64.7342ZM34.5724 63.7862C34.7524 63.7862 34.8844 63.8102 35.0164 63.8582V64.8902C33.8044 64.8062 33.0484 65.4302 33.0484 67.0022V70.3142H31.7284V63.9422H33.0484V65.0222L33.5884 64.1462C33.8764 63.9182 34.2484 63.7862 34.5724 63.7862ZM41.5389 63.9422L38.9469 70.7222C38.3589 72.2342 37.6749 72.8342 36.5229 72.8342C36.2589 72.8342 36.0909 72.8342 35.8989 72.7982V71.8262C36.0549 71.8382 36.1869 71.8382 36.3189 71.8382C36.9189 71.8382 37.3269 71.5862 37.6149 70.8422L37.7109 70.6142L35.1429 63.9422H36.6189L38.3709 69.3302L40.1109 63.9422H41.5389ZM49.6528 65.8862C50.7328 66.1502 51.3088 66.7622 51.3088 67.8662C51.3088 69.3782 50.2048 70.0982 49.1128 70.2542C48.7048 70.3142 48.4288 70.3142 48.0088 70.3142H45.1888V62.0342H47.8648C48.2728 62.0342 48.5368 62.0342 48.9448 62.0822C50.2648 62.2622 51.0088 62.9702 51.0088 64.1222C51.0088 65.0582 50.5048 65.5982 49.6528 65.8862ZM46.5088 63.0782V65.5262H47.9488C48.1528 65.5262 48.3568 65.5142 48.5728 65.4782C49.3048 65.3582 49.6168 64.9382 49.6168 64.2662C49.6168 63.5342 49.1488 63.1862 48.4888 63.1142C48.2968 63.0902 48.0568 63.0782 47.8648 63.0782H46.5088ZM48.7048 69.2462C49.3888 69.1862 49.9168 68.7302 49.9168 67.9262C49.9168 67.0262 49.4008 66.6662 48.6928 66.5822C48.4528 66.5462 48.2608 66.5462 48.0688 66.5462H46.5088V69.2582H48.1408C48.3328 69.2582 48.5488 69.2582 48.7048 69.2462ZM58.1203 63.9422V70.3142H56.8123V69.2222L56.3683 70.0142C55.8643 70.3742 55.3963 70.4822 54.7603 70.4822C53.4403 70.4822 52.6723 69.7382 52.5283 68.8622C52.4803 68.5382 52.4683 68.2502 52.4683 67.7342V63.9422H53.7763V67.4702C53.7763 67.6742 53.7883 68.0222 53.8243 68.3462C53.9203 69.0422 54.3763 69.4982 55.1923 69.4982C56.1163 69.4982 56.8123 68.7902 56.8123 66.9422V63.9422H58.1203ZM61.8585 63.7742C63.3225 63.7742 64.1385 64.6022 64.2825 65.7662H62.9385C62.8065 65.0942 62.4105 64.6982 61.7625 64.6982C61.1385 64.6982 60.8385 65.0462 60.8385 65.5262C60.8385 66.1022 61.3065 66.3422 62.2545 66.5942C63.6465 66.9542 64.3785 67.5062 64.3785 68.6342C64.3785 69.8702 63.2865 70.4822 61.8945 70.4822C60.4785 70.4822 59.4345 69.8462 59.2545 68.4062H60.5865C60.7425 69.2222 61.2825 69.5462 61.9425 69.5462C62.5545 69.5462 63.0465 69.2822 63.0465 68.7302C63.0465 68.1782 62.6145 67.8782 61.5345 67.5902C60.3705 67.2902 59.5065 66.7982 59.5065 65.6822C59.5065 64.4942 60.4425 63.7742 61.8585 63.7742ZM71.0935 63.9422L68.5015 70.7222C67.9135 72.2342 67.2295 72.8342 66.0775 72.8342C65.8135 72.8342 65.6455 72.8342 65.4535 72.7982V71.8262C65.6095 71.8382 65.7415 71.8382 65.8735 71.8382C66.4735 71.8382 66.8815 71.5862 67.1695 70.8422L67.2655 70.6142L64.6975 63.9422H66.1735L67.9255 69.3302L69.6655 63.9422H71.0935Z" fill="#760202"/>
</svg>
