<svg width="13" height="14" viewBox="0 0 13 14" fill="none" xmlns="http://www.w3.org/2000/svg">
<path d="M0 10.6225V5.91964C0 5.56885 0.138833 5.27287 0.4165 5.0317C0.694167 4.79053 1.02165 4.6809 1.39896 4.70283C2.3316 4.83438 3.22008 5.08936 4.06442 5.46778C4.90875 5.8462 5.67894 6.33665 6.375 6.93914C7.07153 6.33621 7.84196 5.84554 8.68629 5.46712C9.53062 5.0887 10.4189 4.83394 11.351 4.70283C11.7288 4.6809 12.0565 4.79053 12.3342 5.0317C12.6119 5.27287 12.7505 5.56885 12.75 5.91964V10.6225C12.75 10.9733 12.626 11.2721 12.3781 11.519C12.1302 11.7658 11.8174 11.9 11.4396 11.9215C10.684 12.0311 9.95208 12.212 9.24375 12.4641C8.53542 12.7163 7.87431 13.0506 7.26042 13.4672C7.13056 13.5658 6.99196 13.6397 6.84462 13.6888C6.69729 13.738 6.54075 13.7627 6.375 13.7632C6.20925 13.7636 6.05271 13.7391 5.90537 13.6895C5.75804 13.64 5.61944 13.5658 5.48958 13.4672C4.87569 13.0506 4.21458 12.7163 3.50625 12.4641C2.79792 12.212 2.06597 12.0311 1.31042 11.9215C0.932639 11.8996 0.619792 11.7654 0.371875 11.519C0.123958 11.2725 0 10.9737 0 10.6225ZM6.375 5.26191C5.59583 5.26191 4.92882 5.00429 4.37396 4.48906C3.8191 3.97383 3.54167 3.35446 3.54167 2.63095C3.54167 1.90744 3.8191 1.28807 4.37396 0.772842C4.92882 0.257614 5.59583 0 6.375 0C7.15417 0 7.82118 0.257614 8.37604 0.772842C8.9309 1.28807 9.20833 1.90744 9.20833 2.63095C9.20833 3.35446 8.9309 3.97383 8.37604 4.48906C7.82118 5.00429 7.15417 5.26191 6.375 5.26191Z" fill="#5B5B5B"/>
</svg>
