<svg width="12" height="15" viewBox="0 0 12 15" fill="none" xmlns="http://www.w3.org/2000/svg">
<path fill-rule="evenodd" clip-rule="evenodd" d="M7.5 1.75575C9.2475 2.37375 10.5 4.041 10.5 6V12.75H10.875C11.1734 12.75 11.4595 12.8685 11.6705 13.0795C11.8815 13.2905 12 13.5766 12 13.875C12 14.1734 11.8815 14.4595 11.6705 14.6705C11.4595 14.8815 11.1734 15 10.875 15H1.125C0.826631 15 0.540483 14.8815 0.329505 14.6705C0.118526 14.4595 0 14.1734 0 13.875C0 13.5766 0.118526 13.2905 0.329505 13.0795C0.540483 12.8685 0.826631 12.75 1.125 12.75H1.5V6C1.49967 5.06915 1.78801 4.1611 2.3253 3.40097C2.86259 2.64084 3.62239 2.06603 4.5 1.75575V1.5C4.5 1.10218 4.65804 0.720644 4.93934 0.43934C5.22064 0.158035 5.60218 0 6 0C6.39782 0 6.77936 0.158035 7.06066 0.43934C7.34196 0.720644 7.5 1.10218 7.5 1.5V1.75575ZM9 6.75V9H6.75V6.75H9ZM9 5.25H6.75V3C7.2917 3.14012 7.78603 3.42267 8.18168 3.81832C8.57733 4.21397 8.85988 4.7083 9 5.25ZM3 6.75H5.25V9H3V6.75ZM3 5.25C3.14012 4.7083 3.42267 4.21397 3.81832 3.81832C4.21397 3.42267 4.7083 3.14012 5.25 3V5.25H3ZM9 10.5V12.75H6.75V10.5H9ZM3 10.5H5.25V12.75H3V10.5Z" fill="#5B5B5B"/>
</svg>
