<svg width="17" height="12" viewBox="0 0 17 12" fill="none" xmlns="http://www.w3.org/2000/svg">
<path d="M7.43713 1.71429H12.7494C13.3998 1.71425 14.0256 1.96485 14.4988 2.41481C14.972 2.86478 15.2568 3.48009 15.295 4.13486L15.2992 4.28571V5.14286L16.1492 5.15829C16.3569 5.15821 16.5574 5.23481 16.7129 5.37362C16.8684 5.51242 16.9681 5.70383 16.9932 5.91171L17 6.01457V7.72886C17.0002 7.93644 16.9257 8.13705 16.7903 8.29343C16.655 8.4498 16.4679 8.55133 16.2639 8.57914L16.15 8.58686L15.2992 8.57143V9.42857C15.2993 10.0845 15.0508 10.7156 14.6046 11.1928C14.1584 11.67 13.5482 11.9572 12.899 11.9957L12.7494 12H5.0955C4.94145 12 4.79262 11.9437 4.67653 11.8416C4.56043 11.7395 4.48493 11.5985 4.46398 11.4446L4.45803 11.3571V7.5C4.45806 7.34452 4.51397 7.19433 4.61539 7.07723C4.71681 6.96014 4.85688 6.88408 5.00965 6.86314L5.0955 6.85714H5.62927C6.23784 6.85714 6.73761 6.38914 6.79371 5.79L6.79966 5.67686V2.35714C6.79967 2.2018 6.85545 2.05171 6.9567 1.93463C7.05795 1.81756 7.19782 1.74141 7.35043 1.72029L7.43713 1.71429ZM3.94805 0.00599997L4.03475 0C4.18879 6.55106e-06 4.33762 0.0562653 4.45372 0.158372C4.56981 0.260479 4.64532 0.401525 4.66627 0.555428L4.67222 0.642857L4.67137 1.71429H5.31563C5.4847 1.71429 5.64684 1.78202 5.76639 1.90257C5.88594 2.02313 5.9531 2.18665 5.9531 2.35714V4.49914C5.9531 4.89697 5.79639 5.2785 5.51745 5.5598C5.2385 5.84111 4.86017 5.99914 4.46568 5.99914L3.61317 5.99829V11.3511C3.61319 11.5064 3.55752 11.6563 3.45645 11.7734C3.35537 11.8905 3.21571 11.9667 3.06325 11.988L2.97655 11.994C2.82251 11.994 2.67368 11.9377 2.55758 11.8356C2.44149 11.7335 2.36598 11.5925 2.34503 11.4386L2.33908 11.3511V5.99829H1.48743C1.09308 5.99829 0.714879 5.84037 0.435957 5.55925C0.157035 5.27813 0.000225339 4.89682 0 4.49914V2.35714C0 2.18665 0.0671615 2.02313 0.18671 1.90257C0.306258 1.78202 0.468401 1.71429 0.637468 1.71429H1.27579V0.642857C1.27579 0.487511 1.33158 0.337421 1.43283 0.220345C1.53408 0.103269 1.67395 0.0271271 1.82656 0.00599997L1.91325 0C2.0673 6.55106e-06 2.21613 0.0562653 2.33222 0.158372C2.44832 0.260479 2.52382 0.401525 2.54477 0.555428L2.55072 0.642857V1.71429H3.39643V0.642857C3.39649 0.487253 3.45252 0.336953 3.55411 0.219839C3.65571 0.102725 3.79513 0.0267472 3.94805 0.00599997Z" fill="#5B5B5B"/>
</svg>
