<svg width="14" height="16" viewBox="0 0 14 16" fill="none" xmlns="http://www.w3.org/2000/svg">
<path d="M3.62963 4.8C3.62963 4.58783 3.70767 4.38434 3.84659 4.23431C3.9855 4.08429 4.17391 4 4.37037 4C4.56683 4 4.75524 4.08429 4.89415 4.23431C5.03307 4.38434 5.11111 4.58783 5.11111 4.8V8.376L6.00741 8.48L9.66667 10.232C10.0519 10.424 10.2963 10.848 10.2963 11.312V14.8C10.2741 15.456 9.79259 15.976 9.18519 16H4.37037C4.08889 16 3.82222 15.88 3.62963 15.656L0 12.296L0.548148 11.68C0.688889 11.512 0.888889 11.424 1.0963 11.424H1.25926L3.62963 12.8V4.8ZM12.8889 0C12.5942 0 12.3116 0.126428 12.1032 0.351472C11.8948 0.576516 11.7778 0.88174 11.7778 1.2C11.7778 1.51826 11.8948 1.82348 12.1032 2.04853C12.3116 2.27357 12.5942 2.4 12.8889 2.4C13.1836 2.4 13.4662 2.27357 13.6746 2.04853C13.8829 1.82348 14 1.51826 14 1.2C14 0.88174 13.8829 0.576516 13.6746 0.351472C13.4662 0.126428 13.1836 0 12.8889 0ZM12.8889 4C12.5942 4 12.3116 4.12643 12.1032 4.35147C11.8948 4.57652 11.7778 4.88174 11.7778 5.2C11.7778 5.51826 11.8948 5.82348 12.1032 6.04853C12.3116 6.27357 12.5942 6.4 12.8889 6.4C13.1836 6.4 13.4662 6.27357 13.6746 6.04853C13.8829 5.82348 14 5.51826 14 5.2C14 4.88174 13.8829 4.57652 13.6746 4.35147C13.4662 4.12643 13.1836 4 12.8889 4ZM9.18519 4C8.8905 4 8.60789 4.12643 8.39951 4.35147C8.19114 4.57652 8.07407 4.88174 8.07407 5.2C8.07407 5.51826 8.19114 5.82348 8.39951 6.04853C8.60789 6.27357 8.8905 6.4 9.18519 6.4C9.47987 6.4 9.76249 6.27357 9.97086 6.04853C10.1792 5.82348 10.2963 5.51826 10.2963 5.2C10.2963 4.88174 10.1792 4.57652 9.97086 4.35147C9.76249 4.12643 9.47987 4 9.18519 4ZM12.8889 8C12.5942 8 12.3116 8.12643 12.1032 8.35147C11.8948 8.57652 11.7778 8.88174 11.7778 9.2C11.7778 9.51826 11.8948 9.82348 12.1032 10.0485C12.3116 10.2736 12.5942 10.4 12.8889 10.4C13.1836 10.4 13.4662 10.2736 13.6746 10.0485C13.8829 9.82348 14 9.51826 14 9.2C14 8.88174 13.8829 8.57652 13.6746 8.35147C13.4662 8.12643 13.1836 8 12.8889 8Z" fill="#5B5B5B"/>
</svg>
