<svg width="15" height="15" viewBox="0 0 15 15" fill="none" xmlns="http://www.w3.org/2000/svg">
<path d="M12.0417 3.54167H11.3333V0H2.83333V3.54167H2.125C1.56142 3.54167 1.02091 3.76555 0.622398 4.16406C0.223883 4.56258 0 5.10308 0 5.66667V10.625C0 11.0007 0.149255 11.3611 0.414932 11.6267C0.680609 11.8924 1.04094 12.0417 1.41667 12.0417H2.83333V14.1667H11.3333V12.0417H12.75C13.1257 12.0417 13.4861 11.8924 13.7517 11.6267C14.0174 11.3611 14.1667 11.0007 14.1667 10.625V5.66667C14.1667 5.10308 13.9428 4.56258 13.5443 4.16406C13.1458 3.76555 12.6053 3.54167 12.0417 3.54167ZM4.25 1.41667H9.91667V3.54167H4.25V1.41667ZM4.25 12.75V9.91667H9.91667V12.75H4.25ZM12.0417 7.08333H9.20833V5.66667H12.0417V7.08333Z" fill="#5B5B5B"/>
</svg>
