<svg width="14" height="11" viewBox="0 0 14 11" fill="none" xmlns="http://www.w3.org/2000/svg">
<path d="M10.364 4.8125H3.65319L3.46046 6.1875H10.5392L10.364 4.8125ZM1.49804 10.2266L2.25146 4.8125H0.692041C0.45842 4.8125 0.27456 4.72083 0.140461 4.5375C0.0063624 4.35417 -0.031718 4.15365 0.0262202 3.93594L1.02495 0.498437C1.07168 0.349479 1.15344 0.229166 1.27025 0.1375C1.38707 0.0458332 1.52724 0 1.69077 0H12.3089C12.4724 0 12.6126 0.0458332 12.7294 0.1375C12.8462 0.229166 12.928 0.349479 12.9747 0.498437L13.9734 3.93594C14.0318 4.15365 13.994 4.35417 13.8599 4.5375C13.7258 4.72083 13.5417 4.8125 13.3076 4.8125H11.7657L12.5016 10.2266C12.525 10.4328 12.4694 10.6134 12.3348 10.7683C12.2002 10.9232 12.0281 11.0005 11.8183 11C11.643 11 11.4882 10.9455 11.3536 10.8364C11.219 10.7273 11.1403 10.587 11.1174 10.4156L10.7319 7.5625H3.26772L2.88224 10.4156C2.85888 10.5875 2.78015 10.728 2.64605 10.8371C2.51195 10.9461 2.35706 11.0005 2.18138 11C1.97112 11 1.79894 10.9228 1.66484 10.7683C1.53074 10.6139 1.47514 10.4333 1.49804 10.2266Z" fill="#5B5B5B"/>
</svg>
