<svg width="14" height="14" viewBox="0 0 14 14" fill="none" xmlns="http://www.w3.org/2000/svg">
<path fill-rule="evenodd" clip-rule="evenodd" d="M0.832031 0.0819704C0.633119 0.0819704 0.442353 0.160988 0.301701 0.30164C0.161049 0.442293 0.0820313 0.633058 0.0820312 0.83197C0.0820313 1.03088 0.161049 1.22165 0.301701 1.3623C0.442353 1.50295 0.633119 1.58197 0.832031 1.58197H2.59003L3.52603 6.26997C2.83056 6.3415 2.16788 6.60184 1.60969 7.02282C1.0515 7.4438 0.619043 8.0094 0.359111 8.65842C0.0991789 9.30745 0.0216641 10.0152 0.134952 10.7051C0.24824 11.395 0.548018 12.0408 1.00186 12.5726C1.45569 13.1044 2.04631 13.5021 2.70982 13.7224C3.37332 13.9428 4.08446 13.9775 4.76628 13.8229C5.44811 13.6683 6.07468 13.3301 6.5782 12.8451C7.08172 12.36 7.44303 11.7465 7.62303 11.071H10.376C10.1765 11.4171 10.0912 11.8173 10.1324 12.2147C10.1735 12.612 10.3391 12.9863 10.6053 13.2841C10.8716 13.5819 11.2251 13.7881 11.6154 13.8734C12.0057 13.9586 12.4129 13.9185 12.7791 13.7588C13.1453 13.5991 13.4517 13.3279 13.6548 12.9838C13.8579 12.6398 13.9472 12.2404 13.9101 11.8427C13.8729 11.4449 13.7112 11.069 13.448 10.7685C13.1848 10.468 12.8334 10.2582 12.444 10.169L12.432 10.124L12.427 10.109L11.32 6.04897C11.2072 5.43457 10.8809 4.8798 10.3987 4.48258C9.91662 4.08536 9.30968 3.87122 8.68503 3.87797H4.57703L3.94003 0.68497C3.90603 0.514845 3.81409 0.361769 3.67989 0.251818C3.54569 0.141868 3.37752 0.0818439 3.20403 0.0819704H0.832031ZM10.725 9.57197H7.71603C7.67626 9.27311 7.60107 8.98005 7.49203 8.69897H10.487L10.725 9.57197ZM10.078 7.19897H6.44103C6.04715 6.85252 5.5858 6.59137 5.08603 6.43197L5.07903 6.38797L4.87703 5.37797H8.69903C8.97317 5.3746 9.23948 5.46928 9.44998 5.64493C9.66047 5.82059 9.80128 6.06566 9.84703 6.33597L9.86303 6.40997L10.078 7.19897Z" fill="#5B5B5B"/>
</svg>
