<svg width="22" height="17" viewBox="0 0 22 17" fill="none" xmlns="http://www.w3.org/2000/svg">
<path d="M8.53529 1.08004C6.87947 0.363577 4.56508 0.0126123 1.46655 0.000151981C1.17432 -0.00344609 0.887834 0.0737792 0.645282 0.22153C0.446193 0.343486 0.283222 0.507911 0.170703 0.700343C0.0581843 0.892774 -0.000434629 1.10731 2.42615e-06 1.3251V13.208C2.42615e-06 14.0113 0.630616 14.6173 1.46655 14.6173C4.72365 14.6173 7.99083 14.8931 9.94775 16.5694C9.97452 16.5925 10.0082 16.6079 10.0445 16.6137C10.0809 16.6196 10.1183 16.6156 10.1522 16.6023C10.1861 16.589 10.2149 16.567 10.2351 16.539C10.2553 16.511 10.266 16.4783 10.2658 16.4448V2.4432C10.2659 2.34873 10.2435 2.25536 10.2004 2.16938C10.1572 2.0834 10.0942 2.00681 10.0156 1.94479C9.56733 1.59749 9.0694 1.30662 8.53529 1.08004ZM21.3529 0.220284C21.1102 0.0729008 20.8237 -0.00389327 20.5316 0.000151981C17.4331 0.0126123 15.1187 0.361915 13.4629 1.08004C12.9288 1.3062 12.4307 1.5965 11.9821 1.94312C11.9037 2.00524 11.8408 2.08186 11.7977 2.16782C11.7546 2.25379 11.7323 2.34712 11.7324 2.44154V16.444C11.7323 16.4761 11.7428 16.5076 11.7624 16.5344C11.782 16.5611 11.8099 16.5821 11.8426 16.5945C11.8753 16.607 11.9114 16.6104 11.9462 16.6044C11.981 16.5984 12.0132 16.5832 12.0385 16.5607C13.2149 15.5016 15.2796 14.6161 20.5335 14.6165C20.9224 14.6165 21.2954 14.4764 21.5705 14.2272C21.8455 13.9779 22 13.6399 22 13.2874V1.32551C22.0005 1.1073 21.9418 0.892326 21.8289 0.699571C21.7161 0.506816 21.5526 0.342208 21.3529 0.220284Z" fill="#5B5B5B"/>
</svg>
