<svg width="23" height="23" viewBox="0 0 23 23" fill="none" xmlns="http://www.w3.org/2000/svg">
<path fill-rule="evenodd" clip-rule="evenodd" d="M2.60973 0.586532C2.60264 0.502789 2.57916 0.421264 2.54062 0.346612C2.50208 0.271961 2.44924 0.205645 2.38511 0.151451C2.32098 0.0972581 2.24682 0.0562491 2.16687 0.030766C2.08691 0.00528288 2.00273 -0.00417511 1.91913 0.00293233L0.645893 0.111717C0.477167 0.12605 0.321024 0.206893 0.211774 0.336481C0.102525 0.46607 0.0491071 0.633803 0.0632592 0.802821L0.273442 3.27864C0.181534 3.34283 0.108098 3.43011 0.0605024 3.53171C0.012907 3.63332 -0.00717335 3.74567 0.00227622 3.8575C0.0117258 3.96934 0.0503728 4.07671 0.114339 4.16886C0.178306 4.261 0.265342 4.33468 0.366714 4.38248L0.590313 7.0202C0.597394 7.104 0.620896 7.18558 0.659477 7.26028C0.698058 7.33497 0.750961 7.40132 0.81516 7.45552C0.879358 7.50972 0.953594 7.55072 1.03362 7.57616C1.11365 7.6016 1.1979 7.61099 1.28155 7.6038L2.55479 7.49501C2.7234 7.48052 2.87938 7.39961 2.98849 7.27004C3.09761 7.14047 3.15094 6.97283 3.13678 6.80391L2.90104 4.02286C3.22643 3.96441 3.5465 3.90895 3.86124 3.85648C3.92896 4.91233 4.12317 6.70344 4.48284 8.39025C4.71219 9.4653 5.02651 10.5877 5.46348 11.4708C5.68069 11.911 5.96307 12.3615 6.33679 12.7173C6.66772 13.0322 7.11428 13.3105 7.66625 13.3835V16.1556L7.45862 16.0807L7.31616 16.0295C6.67411 15.7991 6.0212 15.5649 5.52353 15.4389C5.28141 15.3774 4.91535 15.2975 4.55631 15.3294C4.24977 15.3527 3.9573 15.4678 3.71686 15.6596C3.55242 15.7938 3.42012 15.9632 3.32968 16.1553C3.23924 16.3475 3.19297 16.5575 3.19428 16.7699C3.19428 17.2965 3.3738 18.6512 3.52648 19.7333C3.62062 20.4013 3.71858 21.0687 3.82035 21.7356L3.8408 21.8693L3.84655 21.9045L3.84782 21.9135V21.9167L5.11084 21.7209L3.84846 21.9173C3.89682 22.228 4.05765 22.51 4.30027 22.7094C4.5429 22.9089 4.85034 23.0119 5.16396 22.9989C5.47758 22.9858 5.77543 22.8576 6.0007 22.6387C6.22597 22.4197 6.36289 22.1254 6.38535 21.8117L6.62172 18.4996C7.33085 18.7543 8.16008 19.048 8.97781 19.2783C9.79107 19.5074 10.6836 19.7007 11.4994 19.7007C12.3152 19.7007 13.2077 19.5074 14.0216 19.2783C14.8329 19.0499 15.6538 18.7587 16.3598 18.506L16.614 21.8188C16.6383 22.1316 16.7764 22.4245 17.0021 22.642C17.2278 22.8595 17.5254 22.9864 17.8384 22.9985C18.1513 23.0107 18.4578 22.9073 18.6997 22.708C18.9416 22.5086 19.1019 22.2273 19.1503 21.9173L17.8879 21.7209L19.1509 21.9167V21.9129L19.1528 21.9039L19.1579 21.8687L19.1784 21.7343C19.2801 21.0677 19.378 20.4004 19.4722 19.7327C19.6256 18.6506 19.8045 17.2959 19.8045 16.7699C19.8045 16.3923 19.6575 15.9649 19.2825 15.659C19.0419 15.467 18.7492 15.352 18.4424 15.3288C18.0834 15.2968 17.7173 15.3768 17.4758 15.4376C16.9775 15.5643 16.3253 15.7985 15.6832 16.0289L15.5407 16.0801L15.3325 16.1549V13.386C16.5399 13.251 17.2714 12.2707 17.6752 11.4906C18.1422 10.5871 18.4475 9.44482 18.6545 8.36401C18.9791 6.67529 19.1075 4.90209 19.149 3.86416C19.4599 3.91535 19.7761 3.96953 20.0977 4.02669L19.8619 6.80327C19.8478 6.97229 19.9012 7.14002 20.0105 7.26961C20.1197 7.3992 20.2759 7.48004 20.4446 7.49437L21.7178 7.60316C21.8866 7.61733 22.054 7.56383 22.1834 7.4544C22.3128 7.34497 22.3935 7.18856 22.4078 7.01956L22.632 4.38185C22.7337 4.33433 22.821 4.26077 22.8853 4.16861C22.9495 4.07646 22.9883 3.96896 22.9977 3.85697C23.0072 3.74499 22.987 3.63249 22.9391 3.53083C22.8913 3.42917 22.8175 3.34196 22.7253 3.278L22.9361 0.802182C22.9503 0.633061 22.8968 0.465238 22.7874 0.335631C22.678 0.206024 22.5217 0.12525 22.3528 0.111077L21.0802 0.00229246C20.9966 -0.00481498 20.9125 0.00464301 20.8325 0.0301261C20.7526 0.0556092 20.6784 0.0966183 20.6143 0.150812C20.5501 0.205005 20.4973 0.271321 20.4587 0.345973C20.4202 0.420624 20.3967 0.502149 20.3896 0.585892L20.2063 2.74623C19.8071 2.67589 19.4074 2.6087 19.0072 2.54466C18.9117 2.3712 18.7773 2.22231 18.6146 2.10972C18.4519 1.99712 18.2653 1.92389 18.0696 1.89579C17.8738 1.86769 17.6742 1.88549 17.4865 1.94778C17.2988 2.01008 17.128 2.11517 16.9878 2.25478C13.1054 1.76397 9.81854 1.76461 6.00459 2.24838C5.86431 2.11091 5.69429 2.00765 5.50774 1.94662C5.32118 1.88559 5.12309 1.86843 4.92884 1.89646C4.73459 1.9245 4.5494 1.99697 4.38764 2.10828C4.22587 2.21958 4.09187 2.36671 3.99604 2.53826C3.60208 2.60097 3.20088 2.6688 2.79244 2.74175L2.60973 0.586532ZM6.9814 7.85592C6.68413 6.41579 6.48943 4.95632 6.39876 3.48853C9.93226 3.05787 13.0083 3.05787 16.6044 3.49749C16.5808 4.34985 16.4716 6.18128 16.1451 7.88088C15.9534 8.87978 15.7043 9.73726 15.406 10.3138C15.2028 10.7061 15.0642 10.8162 15.0175 10.8424H8.07767C8.00356 10.765 7.88857 10.6082 7.75313 10.3343C7.45798 9.73726 7.19605 8.86058 6.9814 7.85592ZM14.3742 6.68297C14.3742 7.44668 14.0713 8.17912 13.5322 8.71915C12.993 9.25918 12.2618 9.56257 11.4994 9.56257C10.7369 9.56257 10.0057 9.25918 9.46655 8.71915C8.92741 8.17912 8.62453 7.44668 8.62453 6.68297C8.62453 5.91925 8.92741 5.18681 9.46655 4.64678C10.0057 4.10675 10.7369 3.80337 11.4994 3.80337C12.2618 3.80337 12.993 4.10675 13.5322 4.64678C14.0713 5.18681 14.3742 5.91925 14.3742 6.68297Z" fill="#5B5B5B"/>
</svg>
