<svg width="21" height="19" viewBox="0 0 21 19" fill="none" xmlns="http://www.w3.org/2000/svg">
<path d="M9.60749 3.55753L10.5 5.32367L11.3925 3.55753C12.1687 2.02164 13.6939 1 15.4308 1C17.92 1 20 3.10066 20 5.7855C20 8.60342 18.5919 11.0756 15.9401 13.58L15.94 13.5801C14.6949 14.7566 13.2041 15.9 12.011 16.7568C11.4173 17.1833 10.9029 17.5347 10.5378 17.7789C10.5237 17.7884 10.5097 17.7977 10.496 17.8069C10.4779 17.795 10.4594 17.7828 10.4406 17.7703C10.0667 17.5234 9.5421 17.1689 8.94189 16.7407C7.73418 15.8792 6.25023 14.7403 5.07131 13.591C2.6797 11.2594 1 8.57752 1 5.7855C1 3.10907 3.081 1 5.5692 1C7.30613 1 8.83134 2.02164 9.60749 3.55753Z" stroke="#535353" stroke-width="2"/>
</svg>
