<svg width="18" height="18" viewBox="0 0 18 18" fill="none" xmlns="http://www.w3.org/2000/svg">
<path fill-rule="evenodd" clip-rule="evenodd" d="M2.04251 0.458291C2.03697 0.392858 2.01859 0.329158 1.98842 0.270828C1.95826 0.212499 1.9169 0.160682 1.86671 0.118338C1.81652 0.0759934 1.75848 0.0439507 1.6959 0.0240393C1.63333 0.00412782 1.56744 -0.00326226 1.50201 0.0022912L0.50551 0.0872912C0.373456 0.09849 0.25125 0.161657 0.165746 0.262913C0.0802413 0.364168 0.0384338 0.495227 0.04951 0.627291L0.21401 2.56179C0.142078 2.61195 0.084603 2.68015 0.0473523 2.75953C0.0101017 2.83892 -0.00561425 2.92671 0.00178149 3.01409C0.00917722 3.10147 0.0394244 3.18537 0.0894881 3.25737C0.139552 3.32937 0.207671 3.38694 0.28701 3.42429L0.46201 5.48529C0.467552 5.55077 0.485946 5.61451 0.516142 5.67288C0.546337 5.73124 0.587742 5.78308 0.637987 5.82543C0.688232 5.86778 0.746333 5.89982 0.808966 5.9197C0.8716 5.93958 0.937538 5.94691 1.00301 5.94129L1.99951 5.85629C2.13147 5.84497 2.25355 5.78175 2.33895 5.68051C2.42435 5.57926 2.46609 5.44828 2.45501 5.31629L2.27051 3.14329C2.52518 3.09762 2.77568 3.05429 3.02201 3.01329C3.07501 3.83829 3.22701 5.23779 3.50851 6.55579C3.68801 7.39579 3.93401 8.27279 4.27601 8.96279C4.44601 9.30679 4.66701 9.65879 4.95951 9.93679C5.21851 10.1828 5.56801 10.4003 6.00001 10.4573V12.6233L5.83751 12.5648L5.72601 12.5248C5.22351 12.3448 4.71251 12.1618 4.32301 12.0633C4.13351 12.0153 3.84701 11.9528 3.56601 11.9778C3.3261 11.996 3.09719 12.0859 2.90901 12.2358C2.78031 12.3406 2.67676 12.473 2.60598 12.6231C2.5352 12.7732 2.49899 12.9373 2.50001 13.1033C2.50001 13.5148 2.64051 14.5733 2.76001 15.4188C2.83369 15.9407 2.91036 16.4622 2.99001 16.9833L3.00601 17.0878L3.01051 17.1153L3.01151 17.1223V17.1248L4.00001 16.9718L3.01201 17.1253C3.04986 17.368 3.17573 17.5883 3.36562 17.7442C3.55551 17.9001 3.79613 17.9806 4.04159 17.9704C4.28704 17.9602 4.52016 17.86 4.69646 17.6889C4.87277 17.5178 4.97993 17.2878 4.99751 17.0428L5.18251 14.4548C5.73751 14.6538 6.38651 14.8833 7.02651 15.0633C7.66301 15.2423 8.36151 15.3933 9.00001 15.3933C9.63851 15.3933 10.337 15.2423 10.974 15.0633C11.609 14.8848 12.2515 14.6573 12.804 14.4598L13.003 17.0483C13.022 17.2927 13.1301 17.5216 13.3067 17.6915C13.4834 17.8615 13.7163 17.9606 13.9612 17.9701C14.2062 17.9796 14.4461 17.8988 14.6354 17.7431C14.8247 17.5873 14.9502 17.3675 14.988 17.1253L14 16.9718L14.9885 17.1248V17.1218L14.99 17.1148L14.994 17.0873L15.01 16.9823C15.0896 16.4614 15.1663 15.94 15.24 15.4183C15.36 14.5728 15.5 13.5143 15.5 13.1033C15.5 12.8083 15.385 12.4743 15.0915 12.2353C14.9032 12.0853 14.6741 11.9954 14.434 11.9773C14.153 11.9523 13.8665 12.0148 13.6775 12.0623C13.2875 12.1613 12.777 12.3443 12.2745 12.5243L12.163 12.5643L12 12.6228V10.4593C12.945 10.3538 13.5175 9.58779 13.8335 8.97829C14.199 8.27229 14.438 7.37979 14.6 6.53529C14.854 5.21579 14.9545 3.83029 14.987 3.01929C15.2303 3.05929 15.4778 3.10162 15.7295 3.14629L15.545 5.31579C15.5339 5.44786 15.5757 5.57891 15.6612 5.68017C15.7468 5.78143 15.869 5.84459 16.001 5.85579L16.9975 5.94079C17.1296 5.95187 17.2606 5.91006 17.3619 5.82456C17.4631 5.73905 17.5263 5.61684 17.5375 5.48479L17.713 3.42379C17.7926 3.38666 17.861 3.32919 17.9112 3.25718C17.9615 3.18517 17.9918 3.10118 17.9992 3.01368C18.0066 2.92618 17.9908 2.83827 17.9534 2.75884C17.9159 2.67941 17.8582 2.61127 17.786 2.56129L17.951 0.626791C17.9621 0.494647 17.9202 0.363517 17.8346 0.262248C17.749 0.160979 17.6267 0.0978651 17.4945 0.0867913L16.4985 0.00179123C16.4331 -0.00376222 16.3672 0.00362786 16.3046 0.0235393C16.242 0.0434507 16.184 0.0754935 16.1338 0.117838C16.0836 0.160182 16.0423 0.211999 16.0121 0.270329C15.9819 0.328658 15.9636 0.392358 15.958 0.457791L15.8145 2.14579C15.5021 2.09083 15.1893 2.03833 14.876 1.98829C14.8013 1.85276 14.6961 1.73642 14.5688 1.64845C14.4414 1.56047 14.2954 1.50325 14.1422 1.48129C13.989 1.45934 13.8328 1.47324 13.6858 1.52192C13.5389 1.57059 13.4053 1.6527 13.2955 1.76179C10.257 1.37829 7.68451 1.37879 4.69951 1.75679C4.58972 1.64937 4.45665 1.56869 4.31064 1.52101C4.16463 1.47332 4.0096 1.45991 3.85757 1.48182C3.70554 1.50372 3.5606 1.56035 3.43399 1.64732C3.30739 1.73429 3.20251 1.84925 3.12751 1.98329C2.81918 2.03229 2.50518 2.08529 2.18551 2.14229L2.04251 0.458291ZM5.46401 6.13829C5.23135 5.01303 5.07897 3.87266 5.00801 2.72579C7.77351 2.38929 10.181 2.38929 12.9955 2.73279C12.977 3.39879 12.8915 4.82979 12.636 6.15779C12.486 6.93829 12.291 7.60829 12.0575 8.05879C11.8985 8.36529 11.79 8.45129 11.7535 8.47179H6.32201C6.26401 8.41129 6.17401 8.28879 6.06801 8.07479C5.83701 7.60829 5.63201 6.92329 5.46401 6.13829ZM11.25 5.22179C11.25 5.81853 11.013 6.39082 10.591 6.81278C10.169 7.23474 9.59675 7.47179 9.00001 7.47179C8.40327 7.47179 7.83098 7.23474 7.40902 6.81278C6.98706 6.39082 6.75001 5.81853 6.75001 5.22179C6.75001 4.62505 6.98706 4.05276 7.40902 3.6308C7.83098 3.20884 8.40327 2.97179 9.00001 2.97179C9.59675 2.97179 10.169 3.20884 10.591 3.6308C11.013 4.05276 11.25 4.62505 11.25 5.22179Z" fill="#3B2DFF"/>
</svg>
