<svg width="18" height="15" viewBox="0 0 18 15" fill="none" xmlns="http://www.w3.org/2000/svg">
<path d="M5.78241 2C4.24882 2 2.77804 2.63214 1.69363 3.75736C0.609217 4.88258 0 6.4087 0 8C0 9.5913 0.609217 11.1174 1.69363 12.2426C2.77804 13.3679 4.24882 14 5.78241 14H12.2176C13.7512 14 15.222 13.3679 16.3064 12.2426C17.3908 11.1174 18 9.5913 18 8C18 6.4087 17.3908 4.88258 16.3064 3.75736C15.222 2.63214 13.7512 2 12.2176 2H5.78241ZM3.21502 8C3.21502 7.82319 3.28271 7.65362 3.4032 7.5286C3.52369 7.40357 3.68711 7.33333 3.85751 7.33333H5.14249V6C5.14249 5.82319 5.21018 5.65362 5.33067 5.5286C5.45116 5.40357 5.61458 5.33333 5.78498 5.33333C5.95538 5.33333 6.1188 5.40357 6.23929 5.5286C6.35978 5.65362 6.42747 5.82319 6.42747 6V7.33333H7.71245C7.88285 7.33333 8.04627 7.40357 8.16676 7.5286C8.28725 7.65362 8.35494 7.82319 8.35494 8C8.35494 8.17681 8.28725 8.34638 8.16676 8.4714C8.04627 8.59643 7.88285 8.66667 7.71245 8.66667H6.42747V10C6.42747 10.1768 6.35978 10.3464 6.23929 10.4714C6.1188 10.5964 5.95538 10.6667 5.78498 10.6667C5.61458 10.6667 5.45116 10.5964 5.33067 10.4714C5.21018 10.3464 5.14249 10.1768 5.14249 10V8.66667H3.85751C3.68711 8.66667 3.52369 8.59643 3.4032 8.4714C3.28271 8.34638 3.21502 8.17681 3.21502 8ZM12.8472 10C12.8472 10.3536 12.7118 10.6928 12.4709 10.9428C12.2299 11.1929 11.903 11.3333 11.5623 11.3333C11.2215 11.3333 10.8946 11.1929 10.6536 10.9428C10.4127 10.6928 10.2773 10.3536 10.2773 10C10.2773 9.64638 10.4127 9.30724 10.6536 9.05719C10.8946 8.80714 11.2215 8.66667 11.5623 8.66667C11.903 8.66667 12.2299 8.80714 12.4709 9.05719C12.7118 9.30724 12.8472 9.64638 12.8472 10ZM12.8472 7.33333C12.5064 7.33333 12.1796 7.19286 11.9386 6.94281C11.6976 6.69276 11.5623 6.35362 11.5623 6C11.5623 5.64638 11.6976 5.30724 11.9386 5.05719C12.1796 4.80714 12.5064 4.66667 12.8472 4.66667C13.188 4.66667 13.5149 4.80714 13.7558 5.05719C13.9968 5.30724 14.1322 5.64638 14.1322 6C14.1322 6.35362 13.9968 6.69276 13.7558 6.94281C13.5149 7.19286 13.188 7.33333 12.8472 7.33333Z" fill="#3B2DFF"/>
</svg>
