<svg width="25" height="25" viewBox="0 0 25 25" fill="none" xmlns="http://www.w3.org/2000/svg">
<mask id="path-1-inside-1_312_7157" fill="white">
<path d="M22.8731 0.107948C24.137 -0.378317 25.3783 0.863596 24.892 2.12676L16.4809 23.9987C15.9365 25.4137 13.897 25.3018 13.5114 23.8349L11.055 14.5021C11.0197 14.3685 10.9497 14.2466 10.8519 14.1489C10.7542 14.0512 10.6323 13.9811 10.4987 13.9459L1.16502 11.4895C-0.301935 11.1033 -0.413816 9.06447 1.00189 8.52008L22.8731 0.107948Z"/>
</mask>
<path d="M22.8731 0.107948L23.9501 2.90798L23.9504 2.90785L22.8731 0.107948ZM24.892 2.12676L22.0923 1.04896L22.0919 1.04995L24.892 2.12676ZM16.4809 23.9987L19.2808 25.0759L19.281 25.0755L16.4809 23.9987ZM13.5114 23.8349L16.4128 23.0721L16.4126 23.0713L13.5114 23.8349ZM11.055 14.5021L13.9562 13.7385L13.9558 13.7373L11.055 14.5021ZM10.4987 13.9459L11.2635 11.045L11.2622 11.0447L10.4987 13.9459ZM1.16502 11.4895L0.401138 14.3907L0.401516 14.3908L1.16502 11.4895ZM1.00189 8.52008L2.07864 11.3202L2.07884 11.3201L1.00189 8.52008ZM23.9504 2.90785C22.7877 3.35524 21.6444 2.2124 22.0923 1.04896L27.6917 3.20456C29.1122 -0.485204 25.4863 -4.11187 21.7959 -2.69196L23.9504 2.90785ZM22.0919 1.04995L13.6808 22.9219L19.281 25.0755L27.6921 3.20357L22.0919 1.04995ZM13.681 22.9215C14.1817 21.62 16.0575 21.721 16.4128 23.0721L10.6099 24.5977C11.7365 28.8827 17.6913 29.2074 19.2808 25.0759L13.681 22.9215ZM16.4126 23.0713L13.9562 13.7385L8.15377 15.2657L10.6102 24.5985L16.4126 23.0713ZM13.9558 13.7373C13.7853 13.0905 13.4462 12.5005 12.9732 12.0275L8.73066 16.2702C8.45313 15.9927 8.25418 15.6465 8.15411 15.267L13.9558 13.7373ZM12.9732 12.0275C12.5003 11.5546 11.9103 11.2155 11.2635 11.045L9.73384 16.8467C9.35435 16.7467 9.00818 16.5477 8.73066 16.2702L12.9732 12.0275ZM11.2622 11.0447L1.92853 8.58833L0.401516 14.3908L9.73518 16.8471L11.2622 11.0447ZM1.92891 8.58843C3.27742 8.9435 3.38125 10.8193 2.07864 11.3202L-0.0748562 5.71997C-4.20889 7.30965 -3.88129 13.2631 0.401138 14.3907L1.92891 8.58843ZM2.07884 11.3201L23.9501 2.90798L21.7962 -2.69208L-0.0750594 5.72005L2.07884 11.3201Z" fill="#0038FF" mask="url(#path-1-inside-1_312_7157)"/>
</svg>
