<svg width="48" height="53" viewBox="0 0 48 53" fill="none" xmlns="http://www.w3.org/2000/svg">
<path d="M23.9725 51.8159L7.26399 32.597L40.4694 32.597L23.9725 51.8159Z" fill="#BCDDB9"/>
<path d="M15.0776 0.799805C18.9612 0.799805 22.3147 3.12738 24 6.52237C25.6853 3.12738 29.0388 5.7998 32.9224 5.7998C38.4894 5.7998 43 10.5598 43 16.4573C43 22.3548 40.074 27.3598 35.0865 32.1547C30.4106 36.6522 24 40.7998 24 40.7998C24 40.7998 11.5894 36.6522 6.91351 32.1547C1.92601 27.3598 0 20.3548 0 14.4573C0.5 8.31592 6 0.799805 15.0776 0.799805Z" fill="#BCDDB9"/>
<path d="M24 6.52237C25.6853 3.12738 29.0388 5.7998 32.9224 5.7998C38.4894 5.7998 43 10.5598 43 16.4573C43 22.3548 40.074 27.3598 35.0865 32.1547C30.4106 36.6522 24 40.7998 24 40.7998C24 40.7998 36.4106 36.6522 41.0865 32.1547C46.074 27.3598 48 20.3548 48 14.4573C47.5 8.31592 42 0.799805 32.9224 0.799805C29.0388 0.799805 25.6853 3.12738 24 6.52237Z" fill="#BCDDB9"/>
<path d="M15.0776 5.7998C18.9612 5.7998 22.3147 8.12738 24 11.5224C25.6853 8.12738 29.0388 5.7998 32.9224 5.7998C38.4894 5.7998 43 10.5598 43 16.4573C43 22.3548 40.074 27.3598 35.0865 32.1547C31.5801 35.5273 27.0984 38.7031 25.0757 40.0808C24.4249 40.5241 23.5751 40.5241 22.9243 40.0808C20.9016 38.7031 16.4199 35.5273 12.9135 32.1547C7.92601 27.3598 5 22.3548 5 16.4573C5 10.5598 9.5106 5.7998 15.0776 5.7998Z" fill="#74B96D"/>
<path d="M31.8 14.7998C29.2646 14.8107 27.3799 15.1598 26.016 15.7632C24.9983 16.2132 24.6 16.5537 24.6 17.7072V29.7998C26.1589 28.3936 27.5423 27.9998 33 27.9998V14.7998H31.8ZM16.2 14.7998C18.7354 14.8107 20.6201 15.1598 21.984 15.7632C23.0018 16.2132 23.4 16.5537 23.4 17.7072V29.7998C21.8411 28.3936 20.4577 27.9998 15 27.9998V14.7998H16.2Z" fill="white"/>
</svg>
