<svg width="48" height="52" viewBox="0 0 48 52" fill="none" xmlns="http://www.w3.org/2000/svg">
<path d="M23.9725 51.416L7.26399 32.1971L40.4694 32.1971L23.9725 51.416Z" fill="#FFD886"/>
<path d="M15.0776 0.399902C18.9612 0.399902 22.3147 2.72748 24 6.12247C25.6853 2.72748 29.0388 5.3999 32.9224 5.3999C38.4894 5.3999 43 10.1599 43 16.0574C43 21.9549 40.074 26.9599 35.0865 31.7548C30.4106 36.2523 24 40.3999 24 40.3999C24 40.3999 11.5894 36.2523 6.91351 31.7548C1.92601 26.9599 0 19.9549 0 14.0574C0.5 7.91601 6 0.399902 15.0776 0.399902Z" fill="#FFD886"/>
<path d="M24 6.12247C25.6853 2.72748 29.0388 5.3999 32.9224 5.3999C38.4894 5.3999 43 10.1599 43 16.0574C43 21.9549 40.074 26.9599 35.0865 31.7548C30.4106 36.2523 24 40.3999 24 40.3999C24 40.3999 36.4106 36.2523 41.0865 31.7548C46.074 26.9599 48 19.9549 48 14.0574C47.5 7.91602 42 0.399902 32.9224 0.399902C29.0388 0.399902 25.6853 2.72748 24 6.12247Z" fill="#FFD886"/>
<path d="M15.0776 5.3999C18.9612 5.3999 22.3147 7.72748 24 11.1225C25.6853 7.72748 29.0388 5.3999 32.9224 5.3999C38.4894 5.3999 43 10.1599 43 16.0574C43 21.9549 40.074 26.9599 35.0865 31.7548C31.5801 35.1274 27.0984 38.3032 25.0757 39.6809C24.4249 40.1242 23.5751 40.1242 22.9243 39.6809C20.9016 38.3032 16.4199 35.1274 12.9135 31.7548C7.92601 26.9599 5 21.9549 5 16.0574C5 10.1599 9.5106 5.3999 15.0776 5.3999Z" fill="#FFAE02"/>
<path d="M31.8 14.3999C29.2646 14.4108 27.3799 14.7599 26.016 15.3633C24.9983 15.8133 24.6 16.1538 24.6 17.3073V29.3999C26.1589 27.9937 27.5423 27.5999 33 27.5999V14.3999H31.8ZM16.2 14.3999C18.7354 14.4108 20.6201 14.7599 21.984 15.3633C23.0018 15.8133 23.4 16.1538 23.4 17.3073V29.3999C21.8411 27.9937 20.4577 27.5999 15 27.5999V14.3999H16.2Z" fill="white"/>
</svg>
