<svg width="48" height="53" viewBox="0 0 48 53" fill="none" xmlns="http://www.w3.org/2000/svg">
<path d="M23.9725 51.8159L7.26399 32.597L40.4694 32.597L23.9725 51.8159Z" fill="#BCDDB9"/>
<path d="M15.0776 0.799805C18.9612 0.799805 22.3147 3.12738 24 6.52237C25.6853 3.12738 29.0388 5.7998 32.9224 5.7998C38.4894 5.7998 43 10.5598 43 16.4573C43 22.3548 40.074 27.3598 35.0865 32.1547C30.4106 36.6522 24 40.7998 24 40.7998C24 40.7998 11.5894 36.6522 6.91351 32.1547C1.92601 27.3598 0 20.3548 0 14.4573C0.5 8.31592 6 0.799805 15.0776 0.799805Z" fill="#BCDDB9"/>
<path d="M24 6.52237C25.6853 3.12738 29.0388 5.7998 32.9224 5.7998C38.4894 5.7998 43 10.5598 43 16.4573C43 22.3548 40.074 27.3598 35.0865 32.1547C30.4106 36.6522 24 40.7998 24 40.7998C24 40.7998 36.4106 36.6522 41.0865 32.1547C46.074 27.3598 48 20.3548 48 14.4573C47.5 8.31592 42 0.799805 32.9224 0.799805C29.0388 0.799805 25.6853 3.12738 24 6.52237Z" fill="#BCDDB9"/>
<path d="M15.0776 5.7998C18.9612 5.7998 22.3147 8.12738 24 11.5224C25.6853 8.12738 29.0388 5.7998 32.9224 5.7998C38.4894 5.7998 43 10.5598 43 16.4573C43 22.3548 40.074 27.3598 35.0865 32.1547C31.5801 35.5273 27.0984 38.7031 25.0757 40.0808C24.4249 40.5241 23.5751 40.5241 22.9243 40.0808C20.9016 38.7031 16.4199 35.5273 12.9135 32.1547C7.92601 27.3598 5 22.3548 5 16.4573C5 10.5598 9.5106 5.7998 15.0776 5.7998Z" fill="#74B96D"/>
<path fill-rule="evenodd" clip-rule="evenodd" d="M17.0425 14.2581C17.037 14.1927 17.0186 14.129 16.9884 14.0706C16.9583 14.0123 16.9169 13.9605 16.8667 13.9181C16.8165 13.8758 16.7585 13.8438 16.6959 13.8238C16.6333 13.8039 16.5674 13.7965 16.502 13.8021L15.5055 13.8871C15.3735 13.8983 15.2513 13.9615 15.1657 14.0627C15.0802 14.164 15.0384 14.295 15.0495 14.4271L15.214 16.3616C15.1421 16.4118 15.0846 16.4799 15.0474 16.5593C15.0101 16.6387 14.9944 16.7265 15.0018 16.8139C15.0092 16.9013 15.0394 16.9852 15.0895 17.0572C15.1396 17.1292 15.2077 17.1867 15.287 17.2241L15.462 19.2851C15.4676 19.3506 15.4859 19.4143 15.5161 19.4727C15.5463 19.531 15.5877 19.5829 15.638 19.6252C15.6882 19.6676 15.7463 19.6996 15.809 19.7195C15.8716 19.7394 15.9375 19.7467 16.003 19.7411L16.9995 19.6561C17.1315 19.6448 17.2536 19.5816 17.339 19.4803C17.4244 19.3791 17.4661 19.2481 17.455 19.1161L17.2705 16.9431C17.5252 16.8974 17.7757 16.8541 18.022 16.8131C18.075 17.6381 18.227 19.0376 18.5085 20.3556C18.688 21.1956 18.934 22.0726 19.276 22.7626C19.446 23.1066 19.667 23.4586 19.9595 23.7366C20.2185 23.9826 20.568 24.2001 21 24.2571V26.4231L20.8375 26.3646L20.726 26.3246C20.2235 26.1446 19.7125 25.9616 19.323 25.8631C19.1335 25.8151 18.847 25.7526 18.566 25.7776C18.3261 25.7958 18.0972 25.8857 17.909 26.0356C17.7803 26.1404 17.6768 26.2728 17.606 26.4229C17.5352 26.573 17.499 26.7371 17.5 26.9031C17.5 27.3146 17.6405 28.3731 17.76 29.2186C17.8337 29.7405 17.9104 30.262 17.99 30.7831L18.006 30.8876L18.0105 30.9151L18.0115 30.9221V30.9246L19 30.7716L18.012 30.9251C18.0499 31.1678 18.1757 31.3881 18.3656 31.544C18.5555 31.6999 18.7961 31.7804 19.0416 31.7702C19.287 31.76 19.5202 31.6598 19.6965 31.4887C19.8728 31.3176 19.9799 31.0876 19.9975 30.8426L20.1825 28.2546C20.7375 28.4536 21.3865 28.6831 22.0265 28.8631C22.663 29.0421 23.3615 29.1931 24 29.1931C24.6385 29.1931 25.337 29.0421 25.974 28.8631C26.609 28.6846 27.2515 28.4571 27.804 28.2596L28.003 30.8481C28.022 31.0925 28.1301 31.3214 28.3067 31.4913C28.4834 31.6613 28.7163 31.7604 28.9612 31.7699C29.2062 31.7794 29.4461 31.6986 29.6354 31.5429C29.8247 31.3871 29.9502 31.1673 29.988 30.9251L29 30.7716L29.9885 30.9246V30.9216L29.99 30.9146L29.994 30.8871L30.01 30.7821C30.0896 30.2612 30.1663 29.7399 30.24 29.2181C30.36 28.3726 30.5 27.3141 30.5 26.9031C30.5 26.6081 30.385 26.2741 30.0915 26.0351C29.9032 25.8851 29.6741 25.7952 29.434 25.7771C29.153 25.7521 28.8665 25.8146 28.6775 25.8621C28.2875 25.9611 27.777 26.1441 27.2745 26.3241L27.163 26.3641L27 26.4226V24.2591C27.945 24.1536 28.5175 23.3876 28.8335 22.7781C29.199 22.0721 29.438 21.1796 29.6 20.3351C29.854 19.0156 29.9545 17.6301 29.987 16.8191C30.2303 16.8591 30.4778 16.9014 30.7295 16.9461L30.545 19.1156C30.5339 19.2477 30.5757 19.3787 30.6612 19.48C30.7468 19.5812 30.869 19.6444 31.001 19.6556L31.9975 19.7406C32.1296 19.7517 32.2606 19.7099 32.3619 19.6244C32.4631 19.5389 32.5263 19.4166 32.5375 19.2846L32.713 17.2236C32.7926 17.1865 32.861 17.129 32.9112 17.057C32.9615 16.985 32.9918 16.901 32.9992 16.8135C33.0066 16.726 32.9908 16.6381 32.9534 16.5586C32.9159 16.4792 32.8582 16.4111 32.786 16.3611L32.951 14.4266C32.9621 14.2945 32.9202 14.1633 32.8346 14.0621C32.749 13.9608 32.6267 13.8977 32.4945 13.8866L31.4985 13.8016C31.4331 13.796 31.3672 13.8034 31.3046 13.8233C31.242 13.8433 31.184 13.8753 31.1338 13.9176C31.0836 13.96 31.0423 14.0118 31.0121 14.0701C30.9819 14.1285 30.9636 14.1922 30.958 14.2576L30.8145 15.9456C30.5021 15.8906 30.1893 15.8381 29.876 15.7881C29.8013 15.6526 29.6961 15.5362 29.5688 15.4483C29.4414 15.3603 29.2954 15.3031 29.1422 15.2811C28.989 15.2591 28.8328 15.273 28.6858 15.3217C28.5389 15.3704 28.4053 15.4525 28.2955 15.5616C25.257 15.1781 22.6845 15.1786 19.6995 15.5566C19.5897 15.4492 19.4567 15.3685 19.3106 15.3208C19.1646 15.2731 19.0096 15.2597 18.8576 15.2816C18.7055 15.3035 18.5606 15.3602 18.434 15.4471C18.3074 15.5341 18.2025 15.6491 18.1275 15.7831C17.8192 15.8321 17.5052 15.8851 17.1855 15.9421L17.0425 14.2581ZM20.464 19.9381C20.2314 18.8128 20.079 17.6725 20.008 16.5256C22.7735 16.1891 25.181 16.1891 27.9955 16.5326C27.977 17.1986 27.8915 18.6296 27.636 19.9576C27.486 20.7381 27.291 21.4081 27.0575 21.8586C26.8985 22.1651 26.79 22.2511 26.7535 22.2716H21.322C21.264 22.2111 21.174 22.0886 21.068 21.8746C20.837 21.4081 20.632 20.7231 20.464 19.9381ZM26.25 19.0216C26.25 19.6183 26.013 20.1906 25.591 20.6126C25.169 21.0345 24.5967 21.2716 24 21.2716C23.4033 21.2716 22.831 21.0345 22.409 20.6126C21.9871 20.1906 21.75 19.6183 21.75 19.0216C21.75 18.4249 21.9871 17.8526 22.409 17.4306C22.831 17.0086 23.4033 16.7716 24 16.7716C24.5967 16.7716 25.169 17.0086 25.591 17.4306C26.013 17.8526 26.25 18.4249 26.25 19.0216Z" fill="white"/>
</svg>
