<svg width="48" height="52" viewBox="0 0 48 52" fill="none" xmlns="http://www.w3.org/2000/svg">
<path d="M23.9725 51.416L7.26399 32.1971L40.4694 32.1971L23.9725 51.416Z" fill="#FFD886"/>
<path d="M15.0776 0.399902C18.9612 0.399902 22.3147 2.72748 24 6.12247C25.6853 2.72748 29.0388 5.3999 32.9224 5.3999C38.4894 5.3999 43 10.1599 43 16.0574C43 21.9549 40.074 26.9599 35.0865 31.7548C30.4106 36.2523 24 40.3999 24 40.3999C24 40.3999 11.5894 36.2523 6.91351 31.7548C1.92601 26.9599 0 19.9549 0 14.0574C0.5 7.91601 6 0.399902 15.0776 0.399902Z" fill="#FFD886"/>
<path d="M24 6.12247C25.6853 2.72748 29.0388 5.3999 32.9224 5.3999C38.4894 5.3999 43 10.1599 43 16.0574C43 21.9549 40.074 26.9599 35.0865 31.7548C30.4106 36.2523 24 40.3999 24 40.3999C24 40.3999 36.4106 36.2523 41.0865 31.7548C46.074 26.9599 48 19.9549 48 14.0574C47.5 7.91602 42 0.399902 32.9224 0.399902C29.0388 0.399902 25.6853 2.72748 24 6.12247Z" fill="#FFD886"/>
<path d="M15.0776 5.3999C18.9612 5.3999 22.3147 7.72748 24 11.1225C25.6853 7.72748 29.0388 5.3999 32.9224 5.3999C38.4894 5.3999 43 10.1599 43 16.0574C43 21.9549 40.074 26.9599 35.0865 31.7548C31.5801 35.1274 27.0984 38.3032 25.0757 39.6809C24.4249 40.1242 23.5751 40.1242 22.9243 39.6809C20.9016 38.3032 16.4199 35.1274 12.9135 31.7548C7.92601 26.9599 5 21.9549 5 16.0574C5 10.1599 9.5106 5.3999 15.0776 5.3999Z" fill="#FFAE02"/>
<path fill-rule="evenodd" clip-rule="evenodd" d="M17.0425 13.8582C17.037 13.7928 17.0186 13.7291 16.9884 13.6707C16.9583 13.6124 16.9169 13.5606 16.8667 13.5182C16.8165 13.4759 16.7585 13.4439 16.6959 13.4239C16.6333 13.404 16.5674 13.3966 16.502 13.4022L15.5055 13.4872C15.3735 13.4984 15.2513 13.5616 15.1657 13.6628C15.0802 13.7641 15.0384 13.8951 15.0495 14.0272L15.214 15.9617C15.1421 16.0119 15.0846 16.08 15.0474 16.1594C15.0101 16.2388 14.9944 16.3266 15.0018 16.414C15.0092 16.5014 15.0394 16.5853 15.0895 16.6573C15.1396 16.7293 15.2077 16.7868 15.287 16.8242L15.462 18.8852C15.4676 18.9507 15.4859 19.0144 15.5161 19.0728C15.5463 19.1311 15.5877 19.183 15.638 19.2253C15.6882 19.2677 15.7463 19.2997 15.809 19.3196C15.8716 19.3395 15.9375 19.3468 16.003 19.3412L16.9995 19.2562C17.1315 19.2449 17.2536 19.1816 17.339 19.0804C17.4244 18.9792 17.4661 18.8482 17.455 18.7162L17.2705 16.5432C17.5252 16.4975 17.7757 16.4542 18.022 16.4132C18.075 17.2382 18.227 18.6377 18.5085 19.9557C18.688 20.7957 18.934 21.6727 19.276 22.3627C19.446 22.7067 19.667 23.0587 19.9595 23.3367C20.2185 23.5827 20.568 23.8002 21 23.8572V26.0232L20.8375 25.9647L20.726 25.9247C20.2235 25.7447 19.7125 25.5617 19.323 25.4632C19.1335 25.4152 18.847 25.3527 18.566 25.3777C18.3261 25.3959 18.0972 25.4858 17.909 25.6357C17.7803 25.7405 17.6768 25.8729 17.606 26.023C17.5352 26.1731 17.499 26.3372 17.5 26.5032C17.5 26.9147 17.6405 27.9732 17.76 28.8187C17.8337 29.3406 17.9104 29.8621 17.99 30.3832L18.006 30.4877L18.0105 30.5152L18.0115 30.5222V30.5247L19 30.3717L18.012 30.5252C18.0499 30.7679 18.1757 30.9882 18.3656 31.1441C18.5555 31.3 18.7961 31.3805 19.0416 31.3703C19.287 31.3601 19.5202 31.2599 19.6965 31.0888C19.8728 30.9177 19.9799 30.6877 19.9975 30.4427L20.1825 27.8547C20.7375 28.0537 21.3865 28.2832 22.0265 28.4632C22.663 28.6422 23.3615 28.7932 24 28.7932C24.6385 28.7932 25.337 28.6422 25.974 28.4632C26.609 28.2847 27.2515 28.0572 27.804 27.8597L28.003 30.4482C28.022 30.6926 28.1301 30.9215 28.3067 31.0914C28.4834 31.2614 28.7163 31.3605 28.9612 31.37C29.2062 31.3795 29.4461 31.2987 29.6354 31.143C29.8247 30.9872 29.9502 30.7674 29.988 30.5252L29 30.3717L29.9885 30.5247V30.5217L29.99 30.5147L29.994 30.4872L30.01 30.3822C30.0896 29.8613 30.1663 29.34 30.24 28.8182C30.36 27.9727 30.5 26.9142 30.5 26.5032C30.5 26.2082 30.385 25.8742 30.0915 25.6352C29.9032 25.4852 29.6741 25.3953 29.434 25.3772C29.153 25.3522 28.8665 25.4147 28.6775 25.4622C28.2875 25.5612 27.777 25.7442 27.2745 25.9242L27.163 25.9642L27 26.0227V23.8592C27.945 23.7537 28.5175 22.9877 28.8335 22.3782C29.199 21.6722 29.438 20.7797 29.6 19.9352C29.854 18.6157 29.9545 17.2302 29.987 16.4192C30.2303 16.4592 30.4778 16.5015 30.7295 16.5462L30.545 18.7157C30.5339 18.8478 30.5757 18.9788 30.6612 19.0801C30.7468 19.1813 30.869 19.2445 31.001 19.2557L31.9975 19.3407C32.1296 19.3518 32.2606 19.31 32.3619 19.2245C32.4631 19.139 32.5263 19.0167 32.5375 18.8847L32.713 16.8237C32.7926 16.7866 32.861 16.7291 32.9112 16.6571C32.9615 16.5851 32.9918 16.5011 32.9992 16.4136C33.0066 16.3261 32.9908 16.2382 32.9534 16.1587C32.9159 16.0793 32.8582 16.0112 32.786 15.9612L32.951 14.0267C32.9621 13.8945 32.9202 13.7634 32.8346 13.6622C32.749 13.5609 32.6267 13.4978 32.4945 13.4867L31.4985 13.4017C31.4331 13.3961 31.3672 13.4035 31.3046 13.4234C31.242 13.4434 31.184 13.4754 31.1338 13.5177C31.0836 13.5601 31.0423 13.6119 31.0121 13.6702C30.9819 13.7286 30.9636 13.7923 30.958 13.8577L30.8145 15.5457C30.5021 15.4907 30.1893 15.4382 29.876 15.3882C29.8013 15.2527 29.6961 15.1363 29.5688 15.0483C29.4414 14.9604 29.2954 14.9032 29.1422 14.8812C28.989 14.8592 28.8328 14.8731 28.6858 14.9218C28.5389 14.9705 28.4053 15.0526 28.2955 15.1617C25.257 14.7782 22.6845 14.7787 19.6995 15.1567C19.5897 15.0493 19.4567 14.9686 19.3106 14.9209C19.1646 14.8732 19.0096 14.8598 18.8576 14.8817C18.7055 14.9036 18.5606 14.9603 18.434 15.0472C18.3074 15.1342 18.2025 15.2492 18.1275 15.3832C17.8192 15.4322 17.5052 15.4852 17.1855 15.5422L17.0425 13.8582ZM20.464 19.5382C20.2314 18.4129 20.079 17.2726 20.008 16.1257C22.7735 15.7892 25.181 15.7892 27.9955 16.1327C27.977 16.7987 27.8915 18.2297 27.636 19.5577C27.486 20.3382 27.291 21.0082 27.0575 21.4587C26.8985 21.7652 26.79 21.8512 26.7535 21.8717H21.322C21.264 21.8112 21.174 21.6887 21.068 21.4747C20.837 21.0082 20.632 20.3232 20.464 19.5382ZM26.25 18.6217C26.25 19.2184 26.013 19.7907 25.591 20.2127C25.169 20.6346 24.5967 20.8717 24 20.8717C23.4033 20.8717 22.831 20.6346 22.409 20.2127C21.9871 19.7907 21.75 19.2184 21.75 18.6217C21.75 18.025 21.9871 17.4527 22.409 17.0307C22.831 16.6087 23.4033 16.3717 24 16.3717C24.5967 16.3717 25.169 16.6087 25.591 17.0307C26.013 17.4527 26.25 18.025 26.25 18.6217Z" fill="white"/>
</svg>
