<svg width="48" height="52" viewBox="0 0 48 52" fill="none" xmlns="http://www.w3.org/2000/svg">
<path d="M23.9725 51.0161L7.26399 31.7972L40.4694 31.7972L23.9725 51.0161Z" fill="#FFAFAF"/>
<path d="M15.0776 0C18.9612 0 22.3147 2.32757 24 5.72257C25.6853 2.32757 29.0388 5 32.9224 5C38.4894 5 43 9.75999 43 15.6575C43 21.555 40.074 26.5599 35.0865 31.3549C30.4106 35.8524 24 40 24 40C24 40 11.5894 35.8524 6.91351 31.3549C1.92601 26.5599 0 19.555 0 13.6575C0.5 7.51611 6 -9.85048e-10 15.0776 0Z" fill="#FFAFAF"/>
<path d="M24 5.72257C25.6853 2.32757 29.0388 5 32.9224 5C38.4894 5 43 9.75999 43 15.6575C43 21.555 40.074 26.5599 35.0865 31.3549C30.4106 35.8524 24 40 24 40C24 40 36.4106 35.8524 41.0865 31.3549C46.074 26.56 48 19.555 48 13.6575C47.5 7.51611 42 0 32.9224 0C29.0388 0 25.6853 2.32757 24 5.72257Z" fill="#FFAFAF"/>
<path d="M15.0776 5C18.9612 5 22.3147 7.32757 24 10.7226C25.6853 7.32757 29.0388 5 32.9224 5C38.4894 5 43 9.75999 43 15.6575C43 21.555 40.074 26.56 35.0865 31.3549C31.5801 34.7275 27.0984 37.9033 25.0757 39.281C24.4249 39.7243 23.5751 39.7243 22.9243 39.281C20.9016 37.9033 16.4199 34.7275 12.9135 31.3549C7.92601 26.56 5 21.555 5 15.6575C5 9.75999 9.5106 5 15.0776 5Z" fill="#FF5959"/>
<path d="M15.743 12.816C15.7616 12.5903 15.8664 12.3805 16.0357 12.2301C16.205 12.0798 16.4258 12.0005 16.6521 12.0087C16.8784 12.017 17.0928 12.1121 17.2507 12.2744C17.4086 12.4367 17.4979 12.6536 17.5 12.88V17.374C17.5 17.5398 17.5658 17.6987 17.6831 17.8159C17.8003 17.9332 17.9592 17.999 18.125 17.999C18.2908 17.999 18.4497 17.9332 18.5669 17.8159C18.6842 17.6987 18.75 17.5398 18.75 17.374V12.75C18.75 12.5511 18.829 12.3603 18.9697 12.2197C19.1103 12.079 19.3011 12 19.5 12C19.6989 12 19.8897 12.079 20.0303 12.2197C20.171 12.3603 20.25 12.5511 20.25 12.75V17.374C20.25 17.5398 20.3158 17.6987 20.4331 17.8159C20.5503 17.9332 20.7092 17.999 20.875 17.999C21.0408 17.999 21.1997 17.9332 21.3169 17.8159C21.4342 17.6987 21.5 17.5398 21.5 17.374V12.88C21.5021 12.6536 21.5914 12.4367 21.7493 12.2744C21.9072 12.1121 22.1216 12.017 22.3479 12.0087C22.5742 12.0005 22.795 12.0798 22.9643 12.2301C23.1336 12.3805 23.2384 12.5903 23.257 12.816C23.3 13.428 23.5 16.37 23.5 18C23.5 19.35 22.83 20.544 21.808 21.267C21.592 21.42 21.54 21.582 21.545 21.664C21.668 23.542 22 28.682 22 29.497C22 30.16 21.7366 30.7959 21.2678 31.2648C20.7989 31.7336 20.163 31.997 19.5 31.997C18.837 31.997 18.2011 31.7336 17.7322 31.2648C17.2634 30.7959 17 30.16 17 29.497C17 28.681 17.332 23.542 17.455 21.664C17.46 21.582 17.408 21.42 17.192 21.267C16.6691 20.8976 16.2425 20.4081 15.9481 19.8396C15.6537 19.2711 15.5 18.6402 15.5 18C15.5 16.37 15.7 13.428 15.743 12.816ZM25 17.75C25 16.225 25.6058 14.7625 26.6841 13.6841C27.7625 12.6058 29.225 12 30.75 12C30.9489 12 31.1397 12.079 31.2803 12.2197C31.421 12.3603 31.5 12.5511 31.5 12.75V21.25C31.5 21.568 31.606 23.145 31.725 24.892L31.73 24.975C31.86 26.883 32 28.958 32 29.497C32 30.16 31.7366 30.7959 31.2678 31.2648C30.7989 31.7336 30.163 31.997 29.5 31.997C28.837 31.997 28.2011 31.7336 27.7322 31.2648C27.2634 30.7959 27 30.16 27 29.497C27 28.983 27.128 26.886 27.252 24.963C27.314 23.992 27.377 23.051 27.424 22.353L27.447 22H26.75C26.5202 22 26.2926 21.9547 26.0803 21.8668C25.868 21.7788 25.6751 21.6499 25.5126 21.4874C25.3501 21.3249 25.2212 21.132 25.1332 20.9197C25.0453 20.7074 25 20.4798 25 20.25V17.75Z" fill="white"/>
</svg>
