<svg width="48" height="52" viewBox="0 0 48 52" fill="none" xmlns="http://www.w3.org/2000/svg">
<path d="M23.9725 51.0161L7.26399 31.7972L40.4694 31.7972L23.9725 51.0161Z" fill="#FFAFAF"/>
<path d="M15.0776 0C18.9612 0 22.3147 2.32757 24 5.72257C25.6853 2.32757 29.0388 5 32.9224 5C38.4894 5 43 9.75999 43 15.6575C43 21.555 40.074 26.5599 35.0865 31.3549C30.4106 35.8524 24 40 24 40C24 40 11.5894 35.8524 6.91351 31.3549C1.92601 26.5599 0 19.555 0 13.6575C0.5 7.51611 6 -9.85048e-10 15.0776 0Z" fill="#FFAFAF"/>
<path d="M24 5.72257C25.6853 2.32757 29.0388 5 32.9224 5C38.4894 5 43 9.75999 43 15.6575C43 21.555 40.074 26.5599 35.0865 31.3549C30.4106 35.8524 24 40 24 40C24 40 36.4106 35.8524 41.0865 31.3549C46.074 26.56 48 19.555 48 13.6575C47.5 7.51611 42 0 32.9224 0C29.0388 0 25.6853 2.32757 24 5.72257Z" fill="#FFAFAF"/>
<path d="M15.0776 5C18.9612 5 22.3147 7.32757 24 10.7226C25.6853 7.32757 29.0388 5 32.9224 5C38.4894 5 43 9.75999 43 15.6575C43 21.555 40.074 26.56 35.0865 31.3549C31.5801 34.7275 27.0984 37.9033 25.0757 39.281C24.4249 39.7243 23.5751 39.7243 22.9243 39.281C20.9016 37.9033 16.4199 34.7275 12.9135 31.3549C7.92601 26.56 5 21.555 5 15.6575C5 9.75999 9.5106 5 15.0776 5Z" fill="#FF5959"/>
<path d="M31.8 14C29.2646 14.0109 27.3799 14.36 26.016 14.9634C24.9983 15.4134 24.6 15.7539 24.6 16.9074V29C26.1589 27.5938 27.5423 27.2 33 27.2V14H31.8ZM16.2 14C18.7354 14.0109 20.6201 14.36 21.984 14.9634C23.0018 15.4134 23.4 15.7539 23.4 16.9074V29C21.8411 27.5938 20.4577 27.2 15 27.2V14H16.2Z" fill="white"/>
</svg>
