<svg width="42" height="52" viewBox="0 0 42 52" fill="none" xmlns="http://www.w3.org/2000/svg">
<path d="M20.7009 51.4652L4.08682 32.354L38.2107 33.1711L20.7009 51.4652Z" fill="#BCDDB9"/>
<circle cx="21" cy="21" r="21" fill="#74B96D"/>
<circle cx="21" cy="21" r="19" stroke="white" stroke-opacity="0.52" stroke-width="4"/>
<path d="M12.743 12.816C12.7616 12.5903 12.8664 12.3805 13.0357 12.2301C13.205 12.0798 13.4258 12.0005 13.6521 12.0087C13.8784 12.017 14.0928 12.1121 14.2507 12.2744C14.4086 12.4367 14.4979 12.6536 14.5 12.88V17.374C14.5 17.5398 14.5658 17.6987 14.6831 17.8159C14.8003 17.9332 14.9592 17.999 15.125 17.999C15.2908 17.999 15.4497 17.9332 15.5669 17.8159C15.6842 17.6987 15.75 17.5398 15.75 17.374V12.75C15.75 12.5511 15.829 12.3603 15.9697 12.2197C16.1103 12.079 16.3011 12 16.5 12C16.6989 12 16.8897 12.079 17.0303 12.2197C17.171 12.3603 17.25 12.5511 17.25 12.75V17.374C17.25 17.5398 17.3158 17.6987 17.4331 17.8159C17.5503 17.9332 17.7092 17.999 17.875 17.999C18.0408 17.999 18.1997 17.9332 18.3169 17.8159C18.4342 17.6987 18.5 17.5398 18.5 17.374V12.88C18.5021 12.6536 18.5914 12.4367 18.7493 12.2744C18.9072 12.1121 19.1216 12.017 19.3479 12.0087C19.5742 12.0005 19.795 12.0798 19.9643 12.2301C20.1336 12.3805 20.2384 12.5903 20.257 12.816C20.3 13.428 20.5 16.37 20.5 18C20.5 19.35 19.83 20.544 18.808 21.267C18.592 21.42 18.54 21.582 18.545 21.664C18.668 23.542 19 28.682 19 29.497C19 30.16 18.7366 30.7959 18.2678 31.2648C17.7989 31.7336 17.163 31.997 16.5 31.997C15.837 31.997 15.2011 31.7336 14.7322 31.2648C14.2634 30.7959 14 30.16 14 29.497C14 28.681 14.332 23.542 14.455 21.664C14.46 21.582 14.408 21.42 14.192 21.267C13.6691 20.8976 13.2425 20.4081 12.9481 19.8396C12.6537 19.2711 12.5 18.6402 12.5 18C12.5 16.37 12.7 13.428 12.743 12.816ZM22 17.75C22 16.225 22.6058 14.7625 23.6841 13.6841C24.7625 12.6058 26.225 12 27.75 12C27.9489 12 28.1397 12.079 28.2803 12.2197C28.421 12.3603 28.5 12.5511 28.5 12.75V21.25C28.5 21.568 28.606 23.145 28.725 24.892L28.73 24.975C28.86 26.883 29 28.958 29 29.497C29 30.16 28.7366 30.7959 28.2678 31.2648C27.7989 31.7336 27.163 31.997 26.5 31.997C25.837 31.997 25.2011 31.7336 24.7322 31.2648C24.2634 30.7959 24 30.16 24 29.497C24 28.983 24.128 26.886 24.252 24.963C24.314 23.992 24.377 23.051 24.424 22.353L24.447 22H23.75C23.5202 22 23.2926 21.9547 23.0803 21.8668C22.868 21.7788 22.6751 21.6499 22.5126 21.4874C22.3501 21.3249 22.2212 21.132 22.1332 20.9197C22.0453 20.7074 22 20.4798 22 20.25V17.75Z" fill="white"/>
</svg>
