<svg width="48" height="52" viewBox="0 0 48 52" fill="none" xmlns="http://www.w3.org/2000/svg">
<path d="M23.9725 51.0161L7.26399 31.7972L40.4694 31.7972L23.9725 51.0161Z" fill="#FFAFAF"/>
<path d="M15.0776 0C18.9612 0 22.3147 2.32757 24 5.72257C25.6853 2.32757 29.0388 5 32.9224 5C38.4894 5 43 9.75999 43 15.6575C43 21.555 40.074 26.5599 35.0865 31.3549C30.4106 35.8524 24 40 24 40C24 40 11.5894 35.8524 6.91351 31.3549C1.92601 26.5599 0 19.555 0 13.6575C0.5 7.51611 6 -9.85048e-10 15.0776 0Z" fill="#FFAFAF"/>
<path d="M24 5.72257C25.6853 2.32757 29.0388 5 32.9224 5C38.4894 5 43 9.75999 43 15.6575C43 21.555 40.074 26.5599 35.0865 31.3549C30.4106 35.8524 24 40 24 40C24 40 36.4106 35.8524 41.0865 31.3549C46.074 26.56 48 19.555 48 13.6575C47.5 7.51611 42 0 32.9224 0C29.0388 0 25.6853 2.32757 24 5.72257Z" fill="#FFAFAF"/>
<path d="M15.0776 5C18.9612 5 22.3147 7.32757 24 10.7226C25.6853 7.32757 29.0388 5 32.9224 5C38.4894 5 43 9.75999 43 15.6575C43 21.555 40.074 26.56 35.0865 31.3549C31.5801 34.7275 27.0984 37.9033 25.0757 39.281C24.4249 39.7243 23.5751 39.7243 22.9243 39.281C20.9016 37.9033 16.4199 34.7275 12.9135 31.3549C7.92601 26.56 5 21.555 5 15.6575C5 9.75999 9.5106 5 15.0776 5Z" fill="#FF5959"/>
<path fill-rule="evenodd" clip-rule="evenodd" d="M17.0425 13.4583C17.037 13.3929 17.0186 13.3292 16.9884 13.2708C16.9583 13.2125 16.9169 13.1607 16.8667 13.1183C16.8165 13.076 16.7585 13.044 16.6959 13.024C16.6333 13.0041 16.5674 12.9967 16.502 13.0023L15.5055 13.0873C15.3735 13.0985 15.2513 13.1617 15.1657 13.2629C15.0802 13.3642 15.0384 13.4952 15.0495 13.6273L15.214 15.5618C15.1421 15.612 15.0846 15.6801 15.0474 15.7595C15.0101 15.8389 14.9944 15.9267 15.0018 16.0141C15.0092 16.1015 15.0394 16.1854 15.0895 16.2574C15.1396 16.3294 15.2077 16.3869 15.287 16.4243L15.462 18.4853C15.4676 18.5508 15.4859 18.6145 15.5161 18.6729C15.5463 18.7312 15.5877 18.7831 15.638 18.8254C15.6882 18.8678 15.7463 18.8998 15.809 18.9197C15.8716 18.9396 15.9375 18.9469 16.003 18.9413L16.9995 18.8563C17.1315 18.845 17.2536 18.7817 17.339 18.6805C17.4244 18.5793 17.4661 18.4483 17.455 18.3163L17.2705 16.1433C17.5252 16.0976 17.7757 16.0543 18.022 16.0133C18.075 16.8383 18.227 18.2378 18.5085 19.5558C18.688 20.3958 18.934 21.2728 19.276 21.9628C19.446 22.3068 19.667 22.6588 19.9595 22.9368C20.2185 23.1828 20.568 23.4003 21 23.4573V25.6233L20.8375 25.5648L20.726 25.5248C20.2235 25.3448 19.7125 25.1618 19.323 25.0633C19.1335 25.0153 18.847 24.9528 18.566 24.9778C18.3261 24.996 18.0972 25.0859 17.909 25.2358C17.7803 25.3406 17.6768 25.473 17.606 25.6231C17.5352 25.7732 17.499 25.9373 17.5 26.1033C17.5 26.5148 17.6405 27.5733 17.76 28.4188C17.8337 28.9407 17.9104 29.4622 17.99 29.9833L18.006 30.0878L18.0105 30.1153L18.0115 30.1223V30.1248L19 29.9718L18.012 30.1253C18.0499 30.368 18.1757 30.5883 18.3656 30.7442C18.5555 30.9001 18.7961 30.9806 19.0416 30.9704C19.287 30.9602 19.5202 30.86 19.6965 30.6889C19.8728 30.5178 19.9799 30.2878 19.9975 30.0428L20.1825 27.4548C20.7375 27.6538 21.3865 27.8833 22.0265 28.0633C22.663 28.2423 23.3615 28.3933 24 28.3933C24.6385 28.3933 25.337 28.2423 25.974 28.0633C26.609 27.8848 27.2515 27.6573 27.804 27.4598L28.003 30.0483C28.022 30.2927 28.1301 30.5216 28.3067 30.6915C28.4834 30.8615 28.7163 30.9606 28.9612 30.9701C29.2062 30.9796 29.4461 30.8988 29.6354 30.7431C29.8247 30.5873 29.9502 30.3675 29.988 30.1253L29 29.9718L29.9885 30.1248V30.1218L29.99 30.1148L29.994 30.0873L30.01 29.9823C30.0896 29.4614 30.1663 28.94 30.24 28.4183C30.36 27.5728 30.5 26.5143 30.5 26.1033C30.5 25.8083 30.385 25.4743 30.0915 25.2353C29.9032 25.0853 29.6741 24.9954 29.434 24.9773C29.153 24.9523 28.8665 25.0148 28.6775 25.0623C28.2875 25.1613 27.777 25.3443 27.2745 25.5243L27.163 25.5643L27 25.6228V23.4593C27.945 23.3538 28.5175 22.5878 28.8335 21.9783C29.199 21.2723 29.438 20.3798 29.6 19.5353C29.854 18.2158 29.9545 16.8303 29.987 16.0193C30.2303 16.0593 30.4778 16.1016 30.7295 16.1463L30.545 18.3158C30.5339 18.4479 30.5757 18.5789 30.6612 18.6802C30.7468 18.7814 30.869 18.8446 31.001 18.8558L31.9975 18.9408C32.1296 18.9519 32.2606 18.9101 32.3619 18.8246C32.4631 18.7391 32.5263 18.6168 32.5375 18.4848L32.713 16.4238C32.7926 16.3867 32.861 16.3292 32.9112 16.2572C32.9615 16.1852 32.9918 16.1012 32.9992 16.0137C33.0066 15.9262 32.9908 15.8383 32.9534 15.7588C32.9159 15.6794 32.8582 15.6113 32.786 15.5613L32.951 13.6268C32.9621 13.4946 32.9202 13.3635 32.8346 13.2622C32.749 13.161 32.6267 13.0979 32.4945 13.0868L31.4985 13.0018C31.4331 12.9962 31.3672 13.0036 31.3046 13.0235C31.242 13.0435 31.184 13.0755 31.1338 13.1178C31.0836 13.1602 31.0423 13.212 31.0121 13.2703C30.9819 13.3287 30.9636 13.3924 30.958 13.4578L30.8145 15.1458C30.5021 15.0908 30.1893 15.0383 29.876 14.9883C29.8013 14.8528 29.6961 14.7364 29.5688 14.6484C29.4414 14.5605 29.2954 14.5032 29.1422 14.4813C28.989 14.4593 28.8328 14.4732 28.6858 14.5219C28.5389 14.5706 28.4053 14.6527 28.2955 14.7618C25.257 14.3783 22.6845 14.3788 19.6995 14.7568C19.5897 14.6494 19.4567 14.5687 19.3106 14.521C19.1646 14.4733 19.0096 14.4599 18.8576 14.4818C18.7055 14.5037 18.5606 14.5604 18.434 14.6473C18.3074 14.7343 18.2025 14.8492 18.1275 14.9833C17.8192 15.0323 17.5052 15.0853 17.1855 15.1423L17.0425 13.4583ZM20.464 19.1383C20.2314 18.013 20.079 16.8727 20.008 15.7258C22.7735 15.3893 25.181 15.3893 27.9955 15.7328C27.977 16.3988 27.8915 17.8298 27.636 19.1578C27.486 19.9383 27.291 20.6083 27.0575 21.0588C26.8985 21.3653 26.79 21.4513 26.7535 21.4718H21.322C21.264 21.4113 21.174 21.2888 21.068 21.0748C20.837 20.6083 20.632 19.9233 20.464 19.1383ZM26.25 18.2218C26.25 18.8185 26.013 19.3908 25.591 19.8128C25.169 20.2347 24.5967 20.4718 24 20.4718C23.4033 20.4718 22.831 20.2347 22.409 19.8128C21.9871 19.3908 21.75 18.8185 21.75 18.2218C21.75 17.6251 21.9871 17.0528 22.409 16.6308C22.831 16.2088 23.4033 15.9718 24 15.9718C24.5967 15.9718 25.169 16.2088 25.591 16.6308C26.013 17.0528 26.25 17.6251 26.25 18.2218Z" fill="white"/>
</svg>
