<svg width="48" height="53" viewBox="0 0 48 53" fill="none" xmlns="http://www.w3.org/2000/svg">
<path d="M23.9725 51.8159L7.26399 32.597L40.4694 32.597L23.9725 51.8159Z" fill="#BCDDB9"/>
<path d="M15.0776 0.799805C18.9612 0.799805 22.3147 3.12738 24 6.52237C25.6853 3.12738 29.0388 5.7998 32.9224 5.7998C38.4894 5.7998 43 10.5598 43 16.4573C43 22.3548 40.074 27.3598 35.0865 32.1547C30.4106 36.6522 24 40.7998 24 40.7998C24 40.7998 11.5894 36.6522 6.91351 32.1547C1.92601 27.3598 0 20.3548 0 14.4573C0.5 8.31592 6 0.799805 15.0776 0.799805Z" fill="#BCDDB9"/>
<path d="M24 6.52237C25.6853 3.12738 29.0388 5.7998 32.9224 5.7998C38.4894 5.7998 43 10.5598 43 16.4573C43 22.3548 40.074 27.3598 35.0865 32.1547C30.4106 36.6522 24 40.7998 24 40.7998C24 40.7998 36.4106 36.6522 41.0865 32.1547C46.074 27.3598 48 20.3548 48 14.4573C47.5 8.31592 42 0.799805 32.9224 0.799805C29.0388 0.799805 25.6853 3.12738 24 6.52237Z" fill="#BCDDB9"/>
<path d="M15.0776 5.7998C18.9612 5.7998 22.3147 8.12738 24 11.5224C25.6853 8.12738 29.0388 5.7998 32.9224 5.7998C38.4894 5.7998 43 10.5598 43 16.4573C43 22.3548 40.074 27.3598 35.0865 32.1547C31.5801 35.5273 27.0984 38.7031 25.0757 40.0808C24.4249 40.5241 23.5751 40.5241 22.9243 40.0808C20.9016 38.7031 16.4199 35.5273 12.9135 32.1547C7.92601 27.3598 5 22.3548 5 16.4573C5 10.5598 9.5106 5.7998 15.0776 5.7998Z" fill="#74B96D"/>
<path d="M15.743 13.816C15.7616 13.5903 15.8664 13.3805 16.0357 13.2301C16.205 13.0798 16.4258 13.0005 16.6521 13.0087C16.8784 13.017 17.0928 13.1121 17.2507 13.2744C17.4086 13.4367 17.4979 13.6536 17.5 13.88V18.374C17.5 18.5398 17.5658 18.6987 17.6831 18.8159C17.8003 18.9332 17.9592 18.999 18.125 18.999C18.2908 18.999 18.4497 18.9332 18.5669 18.8159C18.6842 18.6987 18.75 18.5398 18.75 18.374V13.75C18.75 13.5511 18.829 13.3603 18.9697 13.2197C19.1103 13.079 19.3011 13 19.5 13C19.6989 13 19.8897 13.079 20.0303 13.2197C20.171 13.3603 20.25 13.5511 20.25 13.75V18.374C20.25 18.5398 20.3158 18.6987 20.4331 18.8159C20.5503 18.9332 20.7092 18.999 20.875 18.999C21.0408 18.999 21.1997 18.9332 21.3169 18.8159C21.4342 18.6987 21.5 18.5398 21.5 18.374V13.88C21.5021 13.6536 21.5914 13.4367 21.7493 13.2744C21.9072 13.1121 22.1216 13.017 22.3479 13.0087C22.5742 13.0005 22.795 13.0798 22.9643 13.2301C23.1336 13.3805 23.2384 13.5903 23.257 13.816C23.3 14.428 23.5 17.37 23.5 19C23.5 20.35 22.83 21.544 21.808 22.267C21.592 22.42 21.54 22.582 21.545 22.664C21.668 24.542 22 29.682 22 30.497C22 31.16 21.7366 31.7959 21.2678 32.2648C20.7989 32.7336 20.163 32.997 19.5 32.997C18.837 32.997 18.2011 32.7336 17.7322 32.2648C17.2634 31.7959 17 31.16 17 30.497C17 29.681 17.332 24.542 17.455 22.664C17.46 22.582 17.408 22.42 17.192 22.267C16.6691 21.8976 16.2425 21.4081 15.9481 20.8396C15.6537 20.2711 15.5 19.6402 15.5 19C15.5 17.37 15.7 14.428 15.743 13.816ZM25 18.75C25 17.225 25.6058 15.7625 26.6841 14.6841C27.7625 13.6058 29.225 13 30.75 13C30.9489 13 31.1397 13.079 31.2803 13.2197C31.421 13.3603 31.5 13.5511 31.5 13.75V22.25C31.5 22.568 31.606 24.145 31.725 25.892L31.73 25.975C31.86 27.883 32 29.958 32 30.497C32 31.16 31.7366 31.7959 31.2678 32.2648C30.7989 32.7336 30.163 32.997 29.5 32.997C28.837 32.997 28.2011 32.7336 27.7322 32.2648C27.2634 31.7959 27 31.16 27 30.497C27 29.983 27.128 27.886 27.252 25.963C27.314 24.992 27.377 24.051 27.424 23.353L27.447 23H26.75C26.5202 23 26.2926 22.9547 26.0803 22.8668C25.868 22.7788 25.6751 22.6499 25.5126 22.4874C25.3501 22.3249 25.2212 22.132 25.1332 21.9197C25.0453 21.7074 25 21.4798 25 21.25V18.75Z" fill="white"/>
</svg>
