<svg width="42" height="52" viewBox="0 0 42 52" fill="none" xmlns="http://www.w3.org/2000/svg">
<path d="M20.7009 51.4652L4.08682 32.354L38.2107 33.1711L20.7009 51.4652Z" fill="#FFD886"/>
<circle cx="21" cy="21" r="21" fill="#FFAE02"/>
<circle cx="21" cy="21" r="19" stroke="white" stroke-opacity="0.52" stroke-width="4"/>
<path d="M28.8 14C26.2646 14.0109 24.3799 14.36 23.016 14.9634C21.9983 15.4134 21.6 15.7539 21.6 16.9074V29C23.1589 27.5938 24.5423 27.2 30 27.2V14H28.8ZM13.2 14C15.7354 14.0109 17.6201 14.36 18.984 14.9634C20.0018 15.4134 20.4 15.7539 20.4 16.9074V29C18.8411 27.5938 17.4577 27.2 12 27.2V14H13.2Z" fill="white"/>
</svg>
