<svg width="42" height="52" viewBox="0 0 42 52" fill="none" xmlns="http://www.w3.org/2000/svg">
<path d="M20.7009 51.4652L4.08682 32.354L38.2107 33.1711L20.7009 51.4652Z" fill="#FFD886"/>
<circle cx="21" cy="21" r="21" fill="#FFAE02"/>
<circle cx="21" cy="21" r="19" stroke="white" stroke-opacity="0.52" stroke-width="4"/>
<path fill-rule="evenodd" clip-rule="evenodd" d="M14.0425 12.4866C14.037 12.4212 14.0186 12.3575 13.9884 12.2991C13.9583 12.2408 13.9169 12.189 13.8667 12.1467C13.8165 12.1043 13.7585 12.0723 13.6959 12.0524C13.6333 12.0324 13.5674 12.0251 13.502 12.0306L12.5055 12.1156C12.3735 12.1268 12.2513 12.19 12.1657 12.2912C12.0802 12.3925 12.0384 12.5235 12.0495 12.6556L12.214 14.5901C12.1421 14.6403 12.0846 14.7085 12.0474 14.7879C12.0101 14.8672 11.9944 14.955 12.0018 15.0424C12.0092 15.1298 12.0394 15.2137 12.0895 15.2857C12.1396 15.3577 12.2077 15.4153 12.287 15.4526L12.462 17.5136C12.4676 17.5791 12.4859 17.6428 12.5161 17.7012C12.5463 17.7596 12.5877 17.8114 12.638 17.8538C12.6882 17.8961 12.7463 17.9281 12.809 17.948C12.8716 17.9679 12.9375 17.9752 13.003 17.9696L13.9995 17.8846C14.1315 17.8733 14.2536 17.8101 14.339 17.7088C14.4244 17.6076 14.4661 17.4766 14.455 17.3446L14.2705 15.1716C14.5252 15.1259 14.7757 15.0826 15.022 15.0416C15.075 15.8666 15.227 17.2661 15.5085 18.5841C15.688 19.4241 15.934 20.3011 16.276 20.9911C16.446 21.3351 16.667 21.6871 16.9595 21.9651C17.2185 22.2111 17.568 22.4286 18 22.4856V24.6516L17.8375 24.5931L17.726 24.5531C17.2235 24.3731 16.7125 24.1901 16.323 24.0916C16.1335 24.0436 15.847 23.9811 15.566 24.0061C15.3261 24.0243 15.0972 24.1142 14.909 24.2641C14.7803 24.3689 14.6768 24.5013 14.606 24.6514C14.5352 24.8015 14.499 24.9656 14.5 25.1316C14.5 25.5431 14.6405 26.6016 14.76 27.4471C14.8337 27.969 14.9104 28.4906 14.99 29.0116L15.006 29.1161L15.0105 29.1436L15.0115 29.1506V29.1531L16 29.0001L15.012 29.1536C15.0499 29.3963 15.1757 29.6167 15.3656 29.7725C15.5555 29.9284 15.7961 30.0089 16.0416 29.9987C16.287 29.9885 16.5202 29.8883 16.6965 29.7172C16.8728 29.5461 16.9799 29.3161 16.9975 29.0711L17.1825 26.4831C17.7375 26.6821 18.3865 26.9116 19.0265 27.0916C19.663 27.2706 20.3615 27.4216 21 27.4216C21.6385 27.4216 22.337 27.2706 22.974 27.0916C23.609 26.9131 24.2515 26.6856 24.804 26.4881L25.003 29.0766C25.022 29.321 25.1301 29.5499 25.3067 29.7198C25.4834 29.8898 25.7163 29.9889 25.9612 29.9984C26.2062 30.0079 26.4461 29.9271 26.6354 29.7714C26.8247 29.6156 26.9502 29.3958 26.988 29.1536L26 29.0001L26.9885 29.1531V29.1501L26.99 29.1431L26.994 29.1156L27.01 29.0106C27.0896 28.4897 27.1663 27.9684 27.24 27.4466C27.36 26.6011 27.5 25.5426 27.5 25.1316C27.5 24.8366 27.385 24.5026 27.0915 24.2636C26.9032 24.1136 26.6741 24.0237 26.434 24.0056C26.153 23.9806 25.8665 24.0431 25.6775 24.0906C25.2875 24.1896 24.777 24.3726 24.2745 24.5526L24.163 24.5926L24 24.6511V22.4876C24.945 22.3821 25.5175 21.6161 25.8335 21.0066C26.199 20.3006 26.438 19.4081 26.6 18.5636C26.854 17.2441 26.9545 15.8586 26.987 15.0476C27.2303 15.0876 27.4778 15.1299 27.7295 15.1746L27.545 17.3441C27.5339 17.4762 27.5757 17.6072 27.6612 17.7085C27.7468 17.8097 27.869 17.8729 28.001 17.8841L28.9975 17.9691C29.1296 17.9802 29.2606 17.9384 29.3619 17.8529C29.4631 17.7674 29.5263 17.6452 29.5375 17.5131L29.713 15.4521C29.7926 15.415 29.861 15.3575 29.9112 15.2855C29.9615 15.2135 29.9918 15.1295 29.9992 15.042C30.0066 14.9545 29.9908 14.8666 29.9534 14.7872C29.9159 14.7077 29.8582 14.6396 29.786 14.5896L29.951 12.6551C29.9621 12.523 29.9202 12.3918 29.8346 12.2906C29.749 12.1893 29.6267 12.1262 29.4945 12.1151L28.4985 12.0301C28.4331 12.0246 28.3672 12.0319 28.3046 12.0519C28.242 12.0718 28.184 12.1038 28.1338 12.1462C28.0836 12.1885 28.0423 12.2403 28.0121 12.2986C27.9819 12.357 27.9636 12.4207 27.958 12.4861L27.8145 14.1741C27.5021 14.1192 27.1893 14.0667 26.876 14.0166C26.8013 13.8811 26.6961 13.7647 26.5688 13.6768C26.4414 13.5888 26.2954 13.5316 26.1422 13.5096C25.989 13.4877 25.8328 13.5016 25.6858 13.5502C25.5389 13.5989 25.4053 13.681 25.2955 13.7901C22.257 13.4066 19.6845 13.4071 16.6995 13.7851C16.5897 13.6777 16.4567 13.597 16.3106 13.5493C16.1646 13.5016 16.0096 13.4882 15.8576 13.5101C15.7055 13.532 15.5606 13.5887 15.434 13.6756C15.3074 13.7626 15.2025 13.8776 15.1275 14.0116C14.8192 14.0606 14.5052 14.1136 14.1855 14.1706L14.0425 12.4866ZM17.464 18.1666C17.2314 17.0414 17.079 15.901 17.008 14.7541C19.7735 14.4176 22.181 14.4176 24.9955 14.7611C24.977 15.4271 24.8915 16.8581 24.636 18.1861C24.486 18.9666 24.291 19.6366 24.0575 20.0871C23.8985 20.3936 23.79 20.4796 23.7535 20.5001H18.322C18.264 20.4396 18.174 20.3171 18.068 20.1031C17.837 19.6366 17.632 18.9516 17.464 18.1666ZM23.25 17.2501C23.25 17.8468 23.013 18.4191 22.591 18.8411C22.169 19.2631 21.5967 19.5001 21 19.5001C20.4033 19.5001 19.831 19.2631 19.409 18.8411C18.9871 18.4191 18.75 17.8468 18.75 17.2501C18.75 16.6534 18.9871 16.0811 19.409 15.6591C19.831 15.2372 20.4033 15.0001 21 15.0001C21.5967 15.0001 22.169 15.2372 22.591 15.6591C23.013 16.0811 23.25 16.6534 23.25 17.2501Z" fill="white"/>
</svg>
