<svg width="14" height="14" viewBox="0 0 14 14" fill="none" xmlns="http://www.w3.org/2000/svg">
<path fill-rule="evenodd" clip-rule="evenodd" d="M0.832031 1.9967e-07C0.633119 1.9967e-07 0.442353 0.0790178 0.301701 0.21967C0.161049 0.360322 0.0820313 0.551088 0.0820312 0.75C0.0820313 0.948913 0.161049 1.13968 0.301701 1.28033C0.442353 1.42098 0.633119 1.5 0.832031 1.5H2.59003L3.52603 6.188C2.83056 6.25953 2.16788 6.51987 1.60969 6.94085C1.0515 7.36183 0.619043 7.92743 0.359111 8.57645C0.0991789 9.22548 0.0216641 9.93323 0.134952 10.6231C0.24824 11.313 0.548018 11.9588 1.00186 12.4907C1.45569 13.0225 2.04631 13.4201 2.70982 13.6404C3.37332 13.8608 4.08446 13.8956 4.76628 13.7409C5.44811 13.5863 6.07468 13.2482 6.5782 12.7631C7.08172 12.2781 7.44303 11.6646 7.62303 10.989H10.376C10.1765 11.3351 10.0912 11.7353 10.1324 12.1327C10.1735 12.5301 10.3391 12.9043 10.6053 13.2021C10.8716 13.5 11.2251 13.7062 11.6154 13.7914C12.0057 13.8766 12.4129 13.8365 12.7791 13.6768C13.1453 13.5171 13.4517 13.2459 13.6548 12.9019C13.8579 12.5578 13.9472 12.1585 13.9101 11.7607C13.8729 11.3629 13.7112 10.987 13.448 10.6865C13.1848 10.386 12.8334 10.1762 12.444 10.087L12.432 10.042L12.427 10.027L11.32 5.967C11.2072 5.3526 10.8809 4.79783 10.3987 4.40061C9.91662 4.00339 9.30968 3.78925 8.68503 3.796H4.57703L3.94003 0.603C3.90603 0.432874 3.81409 0.279799 3.67989 0.169848C3.54569 0.0598979 3.37752 -0.000126342 3.20403 1.9967e-07H0.832031ZM10.725 9.49H7.71603C7.67626 9.19114 7.60107 8.89808 7.49203 8.617H10.487L10.725 9.49ZM10.078 7.117H6.44103C6.04715 6.77055 5.5858 6.5094 5.08603 6.35L5.07903 6.306L4.87703 5.296H8.69903C8.97317 5.29263 9.23948 5.38731 9.44998 5.56296C9.66047 5.73862 9.80128 5.98369 9.84703 6.254L9.86303 6.328L10.078 7.117Z" fill="#3B2DFF"/>
</svg>
