<svg width="15" height="13" viewBox="0 0 15 13" fill="none" xmlns="http://www.w3.org/2000/svg">
<path d="M11.6318 13H12.7636C13.3364 13 13.8068 12.6159 13.875 12.1314L15 2.39318H11.5909V0H10.2477V2.39318H6.85909L7.06364 3.77591C8.22955 4.05364 9.32045 4.55591 9.975 5.11136C10.9568 5.95045 11.6318 6.81909 11.6318 8.23727V13ZM0 12.4091V11.8182H10.2477V12.4091C10.2477 12.7282 9.94091 13 9.54545 13H0.681818C0.306818 13 0 12.7282 0 12.4091ZM10.2477 8.27273C10.2477 3.54545 0 3.54545 0 8.27273H10.2477ZM0 9.45455H10.2273V10.6364H0V9.45455Z" fill="#3B2DFF"/>
</svg>
