<svg width="17" height="13" viewBox="0 0 17 13" fill="none" xmlns="http://www.w3.org/2000/svg">
<path d="M1.11255 5.16921C1.25839 5.31505 1.47338 5.30751 1.61168 5.16167C3.42466 3.23367 5.82098 2.21968 8.50178 2.21968C11.1976 2.21968 13.6018 3.2412 15.407 5.16921C15.5374 5.29997 15.7452 5.29997 15.8831 5.15381L16.905 4.13229C17.0276 4.00185 17.0276 3.83275 16.9279 3.70985C15.192 1.57439 11.9275 0 8.50178 0C5.07606 0 1.81159 1.57439 0.0753042 3.70985C-0.0321897 3.83275 -0.024652 4.00153 0.098245 4.13262L1.11255 5.16921ZM4.18498 8.2495C4.33868 8.41074 4.53827 8.39534 4.68411 8.22656C5.57519 7.23552 7.01915 6.52108 8.50178 6.53648C9.99948 6.52108 11.4359 7.25846 12.3345 8.2495C12.4804 8.40288 12.6724 8.40288 12.8186 8.24164L13.963 7.11262C14.0859 6.98973 14.1013 6.82849 13.9859 6.69772C12.8723 5.32291 10.806 4.30893 8.50178 4.30893C6.19754 4.30893 4.13123 5.33045 3.01729 6.69805C2.90226 6.82848 2.91767 6.98186 3.04024 7.11262L4.18498 8.2495ZM8.50178 12.2818C8.66302 12.2818 8.80886 12.1973 9.09299 11.921L10.8906 10.1926C11.0056 10.0851 11.0289 9.91631 10.9289 9.78555C10.4449 9.16353 9.5387 8.62573 8.50178 8.62573C7.44159 8.62573 6.52002 9.18647 6.04384 9.83176C5.97469 9.93925 5.99796 10.0851 6.11266 10.1926L7.91023 11.921C8.19437 12.1973 8.34054 12.2818 8.50178 12.2818Z" fill="#3B2DFF"/>
</svg>
