<svg width="17" height="12" viewBox="0 0 17 12" fill="none" xmlns="http://www.w3.org/2000/svg">
<path d="M11.9 0C10.9395 0 10.0045 0.2975 9.214 0.85H1.7C0.7565 0.85 0 1.6065 0 2.55V7.65C0 8.5935 0.7565 9.35 1.7 9.35H2.55V10.2C2.55 10.4254 2.63955 10.6416 2.79896 10.801C2.95837 10.9604 3.17457 11.05 3.4 11.05H5.1C5.32543 11.05 5.54164 10.9604 5.70104 10.801C5.86045 10.6416 5.95 10.4254 5.95 10.2V9.35H11.05V10.2C11.05 10.4254 11.1396 10.6416 11.299 10.801C11.4584 10.9604 11.6746 11.05 11.9 11.05H13.6C13.8254 11.05 14.0416 10.9604 14.201 10.801C14.3604 10.6416 14.45 10.4254 14.45 10.2V9.35H15.3C16.2435 9.35 17 8.5935 17 7.65V2.55C17 1.6065 16.2435 0.85 15.3 0.85H14.5775C13.7955 0.2975 12.8605 0 11.9 0ZM11.9 1.275C12.2907 1.275 12.6775 1.35195 13.0385 1.50146C13.3994 1.65097 13.7274 1.8701 14.0036 2.14636C14.2799 2.42261 14.499 2.75057 14.6485 3.11152C14.798 3.47246 14.875 3.85932 14.875 4.25C14.875 5.03902 14.5616 5.79572 14.0036 6.35364C13.4457 6.91156 12.689 7.225 11.9 7.225C11.111 7.225 10.3543 6.91156 9.79636 6.35364C9.23844 5.79572 8.925 5.03902 8.925 4.25C8.925 3.46098 9.23844 2.70428 9.79636 2.14636C10.3543 1.58844 11.111 1.275 11.9 1.275ZM1.7 2.55H5.1V3.4H1.7V2.55ZM11.9 2.55C11.4491 2.55 11.0167 2.72911 10.6979 3.04792C10.3791 3.36673 10.2 3.79913 10.2 4.25C10.2 4.70087 10.3791 5.13327 10.6979 5.45208C11.0167 5.77089 11.4491 5.95 11.9 5.95C12.3509 5.95 12.7833 5.77089 13.1021 5.45208C13.4209 5.13327 13.6 4.70087 13.6 4.25C13.6 3.79913 13.4209 3.36673 13.1021 3.04792C12.7833 2.72911 12.3509 2.55 11.9 2.55ZM1.7 4.25H5.1V5.1H1.7V4.25ZM1.7 5.95H5.1V6.8H1.7V5.95Z" fill="#3B2DFF"/>
</svg>
