<svg width="15" height="13" viewBox="0 0 15 13" fill="none" xmlns="http://www.w3.org/2000/svg">
<path d="M7.4375 0C7.15872 -4.15414e-09 6.88267 0.0549097 6.62511 0.161594C6.36755 0.268279 6.13353 0.424648 5.9364 0.621776C5.73927 0.818903 5.5829 1.05293 5.47622 1.31049C5.36953 1.56804 5.31462 1.84409 5.31462 2.12287C5.31462 2.40165 5.36953 2.67771 5.47622 2.93526C5.5829 3.19282 5.73927 3.42685 5.9364 3.62397C6.13353 3.8211 6.36755 3.97747 6.62511 4.08416C6.88267 4.19084 7.15872 4.24575 7.4375 4.24575C8.00052 4.24575 8.54048 4.02209 8.9386 3.62397C9.33671 3.22586 9.56038 2.6859 9.56038 2.12287C9.56038 1.55985 9.33671 1.01989 8.9386 0.621776C8.54048 0.223659 8.00052 0 7.4375 0ZM12.2188 1.06037C11.7961 1.06037 11.3907 1.22829 11.0918 1.52717C10.7929 1.82606 10.625 2.23144 10.625 2.65412C10.625 3.07681 10.7929 3.48219 11.0918 3.78108C11.3907 4.07996 11.7961 4.24787 12.2188 4.24787C12.6414 4.24787 13.0468 4.07996 13.3457 3.78108C13.6446 3.48219 13.8125 3.07681 13.8125 2.65412C13.8125 2.23144 13.6446 1.82606 13.3457 1.52717C13.0468 1.22829 12.6414 1.06037 12.2188 1.06037ZM2.65625 1.06037C2.23356 1.06037 1.82818 1.22829 1.5293 1.52717C1.23041 1.82606 1.0625 2.23144 1.0625 2.65412C1.0625 3.07681 1.23041 3.48219 1.5293 3.78108C1.82818 4.07996 2.23356 4.24787 2.65625 4.24787C3.07894 4.24787 3.48432 4.07996 3.7832 3.78108C4.08209 3.48219 4.25 3.07681 4.25 2.65412C4.25 2.23144 4.08209 1.82606 3.7832 1.52717C3.48432 1.22829 3.07894 1.06037 2.65625 1.06037ZM4.25 6.36544C4.25196 6.08494 4.36477 5.81659 4.56382 5.61894C4.76286 5.42129 5.03199 5.31037 5.3125 5.31038H9.5625C9.84429 5.31038 10.1145 5.42232 10.3138 5.62157C10.5131 5.82083 10.625 6.09108 10.625 6.37288V9.56038C10.6253 9.89479 10.5729 10.2272 10.4699 10.5453C10.2346 11.2664 9.74997 11.8801 9.10298 12.276C8.456 12.672 7.68905 12.8243 6.93985 12.7057C6.19066 12.587 5.5083 12.2052 5.0153 11.6287C4.5223 11.0522 4.25096 10.3189 4.25 9.56038V6.36544ZM3.1875 6.37288C3.1875 5.98506 3.29056 5.62275 3.47225 5.31038H1.0625C0.780708 5.31038 0.510457 5.42232 0.311199 5.62157C0.111942 5.82083 1.47064e-07 6.09108 1.47064e-07 6.37288V9.02913C-0.000144551 9.46401 0.10649 9.89228 0.31054 10.2763C0.51459 10.6604 0.809813 10.9884 1.17028 11.2317C1.53075 11.475 1.94544 11.6261 2.37794 11.6716C2.81043 11.7172 3.24749 11.6559 3.65075 11.4931C3.34559 10.8942 3.18683 10.2315 3.1875 9.55931V6.37288ZM11.6875 6.37288V9.56038C11.6875 10.2563 11.5207 10.9129 11.2242 11.4931C11.6275 11.6559 12.0646 11.7172 12.4971 11.6716C12.9296 11.6261 13.3442 11.475 13.7047 11.2317C14.0652 10.9884 14.3604 10.6604 14.5645 10.2763C14.7685 9.89228 14.8751 9.46401 14.875 9.02913V6.37288C14.875 6.09108 14.7631 5.82083 14.5638 5.62157C14.3645 5.42232 14.0943 5.31038 13.8125 5.31038H11.4028C11.5834 5.62275 11.6875 5.98506 11.6875 6.37288Z" fill="#3B2DFF"/>
</svg>
