<svg width="14" height="17" viewBox="0 0 14 17" fill="none" xmlns="http://www.w3.org/2000/svg">
<path d="M3.62963 5.71803C3.62963 5.50586 3.70767 5.30237 3.84659 5.15234C3.9855 5.00232 4.17391 4.91803 4.37037 4.91803C4.56683 4.91803 4.75524 5.00232 4.89415 5.15234C5.03307 5.30237 5.11111 5.50586 5.11111 5.71803V9.29403L6.00741 9.39803L9.66667 11.15C10.0519 11.342 10.2963 11.766 10.2963 12.23V15.718C10.2741 16.374 9.79259 16.894 9.18519 16.918H4.37037C4.08889 16.918 3.82222 16.798 3.62963 16.574L0 13.214L0.548148 12.598C0.688889 12.43 0.888889 12.342 1.0963 12.342H1.25926L3.62963 13.718V5.71803ZM12.8889 0.91803C12.5942 0.91803 12.3116 1.04446 12.1032 1.2695C11.8948 1.49455 11.7778 1.79977 11.7778 2.11803C11.7778 2.43629 11.8948 2.74151 12.1032 2.96656C12.3116 3.1916 12.5942 3.31803 12.8889 3.31803C13.1836 3.31803 13.4662 3.1916 13.6746 2.96656C13.8829 2.74151 14 2.43629 14 2.11803C14 1.79977 13.8829 1.49455 13.6746 1.2695C13.4662 1.04446 13.1836 0.91803 12.8889 0.91803ZM12.8889 4.91803C12.5942 4.91803 12.3116 5.04446 12.1032 5.2695C11.8948 5.49454 11.7778 5.79977 11.7778 6.11803C11.7778 6.43629 11.8948 6.74151 12.1032 6.96656C12.3116 7.1916 12.5942 7.31803 12.8889 7.31803C13.1836 7.31803 13.4662 7.1916 13.6746 6.96656C13.8829 6.74151 14 6.43629 14 6.11803C14 5.79977 13.8829 5.49454 13.6746 5.2695C13.4662 5.04446 13.1836 4.91803 12.8889 4.91803ZM9.18519 4.91803C8.8905 4.91803 8.60789 5.04446 8.39951 5.2695C8.19114 5.49454 8.07407 5.79977 8.07407 6.11803C8.07407 6.43629 8.19114 6.74151 8.39951 6.96656C8.60789 7.1916 8.8905 7.31803 9.18519 7.31803C9.47987 7.31803 9.76249 7.1916 9.97086 6.96656C10.1792 6.74151 10.2963 6.43629 10.2963 6.11803C10.2963 5.79977 10.1792 5.49454 9.97086 5.2695C9.76249 5.04446 9.47987 4.91803 9.18519 4.91803ZM12.8889 8.91803C12.5942 8.91803 12.3116 9.04446 12.1032 9.2695C11.8948 9.49454 11.7778 9.79977 11.7778 10.118C11.7778 10.4363 11.8948 10.7415 12.1032 10.9666C12.3116 11.1916 12.5942 11.318 12.8889 11.318C13.1836 11.318 13.4662 11.1916 13.6746 10.9666C13.8829 10.7415 14 10.4363 14 10.118C14 9.79977 13.8829 9.49454 13.6746 9.2695C13.4662 9.04446 13.1836 8.91803 12.8889 8.91803Z" fill="#3B2DFF"/>
</svg>
