<svg width="14" height="12" viewBox="0 0 14 12" fill="none" xmlns="http://www.w3.org/2000/svg">
<path d="M7.70001 9.47368V10.7368H10.5V12H3.50002V10.7368H6.30001V9.47368H0.694422C0.602495 9.47302 0.511614 9.45603 0.426966 9.42368C0.342319 9.39133 0.265563 9.34425 0.201081 9.28513C0.1366 9.22602 0.0856556 9.15602 0.0511578 9.07913C0.0166601 9.00225 -0.000715769 8.91999 2.25802e-05 8.83705V0.636631C2.25802e-05 0.284842 0.318522 0 0.694422 0H13.3056C13.6892 0 14 0.283579 14 0.636V8.83705C14 9.18884 13.6815 9.47368 13.3056 9.47368H7.70001Z" fill="#3B2DFF"/>
</svg>
