<svg width="15" height="15" viewBox="0 0 15 15" fill="none" xmlns="http://www.w3.org/2000/svg">
<path d="M7.08333 14.1667C10.9955 14.1667 14.1667 10.9955 14.1667 7.08333C14.1667 6.75538 13.6751 6.70083 13.5058 6.98204C13.1447 7.58012 12.6523 8.08818 12.0658 8.46775C11.4792 8.84732 10.814 9.08844 10.1205 9.17285C9.42705 9.25726 8.72343 9.18274 8.06299 8.95495C7.40255 8.72715 6.80262 8.35205 6.30862 7.85805C5.81462 7.36405 5.43952 6.76411 5.21172 6.10367C4.98392 5.44324 4.90941 4.73962 4.99382 4.04612C5.07823 3.35262 5.31935 2.68742 5.69892 2.10091C6.07849 1.5144 6.58655 1.02195 7.18463 0.660875C7.46583 0.490875 7.41129 0 7.08333 0C3.17121 0 0 3.17121 0 7.08333C0 10.9955 3.17121 14.1667 7.08333 14.1667Z" fill="#3B2DFF"/>
</svg>
