<svg width="15" height="16" viewBox="0 0 15 16" fill="none" xmlns="http://www.w3.org/2000/svg">
<path d="M11.2501 1.92295C12.3814 2.57609 13.3224 3.51334 13.98 4.64192C14.6377 5.7705 14.9892 7.05128 14.9998 8.35745C15.0103 9.66363 14.6795 10.9499 14.0402 12.089C13.4008 13.228 12.4751 14.1804 11.3546 14.8517C10.2341 15.523 8.95764 15.8901 7.65167 15.9165C6.3457 15.9429 5.05547 15.6278 3.90871 15.0024C2.76195 14.3769 1.79843 13.4628 1.11351 12.3506C0.428602 11.2383 0.0460575 9.96648 0.00375013 8.66095L0 8.41795L0.00375013 8.17495C0.045753 6.87969 0.422666 5.61742 1.09774 4.51119C1.77282 3.40497 2.72302 2.49254 3.85572 1.86286C4.98841 1.23318 6.26494 0.907747 7.56085 0.918277C8.85676 0.928808 10.1278 1.27495 11.2501 1.92295ZM10.4619 7.05595C10.4038 6.88161 10.2837 6.73467 10.1244 6.64301C9.96517 6.55134 9.77779 6.52134 9.59787 6.5587L9.51312 6.5812L7.50009 7.25245L5.48707 6.5812L5.40232 6.5587C5.22256 6.5217 5.03548 6.5519 4.87649 6.64357C4.7175 6.73524 4.59764 6.88202 4.5396 7.05613C4.48156 7.23024 4.48938 7.41958 4.56157 7.58831C4.63376 7.75704 4.76531 7.89344 4.93131 7.9717L5.01306 8.0047L6.75008 8.58295V9.31495L5.37607 11.3774L5.33107 11.4524C5.25502 11.6018 5.23121 11.7724 5.26343 11.9369C5.29565 12.1013 5.38204 12.2503 5.50882 12.3599L5.58382 12.4169L5.65957 12.4619C5.80895 12.538 5.97949 12.5618 6.14398 12.5296C6.30847 12.4974 6.45743 12.411 6.56708 12.2842L6.62408 12.2092L7.50009 10.8952L8.3761 12.2092L8.4286 12.2789C8.5476 12.4192 8.71399 12.5108 8.89614 12.5364C9.07829 12.562 9.2635 12.5198 9.41654 12.4178C9.56959 12.3157 9.67981 12.161 9.72624 11.9831C9.77267 11.8051 9.75207 11.6162 9.66837 11.4524L9.62412 11.3774L8.2501 9.31495V8.5822L9.98712 8.00395L10.0689 7.97095C10.2352 7.89291 10.367 7.75657 10.4395 7.58778C10.5119 7.41899 10.5199 7.22948 10.4619 7.0552V7.05595ZM7.50009 3.91795C7.20172 3.91795 6.91557 4.03648 6.70459 4.24745C6.49361 4.45843 6.37508 4.74458 6.37508 5.04295C6.37508 5.34132 6.49361 5.62747 6.70459 5.83844C6.91557 6.04942 7.20172 6.16795 7.50009 6.16795C7.79846 6.16795 8.08462 6.04942 8.2956 5.83844C8.50658 5.62747 8.62511 5.34132 8.62511 5.04295C8.62511 4.74458 8.50658 4.45843 8.2956 4.24745C8.08462 4.03648 7.79846 3.91795 7.50009 3.91795Z" fill="#3B2DFF"/>
</svg>
