<svg width="17" height="14" viewBox="0 0 17 14" fill="none" xmlns="http://www.w3.org/2000/svg">
<path d="M2.55 3.5275V1.7C2.55 0.765 3.315 0 4.25 0H12.75C13.685 0 14.45 0.765 14.45 1.7V3.536C13.464 3.8845 12.75 4.8195 12.75 5.9245V7.65H4.25V5.916C4.25 4.8195 3.536 3.876 2.55 3.5275ZM15.3 4.25C14.365 4.25 13.6 5.015 13.6 5.95V8.5H3.4V5.95C3.4 5.49913 3.22089 5.06673 2.90208 4.74792C2.58327 4.42911 2.15087 4.25 1.7 4.25C1.24913 4.25 0.81673 4.42911 0.497918 4.74792C0.179107 5.06673 0 5.49913 0 5.95V10.2C0 11.135 0.765 11.9 1.7 11.9V13.6H3.4V11.9H13.6V13.6H15.3V11.9C16.235 11.9 17 11.135 17 10.2V5.95C17 5.015 16.235 4.25 15.3 4.25Z" fill="#3B2DFF"/>
</svg>
