<svg width="12" height="12" viewBox="0 0 12 12" fill="none" xmlns="http://www.w3.org/2000/svg">
<path d="M0.198333 7.37039C0.548333 7.24206 0.91 7.17789 1.295 7.17789C2.07667 7.17789 2.75917 7.42289 3.3425 7.91289L1.51083 9.74456C0.902984 9.06008 0.454697 8.24918 0.198333 7.37039ZM7.91 4.55289C9.05917 5.41039 10.3017 5.62039 11.6317 5.18289C11.6492 5.30539 11.6667 5.52706 11.6667 5.83623C11.6667 6.43706 11.5208 7.10789 11.2467 7.84873C10.9725 8.58373 10.6342 9.17873 10.2375 9.62789L6.545 5.94706L7.91 4.55289ZM3.94917 8.54289C4.5675 9.43539 4.69583 10.4096 4.32833 11.4712C3.5 11.2321 2.75917 10.8587 2.14083 10.3454L3.94917 8.54289ZM5.94417 6.54789L9.625 10.2404C8.35917 11.3487 6.87167 11.8154 5.18 11.6346C5.3025 11.2496 5.36667 10.8296 5.36667 10.3746C5.36667 10.0129 5.285 9.58706 5.12167 9.10289C4.95833 8.61873 4.76583 8.22206 4.55 7.91289L5.94417 6.54789ZM3.9725 7.29456C3.44083 6.81929 2.78925 6.49854 2.08833 6.36706C1.37667 6.23289 0.694167 6.27373 0.035 6.49539C0.0175 6.36706 0 6.14539 0 5.83623C0 5.23539 0.145833 4.56456 0.42 3.82373C0.694167 3.08873 1.0325 2.49373 1.42917 2.04456L5.31417 5.94706L3.9725 7.29456ZM7.91 3.34539C7.12833 2.38289 6.9475 1.33289 7.3675 0.201226C7.72917 0.29456 8.14333 0.46956 8.61 0.737893C9.07083 1.00039 9.45 1.26289 9.74167 1.51373L7.91 3.34539ZM11.4683 4.30789C11.1183 4.43039 10.7567 4.49456 10.3717 4.49456C9.73583 4.49456 9.12333 4.30789 8.54 3.92289L10.3425 2.14373C10.8558 2.78539 11.2292 3.50289 11.4683 4.30789ZM5.94417 5.31706L2.04167 1.43206C3.3075 0.323726 4.795 -0.14294 6.4925 0.0378932C6.36417 0.422893 6.3 0.842893 6.3 1.29789C6.3 1.71789 6.39333 2.19039 6.58583 2.72123C6.77833 3.24623 7 3.66623 7.29167 3.97539L5.94417 5.31706Z" fill="#3B2DFF"/>
</svg>
