<svg width="17" height="17" viewBox="0 0 17 17" fill="none" xmlns="http://www.w3.org/2000/svg">
<path d="M14.45 9.35V11.9L11.9 9.35H6.8C6.34913 9.35 5.91673 9.17089 5.59792 8.85208C5.27911 8.53327 5.1 8.10087 5.1 7.65V1.7C5.1 0.765 5.865 0 6.8 0H15.3C15.7509 0 16.1833 0.179107 16.5021 0.497919C16.8209 0.81673 17 1.24913 17 1.7V7.65C17 8.10087 16.8209 8.53327 16.5021 8.85208C16.1833 9.17089 15.7509 9.35 15.3 9.35H14.45ZM11.9 11.05V12.75C11.9 13.2009 11.7209 13.6333 11.4021 13.9521C11.0833 14.2709 10.6509 14.45 10.2 14.45H5.1L2.55 17V14.45H1.7C1.24913 14.45 0.81673 14.2709 0.497919 13.9521C0.179107 13.6333 0 13.2009 0 12.75V6.8C0 5.865 0.765 5.1 1.7 5.1H3.4V7.65C3.4 8.55174 3.75821 9.41654 4.39584 10.0542C5.03346 10.6918 5.89826 11.05 6.8 11.05H11.9Z" fill="#3B2DFF"/>
</svg>
